<svg width="41" height="37" viewBox="0 0 41 37" fill="none" xmlns="http://www.w3.org/2000/svg">
<path d="M0.19475 34.706L19.1532 0.789333C19.4258 0.302166 19.9403 0 20.5 0C21.0576 0 21.5742 0.302166 21.8448 0.789333L40.8032 34.706C40.9344 34.9424 41 35.2014 41 35.4604C41 36.2518 40.3665 37 39.4584 37H1.5416C0.6396 37 0 36.26 0 35.4604C0 35.2014 0.06355 34.9424 0.19475 34.706ZM20.5041 20.5617C19.6554 20.5617 18.9666 21.2524 18.9666 22.1034V29.2978C18.9666 30.1488 19.6554 30.8395 20.5041 30.8395C21.3528 30.8395 22.0416 30.1488 22.0416 29.2978V22.1034C22.0416 21.2524 21.3528 20.5617 20.5041 20.5617ZM20.5 14.3951C19.3684 14.3951 18.45 15.3159 18.45 16.4506C18.45 17.5853 19.3684 18.5062 20.5 18.5062C21.6316 18.5062 22.55 17.5853 22.55 16.4506C22.55 15.3159 21.6316 14.3951 20.5 14.3951Z" fill="black"/>
</svg>
