<?xml version="1.0" encoding="UTF-8"?>
<svg width="261px" height="224px" viewBox="0 0 261 224" version="1.1" xmlns="http://www.w3.org/2000/svg" xmlns:xlink="http://www.w3.org/1999/xlink">
    <title>Combined Shape</title>
    <g id="Page-1" stroke="none" stroke-width="1" fill="none" fill-rule="evenodd">
        <path d="M135.28351,46.2636011 C140.019847,46.9955804 144.47631,48.4164815 148.803599,50.3971315 C152.872543,52.2701375 156.489382,54.7890075 159.912462,57.6738673 C162.883437,60.1712086 165.466894,63.0345395 167.899648,66.0055145 C169.212905,67.6201748 170.289346,69.4716519 171.322728,71.3016003 C173.497138,75.1983138 175.240971,79.2887866 176.704929,83.4869034 C177.609139,86.1134175 178.233474,88.804518 178.534878,91.5386761 C178.900867,94.9832848 179.352972,98.4494223 179.266857,101.894031 C179.159213,106.04909 178.771695,110.225678 177.393851,114.208507 C177.006333,115.349533 176.855631,116.598204 176.381997,117.696173 C175.671547,119.37542 174.788866,120.99008 173.927714,122.626269 C172.743629,124.886794 171.581074,127.147318 170.310875,129.364785 C168.997617,131.646838 167.576716,133.864305 166.241931,136.124829 C165.509951,137.351971 164.950202,138.686757 164.067521,139.784726 C162.840379,141.291742 162.495919,143.121691 161.828526,144.822466 C161.139604,146.587828 160.536797,148.396248 160.192337,150.247725 C159.869405,151.926972 159.869405,153.692334 159.847876,155.414638 C159.804818,158.816189 159.977049,162.21774 159.783289,165.619291 C159.654116,167.879816 159.202012,170.161869 158.556147,172.336278 C158.1471,173.714121 156.963016,174.725975 155.456,175.156551 C154.91778,175.307253 154.358031,175.414897 153.798282,175.522541 C155.067653,177.974341 155.044914,180.510408 154.955193,183.062681 L154.916212,184.157306 C154.908225,184.400689 154.901219,184.64413 154.896251,184.887571 C154.853193,187.018922 155.219183,189.193332 155.606701,191.303154 C156.037277,193.606736 156.144921,195.802674 154.788607,197.804853 C153.755224,199.333398 153.712167,200.840415 154.508732,202.455075 C154.831664,203.100939 155.111539,203.746803 155.348356,204.414196 C155.664111,205.219373 155.493603,205.97824 155.295309,206.750228 L155.187148,207.17297 C155.152013,207.314557 155.118715,207.456934 155.09001,207.600459 C154.530261,210.270031 152.678784,211.238827 150.375202,211.777047 C146.306258,212.745843 142.172728,213.025718 137.99614,212.98266 C133.173687,212.939603 128.329706,212.788901 123.507254,212.681257 C122.646102,212.659728 121.806479,212.681257 120.859211,212.681257 C121.375903,214.123687 122.258584,215.157069 123.464197,215.932106 C126.499758,217.891227 129.836723,218.903081 133.432033,218.816966 C135.434212,218.773908 137.479448,218.601678 139.438569,218.106515 C140.385837,217.876875 141.266126,217.398457 142.136846,216.888145 L142.78899,216.502819 C143.006371,216.374643 143.224051,216.247862 143.442927,216.125866 C144.28255,215.652232 145.036058,215.027897 145.854153,214.511205 C146.844478,213.865341 147.404227,214.102158 147.70563,215.221656 C148.308437,217.48218 147.920918,218.278746 146.198614,219.742705 C144.239493,221.421951 142.000497,222.261575 139.546213,222.993554 C136.058547,224.026937 132.635467,224.048465 129.255445,223.079669 C126.844219,222.369219 124.583695,221.142077 122.624573,219.46283 C120.751567,217.826641 119.330666,215.889049 118.404928,213.606995 C117.995881,212.61667 117.306959,212.358325 116.359691,212.229152 C115.369366,212.07845 114.379041,211.884691 113.474832,211.475644 C111.817114,210.743664 110.719145,209.516523 110.568443,207.57893 C110.43927,205.899684 109.965637,204.241966 110.051752,202.584248 C110.159396,200.431367 110.589972,198.278487 111.042077,196.147135 C111.365009,194.683177 111.192778,193.520621 110.030223,192.46571 C108.394034,190.958694 108.803081,188.999572 109.341301,187.255739 C110.223982,184.327822 109.944108,181.464491 109.470474,178.558102 C109.405888,178.192113 108.910725,177.783065 108.501678,177.589306 C107.145363,176.943442 105.638347,176.555924 104.411205,175.737829 C103.463938,175.113494 102.559728,174.10164 102.086094,173.046728 C100.815895,170.204926 100.428376,167.126307 100.062387,164.069217 C99.6318106,160.40932 99.3088786,156.727895 98.6845432,153.111056 C97.8018623,147.965672 95.2829922,143.68144 91.4078075,140.172245 C88.0708428,137.136683 84.647763,134.187237 81.4830288,130.979445 C79.2655619,128.718921 77.1126815,126.286166 75.4764924,123.616594 C74.0340625,121.248426 72.9791511,118.514268 72.3763446,115.801638 C71.5367213,112.012569 71.127674,108.115855 70.8047419,104.240671 C70.5463963,101.075936 70.8477995,97.8896734 71.5367213,94.7679968 C72.0534126,92.3352419 72.3548158,89.8379006 73.0652664,87.4697322 C73.7757169,85.0369773 74.8090995,82.7118665 75.7563669,80.3652268 C77.9953625,74.6600937 81.7198456,70.009872 85.9179624,65.617996 C90.1160792,61.22612 94.9385313,57.6738673 99.9978003,54.4014891 C101.547874,53.3896353 103.24865,52.5715407 104.949425,51.7965038 C107.877343,50.4832467 110.826789,49.2345761 113.797764,48.0935495 C115.175607,47.5768582 116.639566,47.1678109 118.103525,47.0816957 C118.2792,47.0748064 118.463693,47.059099 118.653301,47.043568 L118.941085,47.021528 C119.861618,46.9592743 120.855767,47.0024697 121.526604,48.1150783 C121.052971,49.6220945 119.610541,49.9450266 118.36187,50.2249011 C115.455482,50.8707652 112.936612,52.3993103 110.310097,53.6695097 C107.554411,55.0042956 104.777195,56.382139 102.17221,57.9967993 C99.9116851,59.4177004 97.8233911,61.1400047 95.7566259,62.8407803 C93.9482063,64.3262678 92.2904884,65.9839857 90.5466553,67.5555884 C87.4680363,70.3328041 85.0568102,73.6697687 82.9469874,77.1789638 C81.6552592,79.3318442 80.686463,81.7215415 79.8468396,84.0897099 L79.4069211,85.3598875 C78.3133034,88.5393189 77.297576,91.7552306 77.0696239,95.1555152 C76.8758647,98.040375 76.4452886,100.903706 76.3591734,103.788566 C76.2084718,107.792923 76.7251631,111.754223 77.5217288,115.672466 C78.1891217,118.901786 79.373206,121.958876 81.1816255,124.649977 C82.882401,127.190376 85.0137526,129.472429 87.2096907,131.603781 C90.137608,134.467112 93.3669286,137.029039 96.3379036,139.870841 C99.588753,142.970989 102.409026,146.458655 104.045215,150.69983 C104.992483,153.154114 105.358473,155.780628 105.380001,158.428671 C105.40153,160.77531 105.423059,163.143479 105.702933,165.468589 C106.004337,167.965931 106.499499,170.441743 107.145363,172.874498 C107.618997,174.63986 108.329447,174.833619 110.137867,174.725975 C111.558768,174.63986 112.979669,174.855148 114.40057,174.833619 C117.220844,174.81209 120.041117,174.81209 122.86139,174.661389 C127.210209,174.424572 131.559027,174.144698 135.907846,173.73565 C140.192078,173.326603 144.47631,172.745325 148.739013,172.164048 C149.901568,172.013346 151.042595,171.647356 152.140564,171.238309 C153.47535,170.721618 153.992041,169.494476 154.228858,168.224276 C154.767078,165.382474 154.831664,162.519143 154.637905,159.634284 C154.487203,157.54599 154.250387,155.393109 154.487203,153.347873 C154.896251,149.881735 155.283769,146.415598 156.726199,143.078633 C157.999474,140.130725 159.566354,137.360759 161.152298,134.608587 L162.209407,132.774684 C162.73636,131.857293 163.258653,130.937925 163.766118,130.010649 C165.70371,126.458396 167.619774,122.863086 169.342078,119.181661 C172.162352,113.175124 173.583253,106.824127 173.497138,100.193255 C173.475609,98.6001239 173.08809,97.0285212 172.894331,95.4353897 C172.528341,92.5935875 172.248467,89.7517854 171.817891,86.9315121 C171.236613,83.0347985 169.880298,79.353373 168.265638,75.8226491 C166.823208,72.6794437 165.187019,69.5577672 163.227898,66.7374938 C159.58953,61.5059944 155.26224,56.8557727 149.535579,53.7771537 C147.554929,52.7222423 145.423577,51.9041478 143.313754,51.107582 C138.555888,49.3422201 133.604264,48.7824712 128.544995,49.0623456 C127.059507,49.1484609 125.789308,48.696356 124.820511,47.5122717 C124.605223,47.2539261 124.497579,46.9094652 124.30382,46.5434756 C128.006774,45.617737 131.602085,45.7038522 135.28351,46.2636011 Z M139.632329,176.9865 C134.056368,177.675421 128.480408,178.256699 122.904448,178.794919 C121.160615,178.96715 119.395253,178.924092 117.65142,178.881034 C116.273576,178.859506 114.917262,178.665746 113.388716,178.558102 C113.604004,179.376197 113.711649,179.979003 113.926937,180.538752 C114.809618,182.756219 115.003377,184.973686 114.185282,187.277268 C113.49636,189.21486 113.173428,191.066338 115.13255,192.724055 C115.864529,193.326862 116.273576,193.735909 117.156257,193.326862 C117.414603,193.219218 117.694477,193.154632 117.952823,193.046988 C123.464197,190.506589 129.255445,188.805813 135.132809,187.363383 C135.714086,187.212682 136.316893,187.191153 137.242631,187.040451 C136.876642,187.858546 136.661354,188.396766 136.381479,188.891928 C136.123134,189.322504 135.843259,189.860725 135.455741,190.011426 C134.663481,190.330052 133.860887,190.628011 133.054848,190.919081 L130.633289,191.7854 C130.230269,191.930934 129.828111,192.078191 129.427676,192.228893 C124.777454,193.972726 120.127232,195.738088 115.47701,197.546508 C115.240194,197.632623 114.981848,198.063199 114.93879,198.343073 C114.637387,201.314048 114.723502,204.263494 115.283251,207.191412 C115.627712,209.042889 116.20899,209.667224 118.125053,209.75334 C121.440489,209.882512 124.755925,209.947099 128.071361,209.990156 C132.656996,210.076272 137.221103,210.248502 141.806738,210.119329 C144.28255,210.054743 146.779892,209.516523 149.212646,209.042889 C150.439788,208.806072 151.473171,207.191412 151.30094,206.007328 C151.064124,204.371138 150.655076,202.756478 150.310615,201.055703 C147.899389,201.916855 145.617336,202.627305 143.421398,203.574573 C140.579596,204.780186 137.759323,205.921212 134.616117,204.672542 C134.594588,204.220437 134.551531,203.875976 134.530002,203.488458 C135.11128,203.337756 135.692558,203.273169 136.18772,203.036353 C140.278193,201.314048 144.261022,199.376456 148.588311,198.256958 C150.202971,197.847911 151.343998,196.986759 151.559286,195.049166 C151.66693,194.08037 151.839161,193.197689 151.4947,192.487239 C147.727159,194.317187 144.045733,196.233251 140.235135,197.86944 C135.735615,199.807032 131.14998,201.507808 126.585873,203.251641 C124.971213,203.875976 123.270438,204.328081 121.634248,204.909359 C120.923798,205.146175 120.643923,204.694071 120.407107,204.220437 C120.277934,203.854447 120.213347,203.466929 120.084175,203.014824 C120.514751,202.756478 120.88074,202.498133 121.268259,202.325902 C124.84204,200.818886 128.415822,199.333398 131.968074,197.847911 C132.552428,197.603918 133.137562,197.361877 133.722882,197.120469 L135.478806,196.396822 C140.452132,194.344379 145.395897,192.24222 149.944626,189.279447 C150.870364,188.67664 150.913422,188.095363 150.784249,187.169624 C150.568961,185.61955 150.461317,184.069476 150.396731,182.497874 C150.353673,181.184616 150.525904,179.871359 150.396731,178.579631 C150.332144,177.826123 149.987683,176.857327 149.018887,176.835798 L148.238456,176.817795 L146.677293,176.777603 C144.335027,176.720081 141.989733,176.695861 139.632329,176.9865 Z M144.993001,180.04359 C144.928414,182.002711 144.153378,183.10068 142.344958,183.574314 C138.319072,184.629225 134.271656,185.554964 130.267299,186.69599 C127.382439,187.514085 124.562166,188.590525 121.677306,189.473206 C120.364049,189.882253 118.986206,190.162128 117.629891,190.442002 C116.962498,190.571175 116.187461,190.786463 115.993702,189.710023 C115.982937,189.67773 115.912969,189.656201 115.859147,189.648128 L115.823382,189.644013 L115.835405,189.477349 C115.855742,189.106777 115.839925,188.790435 115.950644,188.568996 C116.122875,188.246064 116.402749,187.901603 116.725681,187.793959 C120.277934,186.502231 123.808658,184.995215 127.447026,184.026419 C133.044515,182.519402 138.728119,181.378376 144.368666,180.086647 C144.540896,180.022061 144.734655,180.04359 144.993001,180.04359 Z M143.658215,118.363566 C145.531221,119.267776 145.811095,120.236572 145.208289,122.088049 C144.024205,125.747946 142.990822,129.472429 141.892853,133.175383 C141.526863,134.445583 141.182403,135.715782 140.902528,137.00751 C140.256664,139.913899 139.546213,142.820288 139.029522,145.769734 C138.620475,148.051787 138.362129,150.398427 138.232956,152.723537 C138.082255,155.177821 138.189899,157.653634 138.146841,160.107917 C138.125312,161.292001 137.953082,162.454557 137.931553,163.638641 C137.888496,165.662349 137.888496,167.686056 137.888496,169.709764 C137.888496,170.441743 137.608621,170.829262 136.855113,170.67856 C134.271656,170.097282 133.259803,169.0639 133.690379,166.049867 C134.103732,163.220982 134.176069,160.399848 134.209653,157.577163 L134.229619,155.695042 C134.243525,154.440005 134.263045,153.184254 134.314714,151.926972 C134.3793,150.463013 134.530002,149.020583 134.637646,147.470509 C132.273783,147.793441 129.964173,148.116373 127.666964,148.439305 L123.076678,149.08517 C123.442668,151.496396 123.894773,154.101381 124.239234,156.727895 C124.755925,160.624609 125.272616,164.521322 125.681664,168.418036 C125.789308,169.451418 125.530962,170.527858 125.401789,171.604299 C125.38026,171.798058 125.272616,172.034875 125.121915,172.142519 C124.110061,172.896027 121.892594,171.862644 121.763421,170.570916 C121.483547,167.7937 121.397432,164.994956 120.945327,162.239269 C119.955002,155.974387 118.964677,149.731034 117.65142,143.530738 C117.027084,140.581292 115.778414,137.73949 114.658916,134.919216 C112.893554,130.441225 110.589972,126.243108 107.618997,122.43251 C107.231478,121.937348 106.693258,121.5283 106.30574,121.033138 C106.230389,120.936258 106.192714,120.807085 106.165803,120.669839 L106.11836,120.391759 C106.110187,120.34601 106.101216,120.301158 106.090452,120.258101 C106.348798,120.215043 106.67173,120.08587 106.865489,120.171986 C108.049573,120.774792 109.384359,121.248426 110.353155,122.131107 C112.872025,124.41316 114.422099,127.448721 116.187461,130.290524 C118.232697,133.584431 119.373724,137.222798 120.686981,140.79658 C120.902269,141.356329 121.160615,141.614675 121.78495,141.50703 C124.562166,141.033397 127.36091,140.581292 130.159655,140.129187 C130.827048,140.021543 131.51597,139.956957 132.183362,139.935428 C133.539677,139.89237 134.917521,139.913899 136.252306,139.913899 C137.350275,136.081772 138.211428,132.378818 139.460098,128.826565 C140.708769,125.295841 141.246989,121.442185 143.658215,118.363566 Z M74.206293,153.39093 C74.2924082,154.381255 74.8521571,155.37158 74.7445131,156.318848 C74.5938114,157.610576 74.206293,158.966891 73.5604288,160.086388 C72.5485751,161.85175 71.2999044,163.530997 70.0081762,165.124129 C68.7164479,166.738789 66.843442,167.470768 64.8843208,167.965931 C62.9467284,168.439564 60.9660784,168.805554 59.0500149,167.901344 C58.3610931,167.578412 57.7367578,167.169365 57.0047785,166.738789 C58.2103915,165.468589 59.3514181,164.672024 60.6431464,163.940044 C61.9564034,163.208065 63.0328436,162.023981 64.1523415,160.990598 C66.4128659,158.880775 68.6303327,156.706366 70.8908571,154.575015 C71.5797789,153.92915 72.3548158,153.304815 73.1729104,152.831181 C73.5604288,152.594365 74.1201778,152.508249 74.206293,153.39093 Z M176.231296,145.66209 C177.58761,145.877378 178.642522,145.920435 179.632847,146.20031 C181.37668,146.673943 183.228157,147.039933 184.778231,147.922614 C185.897729,148.568478 187.146399,149.042112 188.158253,149.79562 C189.449981,150.764416 190.526422,152.034616 191.710506,153.175642 C192.72236,154.165967 193.841857,155.091706 194.746067,156.189675 C195.887094,157.589047 196.963534,159.053006 197.867744,160.60308 C198.169147,161.119771 197.996917,162.110096 197.695513,162.691374 C197.307995,163.380295 196.554487,162.928191 195.887094,162.842075 C193.454339,162.540672 191.775092,160.926012 189.902086,159.655812 C188.588829,158.751603 187.297101,157.804335 186.04843,156.81401 C183.787906,155.070177 181.54891,153.304815 179.76202,151.022762 C178.85781,149.860206 177.845956,148.783766 176.984804,147.599682 C176.640343,147.169106 176.554228,146.501713 176.231296,145.66209 Z M63.1189589,137.179741 C63.6787078,137.416558 63.5495349,139.246506 62.9467284,139.698611 C61.6550002,140.710465 60.3848007,141.743847 59.0069573,142.626528 C56.8540769,144.025901 54.6581388,145.382215 52.4191432,146.609357 C49.9433307,147.965672 47.4675183,149.580332 44.6472449,149.989379 C42.4082493,150.312311 40.0400809,150.764416 37.7795564,149.601861 C37.0260483,149.235871 36.0357233,149.214342 35.6051472,148.460834 C36.8538178,147.944143 38.1024885,147.556624 39.2435151,146.953818 C43.8937368,144.521063 48.5009009,141.980664 53.1511226,139.526381 C55.2609454,138.428411 57.4353546,137.438087 59.5667062,136.383175 C60.9660784,135.694253 61.999461,136.684578 63.1189589,137.179741 Z M135.584913,142.583471 C131.020807,143.186277 126.65046,144.521063 121.978709,144.068958 C122.107882,144.607178 122.258584,144.951639 122.258584,145.2961 C122.301641,146.243367 122.775275,146.394069 123.59337,146.221839 C124.971213,145.941964 126.349057,145.705147 127.705371,145.425273 C130.07354,144.93011 132.441708,144.370361 134.852934,145.683618 C135.11128,144.650236 135.326568,143.724497 135.584913,142.583471 Z M195.090528,128.395989 C196.080853,128.783507 197.243408,128.718921 198.29832,128.934209 C199.396289,129.171026 200.515787,129.386314 201.506112,129.838419 C203.379118,130.678042 205.252124,131.582252 206.974428,132.680221 C207.986282,133.326085 208.825905,134.337939 209.536356,135.328264 C210.419037,136.555406 209.493298,137.868663 207.770994,137.976307 C207.512648,137.997835 207.254302,137.954778 207.017486,137.933249 C203.960395,137.933249 201.161651,137.222798 198.642781,135.371321 C196.662131,133.907363 194.50925,132.658692 192.5286,131.194733 C191.861207,130.7211 191.387574,129.946063 190.935469,129.235612 C190.612537,128.718921 190.784767,128.223758 191.495218,128.20223 C191.680697,128.195605 191.865156,128.184395 192.048989,128.171891 L192.598998,128.133792 C193.422364,128.0807 194.240968,128.068089 195.090528,128.395989 Z M126.435172,104.089969 C128.781811,104.197613 130.568702,105.33864 132.118776,107.039415 C132.979928,106.522724 133.84108,106.006033 134.680704,105.489341 C136.855113,104.176084 138.943407,104.671247 141.117816,105.596985 C143.636686,106.651897 144.627011,108.826306 145.574279,111.065301 C145.811095,111.646579 146.09097,111.840338 146.715305,111.969511 C147.296583,112.077155 148.136206,112.378559 148.265379,112.809135 C148.523725,113.519585 148.911243,114.445324 148.114677,115.198832 C147.877861,115.435649 147.813274,115.844696 147.597986,116.103042 C146.822949,117.02878 145.854153,116.985723 144.47631,116.189157 C143.313754,115.521764 143.141524,114.359209 142.926236,113.261239 C142.388016,110.354851 140.773355,108.201971 138.297543,106.781069 C136.747469,105.87686 133.970253,107.426934 133.690379,109.235353 C133.647321,109.493699 133.819552,109.773573 133.927196,110.031919 C134.104808,110.553992 134.301259,111.073375 134.501409,111.592421 L134.902159,112.630762 C135.364991,113.843265 135.793025,115.062483 135.993961,116.31833 C136.273835,118.062163 135.778673,119.935169 135.627971,121.743588 C135.606442,122.109578 135.541856,122.454039 135.520327,122.7985 C135.434212,123.702709 134.271656,125.31737 133.539677,125.532658 C132.355593,125.85559 131.279153,125.295841 130.374943,124.219401 C128.889455,122.475568 129.061686,120.322687 128.889455,118.320508 C128.652639,115.650937 129.040157,112.981365 130.310356,110.527081 C130.461058,110.247207 130.418,109.665929 130.224241,109.450641 C129.147801,108.266557 128.071361,107.104002 126.865748,106.04909 C126.198355,105.467812 125.401789,105.596985 124.798983,106.372022 L124.519108,106.694954 C122.473872,109.192296 122.538458,109.149238 124.088532,111.947982 C124.885098,113.368884 125.530962,114.897429 126.004596,116.469031 C126.28447,117.416299 126.155297,118.514268 126.11224,119.526121 C126.004596,121.571358 126.478229,123.638123 125.767779,125.704888 C125.401789,126.802857 124.777454,127.341077 123.787129,127.534837 C121.052971,128.094586 119.567483,127.061203 118.534101,124.499275 C117.522247,121.980405 117.134728,119.289305 117.543776,116.598204 C117.845179,114.746727 118.491043,112.938307 118.943148,111.108359 C119.029263,110.763898 119.136907,110.290265 118.964677,110.074976 C118.081996,108.955479 117.199315,107.792923 116.122875,106.888713 C114.680445,105.661572 113.130371,105.769216 111.817114,107.190117 C110.934433,108.158913 110.26704,109.321468 109.621176,110.440966 C109.018369,111.474349 108.630851,112.636904 108.049573,113.670287 C107.812756,114.036276 107.253007,114.380737 106.800902,114.811313 C106.930075,115.112717 107.123834,115.457178 107.20995,115.823167 C107.403709,116.619733 107.425238,117.416299 106.628672,117.93299 C105.832106,118.428152 105.03554,118.126749 104.346619,117.696173 C103.808399,117.351712 103.356294,116.813492 102.947246,116.31833 C102.430555,115.693994 102.753487,114.811313 103.550053,114.50991 C103.722283,114.445324 103.894514,114.445324 104.066744,114.423795 C105.789049,114.208507 105.681405,114.165449 106.176567,112.486203 C106.607143,110.979186 107.059248,109.386055 107.898871,108.115855 C109.771877,105.274053 113.969994,103.379518 117.716006,104.735833 C118.964677,105.187938 119.976531,106.328965 121.182144,107.211646 C122.516929,105.640043 123.93783,103.982325 126.435172,104.089969 Z M120.557808,113.045951 C120.299463,114.703669 120.041117,116.146099 119.868886,117.610058 C119.63207,119.54765 120.019588,121.420656 120.557808,123.315191 C120.902269,124.542333 121.505076,125.403485 122.581516,125.984763 C124.088532,123.401306 122.925977,115.005073 120.557808,113.045951 Z M131.989603,113.261239 C131.580556,117.114895 130.740933,120.796321 132.850755,124.41316 C133.970253,122.497096 133.453562,115.737052 131.989603,113.261239 Z M85.9394912,14.7669607 C86.0256064,15.391296 85.7672608,15.6711705 85.1859831,15.8434009 C80.8156358,16.9628987 76.4668174,18.0608677 72.117999,19.244952 C69.1254952,20.0630465 66.1545202,21.0103139 63.1835453,21.9145237 C62.6022676,22.0867541 62.2578067,22.4096862 62.5376811,23.0986079 C63.2696605,24.7993834 63.1404877,26.5001589 62.5592099,28.2439921 C61.3535969,31.9038888 58.8993132,34.4658165 55.5623486,36.2311784 C53.646285,37.2430322 51.5364622,37.3506762 49.4266394,37.2215034 C45.5729835,36.9631577 42.5589509,34.9394501 39.8463216,32.3775225 C39.7171488,32.2483496 39.6095048,32.1191768 39.4588031,32.0115328 C39.3726879,31.9469464 39.2650439,31.9038888 39.3081015,31.9254176 C38.2101325,32.5712817 37.1552211,33.1740882 36.1433673,33.7984235 C32.8064027,35.8436599 29.4263804,37.8243099 26.1970598,40.0202479 C24.1302946,41.4196202 22.2788175,43.0988669 20.3412251,44.6919984 L19.5929441,45.3064701 L18.0926611,46.5283257 C16.5952132,47.7514807 15.116902,48.990583 13.753411,50.3540739 C10.459504,53.6264521 7.57464426,57.2002336 5.65858069,61.5705808 C4.25920842,64.7783726 4.51755407,67.8785204 5.05577418,71.0217258 C5.7016383,74.7892666 7.70381708,77.9540008 10.1581007,80.8819181 C12.8922589,84.1327675 16.2292235,86.6731664 19.7599474,88.9336908 C24.6254571,92.0553674 29.7062549,94.7679968 35.1960999,96.6625315 C39.8893792,98.2987206 44.6041873,99.9564386 49.5988699,100.559245 C52.548316,100.903706 55.4977622,101.312753 58.4256796,101.786387 C59.7604654,102.001675 61.0737225,102.410722 62.3869795,102.755183 C63.4849485,103.056586 63.9370534,103.982325 64.1738703,104.951121 C64.2384567,105.209467 63.7217654,105.87686 63.4203621,105.919917 C62.1932203,106.070619 60.8799632,105.87686 59.695879,106.156734 C57.1339513,106.781069 54.63661,106.113677 52.11774,106.04909 C50.3954356,106.006033 48.6731313,105.51087 46.9723558,105.101823 C45.2715802,104.692775 43.6138623,104.176084 41.9561444,103.637864 C36.9399331,102.044733 32.1174809,99.9994962 27.5964321,97.3083956 C24.5393419,95.4784473 21.3530789,93.7776718 18.4466903,91.7324354 C13.3443638,88.1155963 8.65108446,84.0466523 5.14188939,78.7936241 C1.61116552,73.4975383 -0.00349478934,67.6417036 0.62084053,61.2476488 C0.706955746,60.3864966 1.13753183,59.5468732 1.46046389,58.7287787 C3.54875789,53.6264521 6.71349209,49.2130473 10.8254937,45.6607946 C15.1527833,41.9363115 19.7599474,38.4917028 24.5178131,35.3269686 C28.5006418,32.7004545 32.8279315,30.6982757 37.0906347,28.3946937 C36.9184043,27.3182535 36.7031162,26.0911117 36.5308858,24.8639698 C36.1003097,21.6777068 37.4350956,19.1803655 39.69562,17.0490139 C40.9873482,15.8218721 42.3436629,14.9607199 44.19514,14.8315471 C44.5396009,14.8100183 44.862533,14.6324057 45.185465,14.427882 L45.5743613,14.1778034 C45.7701874,14.0545726 45.9691135,13.9402546 46.17579,13.8627509 C47.1230574,13.5182901 48.1133824,13.1738292 49.1037074,13.0446564 C51.3211742,12.7432531 53.5816986,13.1092428 55.4977622,14.1210966 C57.0478361,14.9391911 58.382622,16.2955058 59.6097638,17.587234 C60.2771567,18.2976846 60.8369056,18.4053286 61.6550002,18.1685117 C64.2384567,17.371946 66.8219132,16.5323226 69.4268985,15.7572857 C72.6562191,14.7884895 75.8855397,13.8627509 79.1148603,12.9585412 C80.2558869,12.6356091 81.4184423,12.4203211 82.559469,12.205033 C84.0234276,11.9251586 85.7672608,13.303002 85.9394912,14.7669607 Z M106.155038,3.03376246 L106.395886,3.24123191 L106.877449,3.65510767 C108.076484,4.69267642 109.215717,5.77509685 109.771877,7.4256385 C111.860171,7.03812002 113.883879,6.60754394 115.907587,6.28461188 C118.426457,5.8755646 120.966855,5.40193091 123.507254,5.20817168 C132.011132,4.51924994 140.51501,3.72268419 149.040416,3.33516572 C159.524944,2.84000322 170.009471,2.7108304 180.493999,2.43095595 C181.139863,2.40942714 181.807256,2.53859997 182.45312,2.75388801 L175.154855,2.75388801 L175.154855,2.86153203 C177.845956,2.86153203 180.537056,2.94764724 183.228157,2.84000322 C184.713644,2.77541681 186.091488,3.27057931 187.555447,3.37822333 C192.205668,3.65809778 196.812832,4.15326027 201.463054,4.56230755 C201.592227,4.58383636 201.7214,4.51924994 201.850573,4.36854832 C200.386614,4.17478908 198.922655,3.95950104 197.437168,3.7657418 L197.437168,3.63656898 C198.578194,3.744213 199.74075,3.744213 200.860248,3.98102984 C206.75914,5.27275809 212.722619,6.3922559 218.535396,8.04997382 C224.649576,9.79380695 230.569997,12.1835042 236.253601,15.1114216 C240.042671,17.0705427 243.271992,19.8047009 246.264495,22.7972046 C248.15903,24.6702106 250.032036,26.6508606 251.495995,28.8467986 C253.282886,31.5163703 254.768373,34.4227588 256.210803,37.3076186 C258.471327,41.8286675 259.526239,46.7372348 260.129045,51.7103885 C261.334658,61.656696 259.547768,70.9786682 254.273211,79.5686611 C253.369001,81.0326197 252.335618,82.4104632 251.302236,83.7883067 C250.893188,84.3480556 250.764015,84.8432181 250.871659,85.5536686 C251.345293,88.58923 251.151534,91.5386761 249.23547,94.1436614 C246.501312,97.8250869 242.884473,99.0307 238.492597,98.0834326 C237.588387,97.8896734 236.619591,97.7174429 235.823025,97.2868668 C234.251423,96.4257147 232.981223,96.9639348 231.538793,97.6313277 C229.838018,98.4278935 228.00807,98.9445848 226.19965,99.5043337 C224.369702,100.064083 222.518224,100.623831 220.645219,100.989821 C219.482663,101.226638 218.233992,101.118994 217.049908,101.226638 C216.576275,101.269696 216.145698,101.592628 215.672065,101.678743 C212.765676,102.152377 209.880816,102.62601 206.952899,103.035058 C206.479265,103.099644 205.984103,102.755183 205.467412,102.62601 C205.209066,102.561424 204.907663,102.475309 204.649317,102.496837 C201.52764,102.841298 198.427493,103.314932 195.284287,103.487162 C193.239051,103.594806 191.129228,103.336461 189.083992,103.035058 C188.050609,102.884356 187.103342,102.260021 186.113017,101.872502 C186.091488,101.743329 186.091488,101.592628 186.069959,101.463455 C186.41442,101.226638 186.715823,100.882177 187.081813,100.796062 C188.76106,100.365486 190.461835,99.9564386 192.162611,99.6335065 C194.573837,99.1814016 197.006592,98.8369407 199.417818,98.3848359 C205.036836,97.3514533 210.655853,96.3395995 216.253342,95.2201016 C218.578453,94.746468 220.903564,94.1006038 223.164089,93.3901533 C224.907922,92.8519332 226.587168,92.0553674 228.094185,91.4740897 C227.792781,89.6010838 227.340677,87.7711354 227.27609,85.9411871 C227.168446,82.5181072 229.019923,80.0638236 231.689495,78.1692888 C233.088867,77.1789638 234.552826,76.3393404 236.425832,76.5976861 C237.093225,76.6838013 237.846733,76.1025236 238.514126,76.2101676 C239.827383,76.4254557 241.119111,76.4685133 242.432368,76.5330997 C244.176201,76.6192149 245.231113,77.9755296 246.522841,78.8582105 C246.738129,79.0089122 246.888831,79.2887866 247.276349,79.8054779 C249.192413,77.2220214 251.130005,74.9184394 252.680079,72.3780405 C254.488499,69.3855367 255.930928,66.1562161 256.835138,62.7331363 C257.954636,58.4273754 257.997694,54.1000858 257.136541,49.7297386 C255.564939,41.6779658 251.646696,34.9179213 245.898506,29.1482018 C244.56372,27.813416 242.906002,26.823091 241.571216,25.4883051 C238.772472,22.6680318 235.220219,21.1610155 231.711024,19.5894128 C228.976866,18.362271 226.135064,17.4150036 223.31479,16.3600922 C220.386873,15.2621232 217.437427,14.1426254 214.487981,13.087714 C213.669886,12.8078395 212.744147,12.8293683 211.904524,12.6140803 C209.062722,11.9036298 206.242449,11.0855352 203.400646,10.4611999 C201.764457,10.0952102 200.063682,10.0521526 198.384435,9.85839336 C196.619073,9.64310532 194.87524,9.38475967 193.109878,9.23405804 C189.665269,8.91112598 186.220661,8.4805499 182.776052,8.35137707 C178.513349,8.17914664 174.250646,8.17914664 169.987942,8.24373305 C163.141783,8.37290588 156.317152,8.54513631 149.470992,8.86806837 C143.830445,9.12641402 138.16837,9.60004771 132.527823,10.0306238 C129.53532,10.2459118 126.542816,10.5042575 123.571841,10.8702472 C120.773096,11.214708 117.995881,11.7529281 115.218665,12.205033 C113.711649,12.4418499 112.183103,12.7001955 110.740674,12.9154835 C109.922579,14.4655574 109.1906,16.1878618 108.178746,17.6733493 C106.908546,19.5032976 105.014012,20.6443242 102.968775,21.5270052 C102.452084,21.763822 101.956921,22.0436965 101.461759,22.3235709 C99.9332139,23.2493095 98.275496,23.1201367 96.6823645,22.7326182 C94.9600601,22.3235709 93.2592846,21.7422932 91.5800379,21.1394867 C89.92232,20.5366802 88.931995,19.1157791 87.94167,17.7379357 C86.1117216,15.1114216 85.4012711,12.097389 85.5304439,9.01877 C85.5735015,7.77009936 86.4992401,6.49989992 87.1881618,5.3588733 C88.1784868,3.67962658 89.7716183,2.7108304 91.4723939,1.74203421 C93.2808134,0.708651617 95.2614634,0.278075535 97.177527,0.127373906 C100.449905,-0.130971743 103.593111,0.644065204 106.155038,3.03376246 Z M232.270773,82.7764529 C229.924133,85.510611 229.816489,89.3212093 233.368742,91.7109066 C235.069517,92.8519332 236.920994,93.3040381 238.794,93.8853158 C240.96841,94.5527087 242.970588,93.6700278 244.692893,92.7873468 C246.630485,91.7539642 247.879156,89.8379006 247.534695,87.598905 C247.62081,84.5418148 246.996475,82.0875311 244.305374,80.6666301 C243.973216,80.4943996 243.605908,80.3854375 243.23157,80.2915393 L242.668306,80.1559643 C242.574722,80.133243 242.481577,80.1099567 242.389311,80.0853524 C241.291342,79.7839491 240.171844,79.3103154 239.052346,79.2887866 C236.210544,79.2242002 234.057663,80.6881589 232.270773,82.7764529 Z M190.655594,23.4861264 C192.808475,24.0028177 195.176643,23.9812889 197.178822,24.842441 C199.805336,25.9834676 201.872101,28.028704 202.991599,30.8274486 C203.831223,32.9372714 204.520144,35.068623 204.003453,37.4152626 C203.852751,38.1041844 204.175683,38.5993468 204.972249,38.9222789 C213.002493,42.2377147 218.320108,48.028963 220.580632,56.4467255 C221.226496,58.9010091 221.140381,61.441408 220.193114,63.9172205 C219.439605,65.9193993 218.363165,67.7493476 216.877678,69.2563639 C215.801238,70.3543329 214.531038,71.3016003 213.282368,72.2273389 C211.646178,73.4114231 210.053047,74.7677377 208.223099,75.5858323 C205.467412,76.8129741 202.604081,77.8248279 199.697692,78.5998649 C195.025942,79.8270067 190.311134,80.8603893 185.574797,81.7861279 C184.046252,82.0875311 182.388534,81.7861279 180.795402,81.7430703 C179.675904,81.7430703 179.39603,81.118735 179.460616,80.3652268 C181.312093,79.8054779 183.098984,79.245729 184.907404,78.7505665 C185.467153,78.5998649 186.113017,78.6859801 186.672766,78.5137497 C188.868704,77.8032991 191.064642,77.0713198 193.239051,76.274754 C195.714863,75.3490155 198.190676,74.3802193 200.644959,73.3683655 C201.764457,72.9162606 202.840898,72.3780405 203.895809,71.8182916 C206.22092,70.5480921 208.309214,68.9764894 210.139162,67.0388971 C211.25866,65.833284 212.528859,64.7568438 213.540713,63.4435868 C216.12417,60.1066221 217.071437,56.3606102 215.75818,52.2270798 C215.110522,50.1818435 213.626305,48.8517297 212.074624,47.574463 L211.583274,47.1720998 L211.092821,46.7686154 C211.011452,46.7010171 210.930346,46.6331789 210.849613,46.5650044 C208.524502,44.627412 205.768815,43.5725006 203.206887,42.5821756 C201.441525,44.0461343 199.762279,45.4455066 198.083032,46.8448788 C197.867744,47.0171093 197.652456,47.2754549 197.39411,47.3185125 C196.854757,47.4182249 196.321129,47.5408377 195.788806,47.6682716 L194.99075,47.8607785 C193.261355,48.2759181 191.522412,48.6464998 189.622212,48.3518951 C185.101163,47.6845022 179.632847,43.852375 178.362647,38.9007501 C178.082773,37.8027811 177.845956,36.6832833 177.436909,35.6283719 C177.286207,35.2623822 176.683401,34.8748637 176.274353,34.8318061 C173.109619,34.4658165 169.923356,34.1644132 166.758622,33.9060676 C163.91682,33.6692507 161.053489,33.3678474 158.211687,33.3678474 C153.47535,33.3678474 148.717484,33.4324339 144.002676,33.7338371 C137.80238,34.1213556 131.623614,34.7241621 125.466376,35.3269686 C115.30478,36.3388224 105.380001,38.470174 95.5843954,41.2689186 C91.9460276,42.3023012 88.3291885,43.4863854 84.6692918,44.4551816 C82.5809978,45.0149305 80.4065886,45.3163337 78.2967657,45.7684386 C77.5002,45.940669 76.7251631,46.2205435 75.9501261,46.500418 C71.9457685,47.921319 67.8552958,49.1915185 63.9370534,50.8707652 C59.4160045,52.7868288 55.0456573,55.0904108 51.5364622,58.5996059 C49.7926291,60.343439 47.7904503,61.9796281 46.9723558,64.4554406 C45.6590987,68.4813269 46.6924813,71.5384171 50.4384932,74.5309209 C53.0650073,76.6192149 56.0575111,77.9755296 59.2653029,78.9658545 C63.0543724,80.12841 66.8003844,81.4631958 70.5679251,82.7118665 C71.2568468,82.9486833 71.7304805,83.3362018 71.6443653,84.0897099 C71.5367213,84.9939197 70.8047419,84.9723909 70.1804066,84.8862757 C69.03938,84.7140452 67.9198822,84.5418148 66.8219132,84.2404116 C63.2481317,83.2285578 59.6097638,82.3674056 56.1436263,81.0756774 C52.6990177,79.7839491 49.3405242,78.1908176 47.1445862,74.961497 C46.4987221,74.0142296 45.7236851,73.1746062 44.970177,72.3134541 C43.2909303,70.3328041 42.7096526,67.9861645 42.9464694,65.4888232 C43.1832863,62.8623091 43.9367944,60.3649678 45.7452139,58.3412602 C46.8647118,57.1141184 48.264084,56.1022646 49.2974666,54.8105363 C51.2996454,52.3131951 53.9476883,50.7200636 56.6603176,49.2345761 C59.0930725,47.921319 61.6550002,46.8448788 64.2384567,45.833025 C67.3816621,44.5843544 70.5679251,43.4433278 73.7757169,42.32383 C75.2827332,41.8071387 76.8758647,41.4842066 78.4259386,41.0321017 C80.7079918,40.3647088 82.990045,39.6542582 85.2720983,38.9868653 C88.1139004,38.147242 90.9557026,37.3291474 93.7975047,36.5325817 C95.9503851,35.9297751 98.1032655,35.2623822 100.299204,34.8102773 C105.552232,33.6907795 110.80526,32.5497529 116.101346,31.6240143 C120.751567,30.8059198 125.423318,30.224642 130.095068,29.6864219 C133.604264,29.2773747 137.156516,28.9759714 140.68724,28.7606834 C143.141524,28.6099817 145.595807,28.6315105 148.050091,28.5884529 C150.978008,28.5453953 153.905926,28.3731649 156.833843,28.4808089 C161.699353,28.6530393 166.564863,28.9329138 171.430372,29.2989035 C173.324907,29.4496051 175.219442,29.9232388 177.092448,30.2676997 C177.975129,30.4399301 178.556406,30.3753437 179.223799,29.4926627 C181.053748,27.1244943 183.443445,25.4237187 186.349834,24.5410378 C187.770735,24.1104617 188.976348,23.0770791 190.655594,23.4861264 Z M190.461835,27.6196568 C188.782588,27.9425888 187.081813,28.6315105 185.596325,29.5141915 C182.905225,31.0857942 180.859989,33.2602034 180.989161,37.1353882 C180.558585,39.1160381 181.785727,40.5799968 183.766377,41.5918506 L183.981665,41.7114551 L184.412241,41.9793691 C186.328305,42.9912229 188.352012,43.7662598 190.504893,43.8093174 C192.593187,43.852375 194.573837,43.2280397 196.511429,42.3668876 C198.083032,41.656437 199.073357,40.5369392 199.74075,39.0514517 C200.946363,36.4249376 200.709546,31.3010823 196.511429,28.8467986 C194.638423,27.7488296 192.550129,27.2321383 190.461835,27.6196568 Z M50.5246085,16.6184379 C48.7377177,17.0490139 47.4029319,18.1254541 45.960502,19.0942503 C45.7667427,19.2234231 45.4653395,19.46024 45.3576955,19.4171824 C44.0013808,18.6636742 43.4416319,19.567884 42.666595,20.450565 C40.685945,22.7110894 40.1046673,25.3591323 40.4921857,28.2009345 C40.6213586,29.1697306 41.3102803,30.2461709 42.0637884,30.892035 C43.6353911,32.2483496 45.5083971,33.0449154 47.7043351,32.9372714 C48.6516025,32.8080985 49.6634563,32.8296273 50.5676661,32.5497529 C54.3567356,31.3656687 57.4353546,29.3634899 58.8777844,25.3376035 C59.2437741,24.3472785 59.3514181,23.5076552 59.0284861,22.5819166 C58.705554,21.6346492 58.382622,20.665853 57.9305171,19.7831721 C56.4450296,16.9628987 53.646285,15.8649297 50.5246085,16.6184379 Z M100.665193,3.95950104 C99.4380514,4.17478908 98.2109095,4.32549071 96.9622389,4.49772114 C96.2302596,4.60536516 95.412165,4.51924994 94.7447721,4.77759559 C92.4196612,5.61721895 90.9987602,7.46869611 89.8146759,9.47087489 C89.1903406,10.5257863 88.7382357,11.6668129 88.9535238,13.0231276 C89.3625711,15.6496417 90.3959537,17.47959 93.3023422,18.0823965 C96.2733172,18.7067319 99.0505329,18.8143759 101.741633,17.2427732 C102.322911,16.8983123 102.925718,16.5538514 103.442409,16.1232754 C105.380001,14.5301439 107.037719,12.7217243 106.930075,9.92297977 C106.84396,9.47087489 106.757845,8.9972412 106.693258,8.54513631 C106.262682,6.00473743 103.722283,3.44280974 100.665193,3.95950104 Z" id="Combined-Shape" fill="#000000" fill-rule="nonzero"></path>
    </g>
</svg>