<?xml version="1.0" encoding="UTF-8" standalone="no"?>
<!DOCTYPE svg PUBLIC "-//W3C//DTD SVG 1.1//EN" "http://www.w3.org/Graphics/SVG/1.1/DTD/svg11.dtd">
<svg width="100%" height="100%" viewBox="0 0 506 386" version="1.1" xmlns="http://www.w3.org/2000/svg" xmlns:xlink="http://www.w3.org/1999/xlink" xml:space="preserve" xmlns:serif="http://www.serif.com/" style="fill-rule:evenodd;clip-rule:evenodd;stroke-linejoin:round;stroke-miterlimit:2;">
    <g transform="matrix(1,0,0,1,-82.5608,-230.808)">
        <g transform="matrix(0.37429,0,0,0.37429,51.6591,144.419)">
            <path d="M193.997,1223.75C188.857,1227.25 183.719,1230.76 178.6,1234.3C166.6,1242.6 154.6,1250.9 142.7,1259.5C139.6,1261.7 137.2,1260.7 134.5,1259.5C131.9,1258.4 132.3,1256.5 132.8,1254.1C133.2,1251.7 132.4,1249 132.4,1246.5C132.4,1240.4 138.2,1238.6 141.6,1235.4C146.2,1231.1 152,1228.1 157.2,1224.5C170.3,1215.2 183.2,1205.5 196.6,1196.6C209.1,1188.3 220.2,1178 234.2,1171.9C239.9,1169.4 245.1,1165.9 250.6,1162.8C260.5,1157.4 271.2,1160.3 281.4,1160.7C300.7,1161.3 319.6,1159.6 338.4,1155.3C350.5,1152.5 362.9,1150.7 374.9,1147.3C395.7,1141.4 416.2,1134.5 436.9,1128.4C450.6,1124.4 464.3,1120.7 478.2,1117.7C491.4,1114.8 504.9,1113.4 518.2,1110.6C530.2,1108.1 540.2,1102.6 544.4,1089.6C550.2,1071.8 554.9,1054 552.4,1034.6C544.5,1036.6 536.8,1038.5 529,1040.4C526.9,1040.9 524.7,1041.7 522.7,1041.5C520.1,1041.3 516.3,1041.1 515.1,1039.4C513.1,1036.4 515.6,1030.5 518.7,1029.3C526.1,1026.4 533.5,1023.5 541,1020.9C548.1,1018.4 555.1,1015.2 562.4,1014.4C575.6,1013 576.2,1002.8 578.6,993.7C581.9,980.9 577.8,968.7 574.9,956.4C573.3,949.4 571.3,949.5 564.8,952.6C549.6,959.7 534.2,966.2 518.6,972.6C513.5,974.7 507.8,975.6 502.3,976.7C498.5,977.4 495.4,973.5 497.3,970.2C498.9,967.4 501.4,964.4 504.2,963C522.5,954 541,945.5 559.5,936.8C563.1,935.1 566.8,933.6 570.4,932.1C586.5,925.3 595,912.3 601.6,896.8C606.6,884.9 608.2,873.3 605.3,861.1C604.4,857.2 602.1,853.6 600.3,849.7C586.8,855.8 573.9,862.6 560.2,867.6C540,875.1 519.3,881.3 498.8,888C493.7,889.7 492.9,885.3 491.4,882.1C499,875.6 508.4,873 517.4,869.3C536.9,861.4 556.5,853.3 575.5,844.2C590.2,837.2 604.1,828.7 618.3,820.8C619.6,820.1 620.9,819.3 621.9,818.2C628.3,811 628.8,795.8 622.1,788.6C616.9,783 611.2,777.1 604.4,773.9C599.2,771.4 592,772.2 585.9,772.8C573.1,774.1 560.3,776.2 547.5,777.9C533.4,779.7 519.2,781.3 505.2,783.3C498.1,784.3 491,786.1 484,787.9C470.2,791.4 456.1,794 442.9,799.1C430.7,803.9 419.6,811.6 407.9,817.7C388.9,827.6 369.9,837.4 350.9,847.2C350,847.7 349,847.9 348.2,848.5C344.9,851.1 342.3,850.6 340.1,846.9C338,843.4 337,840.2 340.6,836.8C341.9,835.6 342.9,833 342.6,831.2C341.7,826 340.1,820.9 338.8,815.8C336.6,806.8 334.4,797.8 332.3,788.7C331.6,785.7 330.9,782.7 330.1,779C327.8,779.9 325.5,780.3 324,781.5C310.8,792.4 297.9,803.7 284.6,814.4C274.3,822.6 269.8,833.9 265.6,845.7C258.8,864.8 251.5,883.7 244.4,902.6C238.5,918.3 231,933.1 221.4,946.9C212.4,959.9 204.4,973.6 195.8,986.8C193.5,990.4 190.5,993.6 187.6,996.8C184.3,1000.4 180.3,1001.9 175.3,1000.1C174,999.7 171.9,1000.7 170.5,1001.6C156.1,1012 141.7,1022.5 127.4,1033C116.7,1040.8 105,1046.8 92.5,1051.3C88.3,1052.8 85.9,1051.3 84.1,1048.4C82.4,1045.6 81.5,1041.9 84.7,1039.4C90.2,1035 95.9,1030.7 101.7,1026.7C119.8,1014.3 138,1002.2 156.1,989.8C166.5,982.7 176.8,975.4 186.7,967.6C189.8,965.2 191.7,961 193.9,957.5C204.6,940.8 215.3,924.2 225.7,907.4C228.4,902.9 230.5,897.9 232,892.8C234.9,883.1 237.4,873.3 239.9,863.5C242.9,851.8 244.9,839.9 248.7,828.5C252.3,817.8 260.5,809.7 269.1,802.6C283.4,791 298.2,780.1 312.6,768.6C316.2,765.8 319.1,762.1 323.1,758C317.1,757.3 312.4,756.4 307.6,756.3C294.6,756.2 284.4,750 275.1,741.8C274,740.9 273.5,739.3 272.9,737.9C269.8,731.1 266.8,724.3 263.4,716.8C255.5,716.8 247.4,716.9 239.3,716.8C230.5,716.7 224.3,711.2 218.1,705.9C217.3,705.2 216.9,703.5 216.9,702.2C215.3,674.9 213.6,647.5 212.2,620.2C211.4,604.4 211.1,588.7 211,572.9C210.9,564.8 211.4,556.6 212.1,548.5C212.8,541.4 216,535.8 223.9,534.4C232.5,532.9 241.2,531.2 249.9,530.1C253.1,529.7 254.3,529.1 254.4,525.4C254.6,515.1 257.8,505.4 269.2,502.7C282.1,499.6 295.2,497.1 308.2,494.4C310.5,493.9 312.8,493.6 315.1,493.3C318.3,493 319.7,491.2 320.8,488.2C326.4,472.6 338.5,465 354.3,462.3C357.8,461.7 361.2,460.2 364.7,459.5C379.3,456.7 393.9,454 408.5,451.2C414.2,450.1 419.9,448.9 425.6,448.1C431.8,447.2 438.1,446.7 444.3,445.7C451.5,444.5 458.7,442.5 466,441.6C475.8,440.3 485.8,439.6 495.7,438.8C510.3,437.7 525,436.4 539.6,435.9C561,435.3 582.4,434.8 603.8,435.4C611.1,435.6 618.7,438.4 625.4,441.5C632.8,444.9 635.1,452.5 635.5,460.2C635.8,467.1 635.2,474.1 635.4,481C635.9,494.4 636.4,507.9 637.4,521.3C638.3,533.8 640,546.3 641.1,558.7C642,568.7 642.6,578.8 643.2,588.9C643.8,598.6 643.8,608.3 644.6,617.9C645.7,630.6 647.2,643.3 648.6,656C649.7,666.3 650.9,676.6 652.1,687.5C657.2,681 662.9,677.4 670.7,676.3C691.8,673.2 712.8,676 733.9,676.3C757.6,676.6 780.9,680.4 804,684.8C822,688.2 839.7,693.7 857.6,697.8C865.2,699.6 872.4,702 879.7,704.9C898.7,712.4 917.9,719.2 935.3,730.2C939.2,732.7 944.2,733.5 948.3,735.8C957.1,740.7 966.2,745.5 974.3,751.5C979.2,755.1 983.1,760.5 986.3,765.8C987.5,767.8 986.6,772.6 984.9,774.7C980.4,780.2 980,779.8 972.9,775.3C959.7,767 946,759.5 933.4,750.5C919,740.3 902.4,735.7 886.3,730.1C850.1,717.5 812.6,710.1 774.7,705C739.7,700.3 704.5,699.5 669.2,699C668.2,699 667.2,699.1 666.2,699.3C658.2,701.5 655.6,700.2 651.9,692.4C652.7,696.4 652.6,700.9 654.5,704.4C656.8,708.6 653.8,710.8 652.9,713.9C651.3,719.6 647.4,716.2 644.3,716.2C643.6,716.2 643,716.4 642.4,716.5C642.2,712.8 642,709.1 641.7,705.4C641.2,699 641.2,692.5 639.8,686.3C638.2,678.8 634.7,671.7 633.2,664.2C630.8,651.9 629.4,639.3 627.4,626.9C625.6,616 622.8,605.1 621.9,594.1C620.1,571.9 619.5,549.6 618,527.4C616.7,508.9 619.7,490.3 616.4,471.9C616.3,471.2 617.1,470.2 616.9,469.6C615.7,464.6 620,458.5 614.5,454.4C612,452.5 608.7,451.4 605.7,450.5C600.3,449 594.8,446.9 589.4,446.9C576.7,446.9 563.9,447.8 551.2,448.7C524.1,450.5 497,451.3 470.1,454.7C437.1,458.9 404.4,465.1 371.7,470.9C355.2,473.8 346.5,483.9 346,500.6C345.7,510.1 347.4,519.7 348,529.3C348.8,541.6 349.5,554 350.3,566.3C351.3,582.6 352.4,599 353.4,615.3C353.531,617.487 353.72,619.656 353.916,621.822L354.084,623.678C354.28,625.844 354.469,628.012 354.6,630.2C354.731,631.906 354.786,633.612 354.831,635.319L354.869,636.781C354.914,638.487 354.969,640.194 355.1,641.9C355.6,648 356.5,654 356.9,660.1C357.8,673.3 358,686.6 359.7,699.6C360.3,704.1 359,706.3 356.6,709C351.3,705.3 348.6,700.2 347.5,694.1C343.9,673.9 340,653.7 337,633.3C334.3,615.6 332.7,597.8 330.5,580.1C329.1,568.6 329,557 325.3,545.6C321.9,535.3 320.6,524.3 318.4,513.6C317.8,510.6 317.5,507.5 317,504.1C308.2,505.8 299.9,507.6 291.6,509.1C283.3,510.6 281.8,511.8 280.2,520.3C279.8,522.4 279.8,524.6 279.8,526.8C279.4,544.8 279.2,562.9 278.7,580.9C278.6,585.4 273.7,587.3 269.8,585.4C263.2,582.1 263.4,575 260,570.2C250.5,571.5 243.6,580.8 232.8,579.5C233,581.3 233.3,583.1 233.5,585L236.7,585C246,585.2 255.3,585.3 264.6,585.8C266.4,585.9 268.1,587.5 271,589C268.3,589.6 267.2,589.8 266.2,590C266.8,594.3 264.7,596.3 259,596.5C252,596.8 245,597 238.1,597C235.2,597 233.9,597.8 234,601C234.2,609.1 234.1,617.2 234.1,624.8C245.2,625.9 255,627 264.9,627.8C265.8,627.9 266.9,627 267.6,626.3C270,623.8 272.3,621.1 274,619.2C276.8,620 278.5,620.5 280.9,621.2C281.5,626 282.5,631.7 282.9,637.4C283.9,653.3 284.7,669.3 285.4,685.2C285.5,686.9 284.3,690.1 283.7,690.1C281.7,690.1 279,691.4 277.6,688.1C276.2,684.8 272.7,682 272.4,678.8C271.6,671.2 268.3,670.5 261.5,671.5C253.4,672.6 245,671.8 236.6,671.8L236.6,675.2C236.9,680.5 237.5,685.9 237.5,691.2C237.6,697.8 241.2,704.3 246.5,705C251.9,705.7 257.4,705.3 262.9,705.3C267.2,705.3 271.5,705 275.8,705.4C280,705.8 284.4,712.7 284.9,717C285.6,723.8 287.2,731 293.8,734.2C298.2,736.3 303.7,737.2 308.6,736.9C329.2,735.4 349.8,733 370.4,731.3C389.4,729.7 408.4,728.6 427.4,727.2C437.3,726.4 447.2,725.4 457,724.4C466.7,723.4 476.4,721.8 486.1,721.3C503.2,720.5 520.3,720.7 537.4,719.9C563.7,718.7 590.1,716.8 616.4,715.6C624.9,715.5 633.7,716.5 642.4,716.8C642.8,718.4 643.1,719.9 643.4,721.4C642,723 640.2,724.3 639.2,726.1C635.6,733.1 629.5,734.9 622.3,735C615.3,735 615.4,735.7 616.4,742.3C617.1,747.2 616.4,752.5 615.3,757.5C614.4,761.4 616.2,762.8 619,764.4C628.1,769.4 635.1,776.6 638.9,786.2C642.4,795.1 644.7,804.3 644.8,814.2C644.9,821.6 642.7,827.5 637.3,831.8C626.7,840.1 624,850.8 626.6,863.4C631,885 625.2,903.8 611.4,920.5C607.7,925 604.3,929.7 600.9,934.4C594.4,943.2 597.3,952.8 599.5,961.8C603.5,977.6 602,992.8 596,1007.5C594.4,1011.4 591.1,1014.6 588.1,1017.7C576.9,1029.3 572,1043 571.2,1059.1C570.1,1081.4 560.2,1100.4 544.7,1116.1C539.4,1121.5 532,1124.8 525.2,1129.3C527.7,1134.5 530.6,1140 533.1,1145.7C536.6,1153.8 533.9,1162 527.3,1168C513.1,1180.9 495.9,1188.5 478.7,1196.1C458.7,1205 437.8,1211.4 416.4,1215.4C404.8,1217.6 392.6,1217.1 380.7,1216.3C376.9,1216 372.2,1211.7 369.9,1208C366.1,1201.9 363.8,1194.8 361.2,1188C359.5,1183.6 362.6,1177.5 366.8,1175.9C370.5,1174.5 375.9,1177.6 377.7,1181.9C380.2,1187.7 380.9,1194.9 388.1,1197.5C391.6,1198.8 395.2,1200.5 398.8,1200.6C426.3,1201.5 451.3,1191.6 476.3,1181.9C486.4,1178 496.1,1173.1 505.9,1168.5C508.6,1167.2 510.9,1165.2 513.5,1163.7C517,1161.6 517.7,1158.5 516,1155.1C512.9,1148.8 509.6,1142.7 506,1136.7C505.4,1135.6 502.6,1135 501.1,1135.5C477.5,1142.5 453.9,1149.7 430.5,1157C396.4,1167.7 362,1176.7 326.5,1180.7C313.7,1182.2 300.6,1181.2 287.6,1181.3C282.3,1181.3 276.9,1181.4 271.6,1181.3C269.6,1181.3 267.2,1181.7 265.7,1180.8C261.6,1178.3 258.9,1180.3 255.6,1182.5C247.7,1187.7 239.5,1192.4 231.5,1197.6C225.5,1201.6 219.8,1206.1 213.8,1210.2C208.681,1213.74 203.543,1217.25 198.403,1220.75L193.997,1223.75ZM480.7,905C488.5,904.3 489.6,904.5 491.8,912.2C494.7,922.4 496.8,932.8 498.5,943.2C499,946.1 497.4,950.1 495.4,952.5C492.4,956.2 487.4,955.1 486.1,950.4C483.9,942.6 481.9,934.7 480.9,926.7C480,919.6 480.7,912.4 480.7,905ZM486.5,850.7C485.7,854.1 488,858.7 482.9,861.4C479.4,863.3 477.1,863 475.7,859.2C473.2,852 471,844.7 468.4,837.5C466.6,832.5 464.4,827.7 462.3,822.8C460.6,819 461.1,815.3 464.5,813.1C468.9,810.3 473.6,811.6 476.2,815.9C482.7,826.4 486.7,837.8 486.5,850.7ZM980.5,341.3C982.3,341.9 983.7,342.4 985.4,343.1C983.3,357.1 981.1,371.1 979.3,385.1C978.1,394.6 977.4,404.2 976.7,413.8C975.9,424.5 975.2,435.3 974.8,446C974.4,455.2 974.6,464.5 974.4,473.7C974.2,483.4 973.5,493.2 973.8,502.9C974.2,517.6 975.1,532.2 975.8,546.9C976.4,558.3 976.9,569.6 977.7,580.9C978,585.6 978.9,590.3 979.5,595C981.7,612.3 983.4,629.7 986.2,647C988.4,661 992.6,674.8 994.5,688.9C996.9,706.2 1004.6,721.3 1010.8,737.2C1013.9,745.2 1015.8,753.7 1019.5,761.4C1023.8,770.3 1029.4,778.5 1034.6,786.9C1038.2,792.6 1041.9,798.3 1046,803.7C1048.5,807 1051.8,810 1055,812.7C1062.4,819 1069.5,825.8 1077.7,830.9C1086,836 1094.7,841.3 1105.3,840.7C1108.6,840.5 1112.4,840.5 1112.3,845.5C1112.2,852.6 1111.1,855.6 1106.1,856.6C1095.3,858.8 1085.3,857.1 1075.4,853.2C1070.1,851.1 1064.6,849.3 1059.4,846.8C1057.2,845.7 1055.3,843.6 1053.6,841.7C1049.2,837.1 1044.7,832.5 1040.7,827.6C1031.3,815.9 1021.1,804.7 1015,790.5C1006.6,770.7 997.4,751.3 989.4,731.3C984.6,719.3 980.5,706.9 977.5,694.3C973.4,677.2 971,659.7 967.3,642.5C962.2,618.6 960.8,594.3 958.9,570C958,558.6 956.3,547.3 955.9,535.9C955.4,523.8 955.8,511.7 956.1,499.7C956.4,490.5 957,481.3 957.7,472.1C958.3,464.3 959.4,456.6 960.2,448.8C961.5,435.7 962.5,422.6 964.1,409.5C965.4,399.2 967,389 969.2,378.9C971.6,368.2 974.8,357.7 977.8,347.1C978.1,345.2 979.4,343.4 980.5,341.3ZM1144.6,841C1140.9,833.8 1141.4,831.4 1145.4,826.1C1151.4,818.2 1158,810.6 1162.7,802C1168.3,791.6 1172.8,780.5 1176.6,769.3C1181.7,754.5 1185.8,739.3 1189.9,724.2C1191.7,717.7 1192.4,710.9 1193.4,704.2C1195.4,691.5 1197.7,678.9 1199.2,666.2C1200.5,654.8 1200.9,643.2 1201.6,631.8C1202.4,619.6 1203.4,607.4 1203.9,595.1C1204.4,582.4 1204.6,569.8 1204.7,557.1C1204.7,546.7 1204.9,536.3 1203.8,526.1C1201.8,508.1 1199,490.2 1196.2,472.2C1194.6,462 1192.8,451.8 1190.3,441.9C1186.5,427 1181.9,412.2 1177.7,397.4C1176.1,391.8 1175,386.1 1173.1,380.7C1164.9,356.7 1152.7,334.6 1140,312.9C1134.2,303.1 1126.3,294.3 1118.6,285.7C1110,276.1 1101,266.6 1091.3,258.2C1084.6,252.4 1076.6,248 1068.8,243.7C1065,241.6 1065.3,238.3 1065.6,235.7C1065.8,234.1 1069.1,232.2 1071.3,231.6C1085.4,228.2 1096,236.4 1106.2,243.8C1120.1,253.8 1132,266.2 1142.2,280C1154.3,296.5 1166.5,312.8 1174.7,332C1180.6,345.7 1186.1,359.4 1190.1,373.7C1195.5,393.2 1200.1,413 1204.7,432.7C1208,447 1211,461.3 1213.6,475.8C1218.5,503.2 1222.1,530.8 1221.1,558.8C1220.7,569.7 1219.7,580.5 1219.5,591.4C1219.3,600.8 1220.2,610.2 1219.6,619.5C1218.4,638.7 1216.5,657.9 1214.9,677C1214.1,686.7 1214.2,696.6 1212.4,706.2C1209,725 1205.3,743.8 1200.4,762.2C1197.6,772.9 1193.3,783.4 1188.1,793.2C1182.9,803.1 1177.4,813 1168.3,820.4C1160.2,826.7 1152.6,833.9 1144.6,841ZM601.2,735.1C600.7,735.1 599.9,735 599.1,735.1C577.6,736.7 556.1,738.6 534.6,739.8C520.8,740.6 507,740 493.2,740.9C471.2,742.5 449.2,744.8 427.2,746.8C418.1,747.6 409,748.5 399.9,749.2C385.5,750.3 371.1,751.3 356.6,752.2C352.7,752.5 351.5,754 351.4,758.1C350.8,772.2 353.6,785.9 356.6,799.4C358.1,806.3 362,812.7 365,819.9C372.6,815.6 379.1,812.3 385.2,808.5C392,804.2 398.3,799.1 405.3,795.1C413.7,790.3 422.5,786.3 431.2,782.1C438.5,778.6 445.6,774.3 453.3,772.1C463.9,769.1 474.9,766.8 485.8,765.7C507.5,763.5 529.1,759.4 551.2,761C564.5,762 578,760.4 591.4,759.9C596.5,759.7 599.4,756.8 599.8,751.7C600.2,746.5 600.7,741 601.2,735.1ZM1047.8,316.7C1048.3,320 1048.7,321.9 1048.8,323.7C1049.7,335.4 1046.6,346.3 1043.2,357.4C1039.3,370 1035.5,382.8 1033.1,395.8C1030.4,411.2 1028.7,426.8 1027.6,442.4C1026.3,459.9 1025.8,477.5 1025.6,495C1025.4,510.3 1025.5,525.7 1026.7,541C1027.8,555.1 1030.7,569.1 1032.7,583.2C1033.9,591.5 1034.8,599.8 1035.8,608.1C1036.3,612.3 1036.8,616.5 1037.7,620.6C1041.7,639.6 1045,658.9 1050.2,677.6C1053.1,688.1 1054.8,699 1058.5,709.2C1065.8,729.5 1070.4,750.8 1084.5,768.4C1089.7,775 1093.6,782.7 1100.7,787.5C1104.6,790.2 1109.4,791.9 1113.9,793.6C1117.7,795.1 1121.7,796 1126,797.3C1123.7,802.3 1120.5,804.9 1116.1,805.7C1114.4,806 1112.5,804.2 1110.7,804.2C1095.1,804.6 1087.7,792.7 1080.1,782.6C1064.2,761.5 1057,736.2 1049.2,711.4C1045.3,698.8 1042.8,685.8 1039.7,673C1037.2,662.3 1034.9,651.4 1032.3,640.7C1029.3,628.5 1025.2,616.4 1022.9,604.1C1019.7,586.8 1016.7,569.4 1015.2,551.9C1013.1,527.1 1011.6,502.1 1011.3,477.2C1011,451.4 1014.1,425.8 1019.7,400.5C1022.7,386.9 1023.4,372.8 1028.6,359.7C1033.3,347.8 1037.6,335.8 1042.3,324C1043,321.7 1045.2,320 1047.8,316.7ZM1162.8,513C1164.8,516.7 1166.9,520 1168.5,523.6C1175.3,539.1 1174.7,555.7 1175.3,572.1C1175.8,583.9 1176,595.7 1175.5,607.5C1175.1,617.3 1173.4,627.1 1172.4,637C1171.9,641.9 1172.3,646.9 1171.5,651.7C1170.4,658.8 1168.6,665.8 1167.3,672.9C1165.9,680.5 1165.2,688.4 1163.2,695.9C1161,704 1157.6,711.7 1154.7,719.6C1154.2,719.5 1153.7,719.3 1153.2,719.2C1153.7,715.2 1154.4,711.2 1154.8,707.2C1155.4,700.7 1156,694.1 1156.3,687.5C1156.8,676.5 1156.8,665.4 1157.3,654.4C1157.6,647.6 1158.6,640.9 1158.9,634.2C1159.7,617.3 1160.2,600.4 1160.8,583.5C1161,578.2 1161.3,572.9 1161.2,567.7C1161.1,563.1 1161.8,558.5 1159.8,553.8C1158.4,550.5 1159.9,545.9 1159.8,542C1159.6,536.5 1159.1,531 1158.9,525.5C1158.9,521.1 1157.9,516.7 1162.8,513ZM1277.3,645.8C1281.6,646.9 1286,648 1290.3,649.3C1301.1,652.4 1312.2,654.6 1322.5,658.9C1335.1,664.1 1347,670.9 1359.1,677.3C1365.5,680.7 1371.7,684.6 1377.8,688.6C1379.3,689.6 1380.6,691.5 1381.3,693.3C1382.2,695.7 1381.8,698.3 1378.5,698.4C1373.8,698.5 1368.6,699.4 1364.3,697.9C1349.4,692.6 1334.6,686.9 1320.2,680.4C1308.2,675 1298.2,666.4 1288.5,657.7C1285.8,655.2 1282.5,653.4 1279.6,651C1278.4,650 1277.6,648.6 1276.7,647.3C1276.9,646.7 1277.1,646.2 1277.3,645.8ZM565.7,667.9C565.5,669.1 564.9,670.2 565.2,671C566.7,675.7 563.8,676.4 560.4,676.4C555.3,676.3 550.1,676 545,675.8C532.6,675.3 520.1,674.6 507.7,674.5C487.3,674.4 466.9,674.5 446.5,674.8C436.4,675 426.3,676.2 416.2,676.4C412.3,676.5 408.3,675 404.4,674.3C404.2,673.6 404.1,673 403.9,672.3C406.1,670.7 408,668.6 410.4,667.5C413.4,666.2 416.7,665.2 420,665C444.9,663.6 469.8,661.6 494.6,661.6C515.1,661.6 535.6,664.1 556.1,665.6C559.4,665.9 562.5,667.1 565.7,667.9ZM268.2,661.2C268.2,656.1 268.6,651.3 268,646.6C267.6,643.6 266.9,639.9 262.5,639.6C254.4,639.1 246.3,638.7 238.2,638.2C234.8,638 234,639.5 234.3,642.8C234.8,647.3 234.9,651.8 234.7,656.3C234.6,659.6 235.7,660.8 238.8,660.6C243.1,660.4 247.4,660.3 251.7,660.4C257.5,660.5 263.1,660.9 268.2,661.2ZM1061.9,508.8C1068.8,509.9 1073.7,510.6 1078.7,511.4C1083.7,512.2 1086.4,515.8 1089.2,519.7C1101.2,536.3 1104.8,555.4 1104.6,575.1C1104.5,583.6 1101.4,592.2 1098.7,600.5C1097.8,603.3 1093.8,605.1 1091.3,607.4C1080.7,617.1 1068.5,619.3 1054.8,615.5C1051.6,614.6 1051,613.4 1051.4,610.4C1051.8,607.2 1050.9,603.3 1055.2,602.6C1058.7,602 1062.5,602.3 1066,602.8C1074.8,604.1 1078.2,601.8 1081.4,593.6C1085.4,583.5 1084.2,573.2 1083.4,562.8C1083,558.2 1083.5,553.5 1082.4,549.1C1081,543.2 1078.5,537.6 1076.3,531.9C1073.4,524.4 1068,521.5 1059.8,522.3C1054,522.9 1048,522.2 1042.1,521.5C1040.1,521.2 1038.3,519.2 1036.4,517.9C1037.8,516.3 1039,513.7 1040.7,513.3C1048.2,511.2 1055.9,509.9 1061.9,508.8ZM259.1,560.2C258.1,554.9 257.3,549.5 256,544.3C255.7,542.9 253.9,540.9 252.8,540.9C248.2,540.8 243.5,541.1 238.9,541.8C237.4,542 235.1,543.6 235,544.8C234.1,551.1 233.7,557.5 233,565C242.4,563.2 250.6,561.7 259.1,560.2ZM1418.7,538.1C1416.8,539.7 1415.5,541.7 1413.9,542C1403.5,544.3 1393.1,546.8 1382.5,548.2C1369.1,550 1355.5,551.1 1342,552.2C1333.2,552.9 1324.3,553.6 1315.6,553.1C1303.6,552.3 1293.2,547.5 1286.6,535.7C1288,535.2 1289.1,534.4 1290.2,534.4C1312.1,535.9 1333.5,530.7 1355.2,529.9C1378.4,529 1401.7,527.6 1424.9,526.5C1427.5,526.4 1430.3,526.6 1432.8,527.3C1433.7,527.6 1434.7,531 1434.4,531.2C1429.5,534.6 1424.4,537.7 1418.7,538.1ZM714,466.8L681.4,466.8C677.5,466.8 673.7,466.5 669.8,466.4C666.8,466.3 664.6,465.2 664.6,461.8C664.6,458.5 665.6,456.1 669.4,455.4C676.6,454.1 683.7,452.6 690.8,451.1C704.3,448.2 717.7,445.2 731.2,442.4C759.3,436.6 786.4,427.7 812.7,416.7C828.6,410.1 844.4,403.2 858.6,393.2C867.5,387 877.2,382 885.9,375.5C893.3,370 899.8,363.3 906.4,356.7C920,343.2 933.8,329.8 946.8,315.6C957,304.5 966.1,292.4 975.6,280.7C983.6,270.8 990.8,260.1 999.5,250.9C1009.7,240 1023,233.9 1038,231.9C1039,231.8 1040.2,231.5 1041,232C1043.5,233.4 1046.9,234.6 1047.9,236.9C1048.6,238.4 1046.5,242.2 1044.6,243.7C1037.1,249.5 1029.2,254.7 1021.5,260.2C1010,268.4 999.7,277.9 991.1,289.3C977.6,307.3 964.2,325.5 950.1,343.1C941.6,353.7 932.4,363.9 922.6,373.3C912.4,382.9 901.3,391.6 890,400C881.3,406.6 872,412.6 862.6,418.1C854.4,422.9 845.2,426 837.1,430.8C820.3,440.7 801.9,446.4 783.7,452.4C762.5,459.4 740.7,464.8 718.4,467C716.9,467.1 715.4,467 713.9,467C714,467 714,466.9 714,466.8ZM1330.1,383.5C1328.2,392.2 1320.8,394.7 1313.9,398.2C1304.9,402.8 1296.5,408.5 1287.5,413.2C1281.4,416.4 1274.9,419 1268.4,421.4C1260.2,424.4 1253.6,421.3 1247.4,414.7C1250,413.4 1252.3,412.3 1254.5,411.2C1260.1,408.2 1265.7,405 1271.4,402.1C1272.9,401.3 1274.9,401.5 1276.6,401.1C1278,400.8 1279.7,400.5 1280.5,399.6C1283.3,396.4 1286.5,394.3 1291,394.6C1291.6,394.6 1292.2,393.3 1293.8,391.7C1296.6,391.5 1301.1,391.1 1306.5,390.6C1306.3,390.3 1306.9,391.2 1308.1,392.7C1309,387.3 1310.8,383.5 1317,385.1C1317.5,383.3 1317.8,381.8 1318.2,380.2C1322.3,381.3 1326.4,382.4 1330.1,383.5Z" style="fill-rule:nonzero;"/>
        </g>
    </g>
</svg>
