<?xml version="1.0" encoding="UTF-8"?>
<svg width="300px" height="428.26472px" viewBox="0 0 300 428.26472" version="1.1" xmlns="http://www.w3.org/2000/svg" xmlns:xlink="http://www.w3.org/1999/xlink">
    <title>Combined Shape</title>
    <g id="Page-1" stroke="none" stroke-width="1" fill="none" fill-rule="evenodd">
        <path d="M290.731615,379.882755 C290.827165,380.010155 290.890865,380.169406 290.954566,380.296806 C292.706322,383.163317 292.16487,384.405472 288.756907,385.138025 C284.043089,386.189079 279.265571,386.53943 274.424353,386.66683 C269.232783,386.794231 264.073063,387.622334 258.913343,387.749735 C252.224818,387.908985 245.631843,388.482287 239.102568,389.915543 C236.076806,390.584395 233.051045,391.412499 230.088984,392.399852 C224.260411,394.34271 218.431839,396.253717 212.730668,398.515076 C204.354086,401.827488 196.518956,406.254655 188.811226,410.872923 C185.689915,412.75208 182.377502,414.312736 179.383591,416.382994 C177.886635,417.402198 176.485229,419.026554 175.816377,420.68276 C173.746119,425.778779 171.102559,427.403136 165.719888,427.753487 C161.324572,428.040138 156.929255,428.231239 152.565788,428.263089 C148.934875,428.263089 145.24026,428.326789 141.704897,427.657937 C138.169534,426.989084 135.812625,424.313674 134.952671,420.842011 C134.379369,418.516952 132.850563,417.274797 131.289907,415.937092 C125.079134,410.649972 117.753606,407.43311 110.141427,404.725849 C104.408405,402.687441 98.7072332,400.585333 92.9105111,398.801727 C88.164843,397.336621 83.2599243,396.412968 78.4824061,395.075262 C71.8257308,393.196105 65.0098048,392.431702 58.1620287,391.89025 C51.8557047,391.380648 45.5175306,390.839196 39.2430566,390.202194 C35.5802927,389.819992 31.9175287,389.15114 28.2547648,388.800789 C24.7831016,388.450437 21.3114383,388.354887 17.8397751,388.068236 C13.3807581,387.686034 8.88989102,387.271983 4.43087403,386.698681 C3.50722051,386.57128 2.67911736,385.870577 1.78731396,385.424676 C1.75546384,385.074324 1.81916408,384.819523 1.8510142,384.564722 C3.06131882,384.437322 4.27162343,384.214371 5.51377816,384.182521 C9.11284187,384.086971 12.6800555,384.086971 16.2791192,383.99142 C23.859448,383.768469 31.4079268,384.086971 38.9245554,384.978774 C43.8931744,385.583926 48.9573437,385.679477 53.9578127,386.093528 C58.0027781,386.44388 62.0477435,386.953482 66.1245591,387.335683 C74.5329911,388.131936 82.6866221,390.234044 90.776553,392.431702 C98.133931,394.43826 105.300208,397.272921 112.562036,399.62983 C118.549859,401.604537 124.12363,404.375498 129.47445,407.59236 C135.143772,411.000323 140.048691,415.33194 144.316607,420.364259 C144.953609,421.128662 145.495061,421.924915 146.163914,422.657468 C146.450565,422.944119 146.896467,423.19892 147.310518,423.23077 C150.30443,423.39002 153.298341,423.485571 156.324103,423.581121 C159.986867,423.708522 163.58593,423.29447 166.739092,421.192362 C167.599046,420.61906 168.458999,419.918357 169.064151,419.090254 C171.229959,416.096343 174.192021,414.089785 177.185932,412.083227 C177.536283,411.860276 177.950335,411.669176 178.364387,411.605475 C178.682888,411.573625 179.001389,411.828426 179.574691,412.083227 C181.613099,410.586272 183.970008,408.643414 186.518018,406.955358 C194.639799,401.540837 202.98453,396.540368 212.157365,393.068705 C219.068842,390.456995 226.107719,388.131936 233.178445,386.093528 C242.25573,383.481818 251.619666,382.653715 261.015451,382.112263 C267.895078,381.698212 274.774704,381.124909 281.65433,380.519757 C282.546134,380.456057 283.406087,379.882755 284.26604,379.500553 C284.934893,379.182052 285.476345,378.6406 286.145197,378.353949 C288.725057,377.207344 289.266509,377.430295 290.731615,379.882755 Z M161.770473,413.739434 C161.133471,417.434048 159.222464,418.708053 155.273049,418.13475 C153.839793,417.911799 152.406538,417.593298 150.973282,417.242947 C150.591081,417.147397 150.177029,416.892596 149.922228,416.574094 C149.603727,416.223743 149.444476,415.714141 149.189675,415.30009 C149.667427,415.045289 150.177029,414.599387 150.654781,414.599387 C151.865086,414.599387 153.07539,414.949738 154.253845,414.854188 C156.292253,414.663087 158.33066,414.249036 160.337218,413.930534 C160.81497,413.834984 161.260871,413.771284 161.770473,413.739434 Z M96.031823,150.24338 C99.7264371,152.026987 103.22995,154.192795 106.924564,155.976402 C110.810279,157.887409 114.823395,159.479915 118.677259,161.390922 C121.034168,162.537527 123.359227,163.875232 125.461335,165.435888 C127.595293,167.028394 129.665551,168.843851 131.417308,170.850408 C134.411219,174.322072 135.557824,178.685538 136.385927,183.049005 C137.405131,188.399825 138.296934,193.782496 139.061337,199.165166 C140.112391,206.618095 140.781243,214.102873 140.717543,221.651352 C140.685693,224.390462 140.972344,227.161423 140.972344,229.900533 C140.940494,235.601705 139.730189,241.111776 138.042133,246.494446 C137.436981,248.437304 136.704428,250.348311 135.748924,252.131918 C135.111922,253.342223 133.997168,254.297726 133.073514,255.38063 C132.08616,256.527235 131.353608,257.578289 132.11801,259.330045 C132.659463,260.60405 132.181711,262.037306 130.971406,263.12021 C127.149392,266.528173 122.849625,269.203583 118.072107,271.08274 C114.664144,272.420445 111.256181,273.75815 108.007469,275.446207 C103.835103,277.612015 99.7582872,280.032624 96.3503242,283.376887 C94.2482162,285.447145 92.3372089,287.708503 90.3306513,289.874312 C89.2795973,290.989066 88.0692927,291.817169 86.4130863,291.148317 C85.5531331,290.797965 85.2983321,290.320213 85.9353345,289.46026 C86.4449365,288.759557 86.7315876,287.867754 87.1774893,287.103351 C89.1840469,283.472437 91.7320566,280.287425 94.8215184,277.516465 C94.9489189,277.261664 95.1400196,277.038713 95.522221,276.624661 C89.9165997,275.509907 84.5657793,274.331453 79.2149589,273.375949 C77.4632022,273.057448 75.6158952,273.121148 73.8322884,273.248548 C71.2842787,273.439649 69.1821707,272.261195 66.9845123,271.305691 C66.3475099,271.05089 65.7423576,270.732389 65.1690554,270.445738 C65.3601561,268.821382 66.6660111,267.674777 68.0992666,267.706627 C68.736269,267.713705 69.3748443,267.709773 70.0142934,267.70252 L71.9345629,267.678491 C73.535807,267.662981 75.1381434,267.674777 76.7306495,267.834028 C80.807465,268.248079 84.8524304,268.948782 88.8973958,269.585784 C90.3625014,269.808735 91.7957568,270.127237 93.2290123,270.413888 C95.9362726,270.92349 98.6116828,271.496792 101.318943,271.942693 C101.892245,272.038244 102.592948,272.006394 103.10255,271.783443 C107.083815,269.904286 111.06508,268.025128 114.982645,266.050421 C118.072107,264.521615 120.811217,262.483207 123.391077,259.935198 C116.989203,256.813886 110.778429,253.788124 103.994353,252.195618 C97.337678,250.634962 90.7447028,248.946906 84.0243272,247.768451 C79.4060596,246.972198 74.6922417,246.940348 70.0102739,246.558147 C68.1948169,246.398896 66.3475099,246.144095 64.532053,246.048545 C62.2069941,245.952994 59.8819353,246.112245 57.5887265,245.889294 C55.3273679,245.698193 53.4482108,246.462596 51.6009037,247.4818 C51.2505524,247.672901 50.8046507,248.405454 50.9002011,248.660255 C52.0468054,251.431215 51.2187023,254.265876 50.9320512,256.973136 C50.5816998,260.5085 49.8809972,264.075713 48.8936434,267.483676 C47.4922381,272.229345 45.5175306,276.815762 44.0842751,281.56143 C42.5554693,286.498199 41.2177642,291.530518 40.0393097,296.562837 C38.6379043,302.678061 37.6187005,308.920684 36.185445,315.035908 C35.4528922,318.157219 34.1470372,321.151131 33.1915336,324.208743 C32.3634304,326.884153 31.6308777,329.591413 30.8346246,332.266823 C29.5924699,336.56659 28.318465,340.866356 27.0444602,345.197972 C25.8023054,349.497739 24.5601507,353.797505 23.2861459,358.097272 C22.7446938,360.008279 22.1713916,361.919286 21.5980894,363.989544 C23.5409468,363.893994 25.3245536,363.766593 27.1081604,363.702893 C32.522681,363.479942 37.9690518,363.03404 43.3835724,363.129591 C50.61355,363.256991 57.8753776,363.479942 65.0735051,364.308045 C73.2271361,365.231699 81.3489171,366.505704 89.3432975,368.22561 C95.5859213,369.563315 101.701145,371.474323 107.720818,373.640131 C115.014495,376.283691 122.244473,379.213902 129.28335,382.494465 C135.621524,385.456526 141.545646,389.310391 146.514265,394.247159 C149.157825,396.858869 151.036983,400.203132 153.139091,403.292594 C153.425742,403.706645 153.139091,405.0125 152.788739,405.171751 C151.833236,405.617653 150.527381,406.095404 149.635577,405.808753 C148.297872,405.362852 147.055717,404.375498 145.972813,403.419994 C144.858059,402.435536 143.767982,401.421465 142.683513,400.400215 L141.383623,399.172705 C138.134525,396.102495 134.867255,393.048437 131.066956,390.616246 C125.525035,387.080882 119.728313,383.95957 113.54939,381.730062 C105.586859,378.831701 97.5606288,376.12444 89.470698,373.703831 C85.2027817,372.429826 80.7119146,371.760974 76.2847478,371.092121 C69.8191731,370.136617 63.2898983,369.276664 56.7924735,368.735212 C50.8365008,368.25746 44.8168279,368.16191 38.8290051,368.06636 C35.3573418,368.002659 31.9175287,368.448561 28.4458655,368.448561 L28.0563452,368.44544 L27.2762364,368.439779 C24.1539634,368.413565 21.0177094,368.303466 18.1582763,366.633104 C16.1198686,365.45465 15.451016,364.339895 16.0561683,362.142237 C16.4065197,360.900082 17.1072223,359.753478 17.4894238,358.511323 C17.8397751,357.428419 17.8716252,356.218114 18.1901264,355.13521 C19.0182296,352.077599 19.9418831,349.051837 20.8336865,346.026076 C21.6299396,343.255115 22.3624923,340.452304 23.1905955,337.713194 C24.0505488,334.782983 25.0379025,331.884622 25.8660057,328.954411 C27.1718607,324.367993 28.4777156,319.781576 29.6880202,315.195158 C31.1531258,309.685087 32.522681,304.143166 33.9559365,298.633095 C35.2617915,293.505226 36.440246,288.345506 37.9053516,283.281337 C39.3067569,278.408268 41.0903637,273.63075 42.5236191,268.789531 C43.8613242,264.171264 44.9760785,259.521146 46.1863831,254.871028 C46.695985,252.864471 47.2692872,250.889763 47.7788892,248.915056 C46.0589826,247.832152 46.154533,247.959552 47.5240882,246.430746 C49.9765475,243.627936 53.2889602,242.736132 56.6969231,242.19468 C60.8374389,241.525828 65.0416549,240.793275 69.2458709,240.761425 C77.3676519,240.729575 85.3938825,241.716928 93.2608624,243.882737 C96.3184741,244.74269 99.5034862,244.997491 102.561098,245.889294 C107.497867,247.2907 112.370935,248.851355 117.180304,250.603112 C120.237915,251.717866 123.199976,253.182972 126.130188,254.679928 C127.722694,255.508031 128.327846,254.234026 128.646347,253.437773 C130.175153,249.93426 131.289907,246.271496 131.831359,242.417631 C132.946114,234.486951 133.041664,226.556271 132.627612,218.62559 C132.340961,212.860718 131.703959,207.063996 130.875856,201.330974 C129.984052,195.215751 128.932998,189.100528 127.499743,183.049005 C126.257588,177.730035 123.773279,172.825116 119.250561,169.449003 C116.829952,167.633546 113.931591,166.455092 111.256181,164.958136 C107.593417,162.919728 103.835103,160.945021 100.267889,158.747362 C97.2739777,156.868205 94.471167,154.670547 91.6046561,152.632139 L91.2075249,152.384305 L90.3774311,151.924469 C90.2410728,151.845839 90.1077004,151.764223 89.9802999,151.676635 C89.5025481,151.358134 89.0884965,150.944082 88.5151944,150.466331 C91.2224547,148.873825 93.7386142,149.128626 96.031823,150.24338 Z M221.393901,141.197945 C221.999053,142.34455 221.776102,143.523004 221.043549,144.414808 C219.928795,145.752513 218.75034,147.058368 217.348935,148.077572 C213.749871,150.689282 210.118958,153.237291 206.328793,155.5942 C203.207481,157.537058 199.672118,158.906613 196.646356,161.008721 C192.028089,164.161883 187.792023,167.760947 184.861811,172.793266 C183.110055,175.755327 181.549399,178.717388 180.243544,181.9024 C178.332537,186.488818 178.587337,191.043385 179.415441,195.789053 C179.925043,198.687414 180.179844,201.649476 180.179844,204.579687 C180.147993,209.866807 179.733942,215.122077 179.638391,220.409197 C179.574691,224.326762 179.988743,228.244327 179.733942,232.161892 C179.35174,238.404516 178.587337,244.615289 177.982185,250.826063 C177.631834,254.425127 177.313333,258.02419 176.994831,261.718804 C181.103497,259.298195 184.861811,256.813886 188.843077,254.775478 C193.142843,252.57782 197.57001,250.475712 202.124577,248.851355 C208.08055,246.685547 214.163923,244.87009 220.310996,243.182034 C226.203269,241.557678 232.254792,241.016226 238.401865,240.888825 C241.555027,240.825125 244.453388,241.175476 247.3836,242.25838 C250.887113,243.532385 253.244022,246.016695 255.027629,249.042456 C258.594842,255.157679 260.378449,261.878055 261.493203,268.821382 C262.289456,273.885551 263.404211,278.88602 264.327864,283.950189 C265.092267,288.281806 265.79297,292.613422 266.429972,296.945039 C267.544726,304.620918 269.455734,312.105696 271.717092,319.494925 C273.405149,325.004996 274.933955,330.578767 276.781262,336.056988 C278.724119,341.758159 280.985478,347.363781 283.023885,353.033102 C284.074939,355.963313 285.062293,358.957225 285.890396,361.951136 C286.113347,362.747389 285.890396,364.085094 285.348944,364.530996 C284.711942,365.040598 283.469787,365.072448 282.546134,364.945048 C278.819669,364.435446 275.093205,363.639193 271.366741,363.225141 C267.672127,362.84294 263.945663,362.460738 260.282899,362.683689 C255.47353,362.97034 250.696012,363.702893 245.950344,364.467296 C240.058072,365.4228 234.133949,366.346453 228.337227,367.684158 C218.304439,370.041067 208.717552,373.703831 199.417317,378.130998 C192.856192,381.28416 186.613568,385.074324 181.007947,389.660742 C176.357829,393.450906 172.058063,397.750673 167.790146,401.986739 C165.019186,404.725849 161.706773,405.649503 158.044009,405.874313 C157.438857,405.904304 156.706304,405.522102 156.196702,405.108051 C156.005601,404.9488 156.196702,403.865896 156.451503,403.738495 C158.537096,402.856129 159.877729,401.216176 161.196849,399.557984 L161.662706,398.973186 C162.285799,398.195657 162.922976,397.433351 163.649631,396.763319 C168.331598,392.495403 172.726915,387.908985 177.568134,383.86402 C184.320359,378.226548 192.091789,374.245283 200.18172,370.90102 C203.303032,369.595165 206.360643,368.09821 209.577506,367.142706 C216.648232,365.008748 223.75081,362.93849 230.917087,361.186733 C240.535823,358.829824 250.345661,357.237318 260.282899,357.046218 C264.455265,356.982517 268.62763,357.55582 272.799996,357.810621 C273.946601,357.842471 275.284306,357.77877 277.004212,357.77877 C276.27166,355.262611 275.634657,352.714601 274.806554,350.230292 C272.099294,342.235911 269.137232,334.305231 266.557373,326.279 C264.423414,319.654175 262.448707,312.9338 260.888051,306.149724 C259.263695,299.078997 258.276341,291.817169 256.843086,284.682742 C254.868378,275.032155 252.79812,265.413419 250.600462,255.858382 C249.99531,253.278522 248.848705,250.794213 247.765801,248.373604 C247.001398,246.717397 245.440742,246.112245 243.593435,245.984845 C236.490858,245.475243 229.579382,246.685547 222.667905,248.214353 C215.820129,249.743159 209.067904,251.590466 202.570479,254.106625 C195.244951,256.909436 188.397175,260.763301 181.83605,265.063067 C180.848696,265.70007 179.797642,266.209672 178.905839,266.910374 C178.523637,267.197025 178.141436,268.025128 178.300686,268.34363 C180.466495,272.547846 183.906308,275.541757 187.25057,277.994216 C188.970477,276.911312 190.308182,275.828408 191.805138,275.127706 C200.34097,271.01904 209.227154,267.961428 218.49554,266.082271 C222.476805,265.286018 226.52177,264.712716 230.598586,265.79562 C231.87259,266.145971 232.891794,266.560023 233.560647,267.865878 C234.4206,269.522084 233.496947,270.573138 231.84074,270.318337 C226.090252,269.48407 220.702113,270.907515 215.337352,272.450544 L214.227623,272.770797 C209.768606,274.044801 205.40514,275.732858 201.041673,277.325364 C198.175162,278.376418 195.340501,279.554872 192.091789,280.828877 C193.206543,281.147378 194.002796,281.46588 194.799049,281.56143 C200.11802,282.134732 205.245889,283.408737 210.150808,285.447145 C212.189215,286.307098 214.068373,287.549253 216.07493,288.504757 C216.648232,288.791408 217.444486,288.982508 218.081488,288.855108 C221.935353,288.090705 225.821067,287.835904 229.738632,288.249956 C230.216384,288.313656 230.662286,288.441056 231.108188,288.632157 C232.382192,289.141759 233.688047,289.683211 233.369546,291.403118 C233.082895,293.091174 231.554089,292.613422 230.534885,292.708973 C228.050576,292.963773 225.566266,292.963773 223.081957,293.091174 C222.572355,293.123024 222.062753,293.282275 221.2028,293.441525 C222.890856,295.193282 224.355962,296.753938 225.852918,298.282744 C226.139569,298.601245 226.45807,298.856046 226.744721,299.174547 C227.636524,300.098201 228.241677,301.212955 227.126922,302.200309 C226.171419,303.060262 224.833714,303.092112 223.81451,302.168459 C221.839802,300.384852 219.801394,298.664945 218.081488,296.658388 C213.972822,291.880869 208.813103,288.982508 202.82528,287.421852 C200.850572,286.91225 198.812165,286.434499 196.773757,286.211548 C191.263686,285.606395 186.740969,282.803585 182.504902,279.650423 C178.109586,276.40171 174.510522,272.293045 172.854316,266.942224 C172.153613,264.680866 171.771412,262.132856 171.898812,259.775947 C172.058063,256.845736 172.320826,253.915525 172.603496,250.985314 L173.03198,246.589997 C173.172817,245.124891 173.30818,243.659786 173.427618,242.19468 C173.87352,236.97126 174.255721,231.74784 174.542372,226.52442 C174.829023,221.20545 175.051974,215.88648 175.115674,210.535659 C175.179374,204.197485 175.051974,197.859311 174.287571,191.521137 C173.555018,185.405914 175.529726,179.736592 178.428087,174.322072 C184.41591,163.142679 194.162047,156.390453 205.182189,151.071483 C209.418255,149.033075 213.558771,146.739866 217.635586,144.382957 C219.005141,143.586704 220.119896,142.3127 221.393901,141.197945 Z M283.660888,369.435915 C284.17049,369.563315 284.680092,369.722566 285.189694,369.881817 C286.049647,370.200318 286.75035,370.646219 286.399998,371.729124 C286.081497,372.748327 285.380794,373.066829 284.32974,372.971278 C281.813581,372.716477 279.265571,372.270576 276.749411,372.397976 C274.59422,372.521838 272.434747,372.56863 270.274322,372.602736 L267.496371,372.644664 C262.24913,372.729803 257.004695,372.90286 251.810766,374.086033 C244.262288,375.774089 236.618259,376.888843 229.06978,378.54505 C222.062753,380.073855 215.278677,382.207813 209.036053,385.902428 C207.029496,387.112732 204.577036,387.622334 202.602329,388.832639 C201.200924,389.692592 200.022469,390.011093 198.493663,389.405941 C198.111462,389.342241 197.53816,389.883693 196.741907,390.265894 C197.410759,390.488845 197.761111,390.584395 198.175162,390.711796 C198.047762,390.902897 197.984061,391.030297 197.920361,391.030297 C195.149401,390.679946 193.142843,392.431702 191.072585,393.705707 C188.556425,395.266363 186.263217,397.209221 183.747057,398.801727 C181.358298,400.330533 178.842138,401.636387 176.357829,403.037793 L176.071178,402.687441 C176.294129,402.40079 176.453379,402.018589 176.70818,401.795638 C177.869485,400.943035 179.020612,400.075166 180.169,399.203383 L182.464325,397.457962 C185.525764,395.132743 188.602976,392.833504 191.836988,390.775496 C198.589214,386.50758 205.62809,382.717415 212.603267,378.831701 C217.762987,375.96519 223.432308,374.595634 229.13348,373.35348 C239.994371,370.964721 250.982663,369.276664 262.066505,368.13006 C269.328333,367.397507 276.558311,367.556758 283.660888,369.435915 Z M32.0130791,372.589077 C39.083806,372.557227 46.154533,373.226079 53.2252599,373.863082 C59.8819353,374.468234 66.5704608,374.977836 73.0997356,376.315541 C80.4889638,377.812497 87.7189413,380.042005 94.980769,382.175963 C98.4524322,383.195167 101.860395,384.596573 105.236508,385.934278 C112.721287,388.896339 119.855714,392.654653 126.76719,396.795169 C128.200446,397.655122 129.538151,398.642476 130.907706,399.56613 C130.780305,399.852781 130.684755,400.043881 130.589205,400.203132 C129.665551,399.820931 128.741898,399.502429 127.881944,399.056528 C125.716136,398.037324 123.486628,397.11367 121.48007,395.839665 C120.110515,394.979712 118.709109,394.724911 117.116603,394.53381 C117.148453,394.279009 117.180304,393.992358 117.212154,393.705707 C115.02132,393.910458 113.225363,392.996392 111.443509,392.055061 L110.849558,391.741771 C110.056926,391.326698 109.258723,390.930197 108.42152,390.648096 C104.217304,389.21484 100.108639,387.622334 95.9044225,386.220929 C93.0060615,385.233575 90.1077004,384.278071 87.1456391,383.545519 C77.2084013,381.061209 67.1437629,379.532403 56.919874,379.022801 C49.9446974,378.67245 42.9695208,377.939897 35.9943443,377.812497 C30.0702217,377.716946 24.1460991,378.449499 18.2219766,378.385799 C16.0243182,378.385799 13.7948097,377.302895 11.6608516,376.538492 C11.2149499,376.379241 10.9282988,375.455588 10.7680833,374.818585 C10.7371981,374.659335 11.501601,374.086033 11.9156525,374.054182 C18.604178,373.51273 25.3245536,372.620927 32.0130791,372.589077 Z M140.430892,278.631219 C141.290845,280.351125 141.290845,282.166582 140.335342,283.790939 C138.710986,286.657449 137.723632,289.683211 137.723632,292.963773 C137.723632,295.448083 138.519885,297.582041 141.036044,298.569395 C145.17656,300.161901 149.348926,301.658857 153.489442,303.219513 C158.36251,305.06682 162.980778,307.391878 165.433237,312.328647 C166.452441,314.430755 167.121294,316.787664 167.471645,319.112723 C167.630896,320.163777 166.962043,321.851834 166.10209,322.393286 C164.923635,323.157689 163.49038,322.393286 162.534876,321.214831 C161.420122,319.845276 160.81497,318.539421 160.94237,316.532863 C161.101621,314.398905 159.540965,312.487898 157.598108,310.576891 C157.470707,312.678999 157.279606,314.335205 157.279606,315.991411 C157.279606,322.265885 157.343307,328.508509 157.407007,334.782983 C157.502557,343.064014 157.661808,351.376896 157.693658,359.657928 C157.725508,363.766593 157.629958,367.875259 157.470707,371.983925 C157.375157,374.723035 156.961105,377.430295 156.961105,380.169406 C156.961105,382.360694 156.991681,384.551982 157.032449,386.743271 L157.164946,393.317136 C157.18533,394.41278 157.203166,395.508424 157.215906,396.604068 C157.215906,397.655122 157.598108,398.929127 156.069302,399.375029 C154.572346,399.820931 153.362041,399.343179 152.88429,397.878073 C152.310987,396.094466 151.769535,394.247159 151.673985,392.399852 C151.419184,387.940835 151.259933,383.481818 151.355484,379.022801 C151.451034,373.576431 151.801385,368.09821 152.024336,362.651839 C152.151737,359.434977 152.279137,356.218114 152.310987,353.001252 C152.342838,348.574085 152.342838,344.146918 152.247287,339.719752 C152.119887,334.209681 151.769535,328.69961 151.642135,323.189539 C151.578435,320.514128 151.801385,317.806868 151.865086,315.131458 C151.896936,312.774549 151.865086,310.41764 151.865086,308.028881 C148.074921,306.786726 144.093656,305.640122 140.207941,304.175016 C137.24588,303.060262 135.048222,300.958154 133.837917,297.964243 C133.678666,297.550191 133.455716,297.136139 132.977964,296.785788 C132.977964,297.26354 132.914263,297.773142 132.977964,298.250894 C133.774217,302.264009 135.111922,306.054173 137.500681,309.462136 C138.456185,310.831692 139.156887,312.392348 139.82574,313.921153 C140.016841,314.367055 139.79389,315.290709 139.443538,315.57736 C139.061337,315.864011 138.105833,315.895861 137.723632,315.60921 C136.545177,314.749256 135.398573,313.761903 134.443069,312.647148 C131.035106,308.602183 128.614497,304.111316 127.977495,298.760496 C127.404192,293.823727 129.187799,289.715061 132.11801,285.988597 C134.156418,283.376887 136.322226,280.860727 138.424334,278.280868 C139.029487,277.516465 139.92129,277.612015 140.430892,278.631219 Z M40.9629632,253.055571 C41.2814644,253.119272 41.6318157,254.138476 41.950317,254.711778 C41.1222138,257.419038 40.3578109,259.871497 39.6252581,262.323957 C38.8927053,264.840116 38.2238528,267.388126 37.4594499,269.904286 C35.930644,274.777354 34.4018382,279.618573 32.8093321,284.491641 C31.6945779,287.899604 30.5161234,291.307567 29.3376689,294.68368 C27.7451628,299.174547 26.0571064,303.633564 24.4964505,308.124431 C22.4261926,314.112254 20.3877848,320.131927 18.3493771,326.11975 C16.756871,330.833568 15.2599153,335.547386 13.603709,340.229354 C10.8327484,348.064483 8.76249053,356.090714 7.45663556,364.308045 C6.78778301,368.544111 6.18263071,372.780178 5.54562828,376.984394 C5.35452755,378.258398 4.685675,379.086502 3.37982003,379.405003 C1.97841469,379.723504 1.62806336,378.768 0.895510565,377.844347 C-0.336759647,376.346293 -0.0476468926,374.903229 0.302776268,373.473438 L0.398769339,373.083793 C0.478202019,372.75931 0.55394547,372.435318 0.608859473,372.111325 C1.78731396,365.072448 2.7428176,357.969871 4.46272415,351.058395 C6.15078058,344.242469 8.66694017,337.649494 10.8327484,330.960968 C12.3934044,326.1516 13.9222102,321.310381 15.6102666,316.501013 C16.8842715,312.806399 18.3812272,309.175485 19.7189323,305.480871 C23.4453965,295.288832 27.2355609,285.128644 30.8664747,274.904755 C32.2041798,271.11459 32.9685827,267.133325 34.4018382,263.375011 C35.6439929,260.126298 37.3957496,257.068687 39.0519559,254.011075 C39.338607,253.469623 40.2941107,253.087422 40.9629632,253.055571 Z M263.053859,256.081333 L266.207021,259.775947 C269.678684,263.789062 270.984539,268.789531 272.545195,273.6626 C275.156905,281.879931 277.800465,290.097263 280.125524,298.378294 C282.355033,306.308974 284.13864,314.367055 286.240748,322.329585 C287.896954,328.635909 289.712411,334.878533 291.368617,341.153007 C292.515221,345.420923 293.407025,349.78439 294.617329,354.052306 C295.509133,357.205468 296.878688,360.19938 297.770492,363.352542 C298.662295,366.537554 299.235597,369.818116 299.90445,373.066829 C300,373.48088 300,373.926782 300,374.340834 C299.9363,376.761443 299.458548,377.334745 297.547541,377.367225 C295.540983,377.398445 293.980327,376.219991 294.044027,374.277133 C294.171428,370.646219 292.738172,367.397507 291.846369,364.021394 C289.744261,356.218114 287.419202,348.446685 285.221544,340.675255 C283.469787,334.464482 281.62248,328.285558 280.029974,322.042934 C278.819669,317.424667 278.118967,312.710849 276.844962,308.124431 C274.647303,300.098201 272.099294,292.16752 269.837935,284.17314 C267.863228,277.134263 266.079621,270.031686 264.200464,262.992809 C263.786412,261.432153 263.085709,259.935198 262.607958,258.374542 C262.416857,257.769389 262.480557,257.100537 262.416857,256.431684 C262.639808,256.336134 262.830908,256.208733 263.053859,256.081333 Z M230.821536,332.553474 C234.866502,332.808275 238.306315,332.999376 241.682428,333.286027 C242.31943,333.349727 243.179384,333.636378 243.466035,334.11413 C243.943786,334.878533 244.548939,336.216238 244.230438,336.72584 C243.784536,337.426543 242.414981,337.999845 241.555027,337.872445 C233.273996,336.502889 225.279615,337.681344 217.348935,340.133803 C213.718021,341.248557 209.896007,341.79001 206.328793,343.000314 C202.347528,344.338019 198.366263,345.898675 194.639799,347.809682 C190.085231,350.134741 185.849165,353.033102 181.358298,355.485562 C179.909118,356.26589 178.350691,356.843332 176.78134,357.392683 L175.4358,357.860753 C175.211862,357.938977 174.988274,358.017646 174.765323,358.097272 C174.446822,358.224672 173.586868,357.810621 173.618719,357.71507 C173.650569,357.109918 173.714269,356.377365 174.09647,355.995164 C181.007947,349.242938 189.066027,344.242469 198.175162,341.089307 C204.704437,338.827948 211.297412,336.66214 217.985938,334.878533 C222.349404,333.636378 226.903972,333.222327 230.821536,332.553474 Z M69.2777211,332.426074 C74.9788928,332.808275 80.6800645,333.317877 86.2856859,334.241531 C91.3817053,335.069634 96.4458746,336.279939 101.414493,337.745044 C103.492101,338.352646 105.485278,339.225604 107.468249,340.133818 L108.954723,340.817994 C109.698164,341.159792 110.442778,341.498458 111.192481,341.82186 C113.421989,342.777363 115.651498,343.732867 117.785456,344.879471 C121.320819,346.758628 124.792483,348.765186 128.264146,350.803594 C129.601851,351.599847 130.844006,352.587201 132.05431,353.606405 C132.850563,354.275257 133.169064,355.453712 132.436512,356.122564 C131.767659,356.727716 130.493654,357.078068 129.633701,356.886967 C128.327846,356.632166 127.021991,355.963313 125.939087,355.16706 C121.806534,352.228887 117.279835,350.043172 112.721784,347.884331 L110.897752,347.020508 C109.985759,346.587593 109.074448,346.151884 108.166719,345.707574 C100.936742,342.172211 93.1971622,340.611555 85.3620323,339.33755 C81.0304158,338.636847 76.6987993,338.063545 72.3671828,337.458393 C72.3353327,337.522093 72.3353327,337.649494 72.3034826,337.745044 C69.9147235,337.745044 67.5578145,337.808744 65.1690554,337.713194 C62.0158934,337.585793 58.8627314,337.394693 55.7095694,337.108042 C54.308164,336.980641 52.9067587,336.66214 51.5372035,336.279939 C50.9639013,336.120688 50.103948,335.419985 50.1676483,335.069634 C50.2631986,334.464482 50.8365008,333.763779 51.409803,333.477128 C52.2379062,333.094926 53.2252599,332.935676 54.1489134,332.903826 C56.4739723,332.840125 58.767181,332.967526 61.0922399,332.871976 C63.8313503,332.776425 66.5704608,332.234973 69.2777211,332.426074 Z M231.522239,311.022792 C232.859944,311.277593 234.165799,311.373144 235.407954,311.755345 C236.522708,312.073846 237.510062,312.870099 237.255261,314.144104 C237.03231,315.354409 236.013106,315.481809 234.770952,315.449959 C229.611232,315.354409 224.547063,316.023261 219.514743,317.074315 C210.501159,318.953473 202.060877,322.425136 193.747995,326.279 C188.651976,328.66776 183.747057,331.53427 178.651038,333.95488 C176.931131,334.782983 174.829023,334.942233 172.886166,335.133334 C171.866962,335.228885 171.35736,334.400781 172.312864,333.604528 C174.860873,331.50242 177.313333,329.145511 180.116143,327.457455 C188.843077,322.265885 198.111462,318.28462 207.857599,315.386259 C214.577975,313.379701 221.3302,311.755345 228.369077,311.436844 C229.420131,311.436844 230.471185,311.182043 231.522239,311.022792 Z M68.8636695,308.442932 C73.9278388,308.761434 78.960158,309.398436 83.9924771,310.162839 C89.9484498,311.054642 95.9044225,311.978296 101.764845,313.411551 C108.899272,315.131458 115.619648,317.934269 121.575611,322.361435 C123.199976,323.53989 124.951733,324.527244 126.607939,325.673848 C127.786394,326.501951 128.805598,327.489305 128.901148,329.081811 C128.964848,330.101015 128.614497,330.610617 127.595293,330.865418 C125.71741,331.285839 124.332822,330.423695 122.964019,329.472757 L122.590741,329.212106 C122.528474,329.168596 122.46615,329.125127 122.403723,329.081811 C119.059461,326.788602 115.874449,324.113192 112.211685,322.393286 C108.071169,320.450428 103.580302,319.112723 99.1212848,318.093519 C92.878661,316.660264 86.5404868,315.64106 80.2341628,314.590006 C76.6350991,313.984854 73.0360354,313.602652 69.4051216,313.284151 C67.0482126,313.0612 64.6594535,313.347851 62.3343946,313.0612 C60.073036,312.774549 57.8116774,312.137547 55.614019,311.500544 C55.0088667,311.309443 54.562965,310.54504 53.5756112,309.653237 C54.6903655,309.143635 55.4547684,308.570333 56.2191713,308.538483 L57.3665175,308.501081 L59.6647993,308.419386 C62.7315998,308.312373 65.8060578,308.234459 68.8636695,308.442932 Z M163.076328,281.051828 C163.55408,281.943632 163.777031,282.962835 163.968132,283.982039 C164.191083,285.192344 164.127382,286.466349 164.445884,287.644803 C164.605134,288.218105 165.242137,288.855108 165.815439,289.046209 C168.108648,289.874312 170.433706,290.734265 172.822466,291.275717 C175.274925,291.817169 177.822935,292.07197 180.339094,292.326771 C181.8679,292.486022 183.364856,292.358621 184.829961,292.358621 C193.970946,293.123024 202.474928,295.734734 210.405609,300.289301 C211.233712,300.767053 212.029965,301.340355 212.666967,302.009208 C213.049169,302.42326 213.526921,303.251363 213.33582,303.601714 C213.081019,304.175016 212.284766,304.843869 211.743314,304.843869 C210.437459,304.812019 209.099754,304.589068 207.889449,304.143166 C205.245889,303.187662 202.697879,302.009208 200.11802,300.926304 C199.226216,300.575952 198.493663,300.480402 197.474459,300.926304 C193.625145,302.53701 190.009831,304.568918 186.407889,306.660997 L184.60701,307.71038 C182.600453,308.888834 181.135347,309.653237 181.262748,312.360497 C181.358298,314.144104 179.28804,314.972207 176.803731,314.621856 C175.274925,314.398905 174.446822,313.188601 174.701623,311.182043 C174.988274,308.665883 174.797173,306.277124 174.160171,303.792815 C173.332067,300.735203 171.198109,298.887896 168.904901,297.072439 C166.802793,295.416233 164.541434,293.887427 162.566726,292.10382 C160.114267,289.906162 159.509115,283.886489 161.260871,281.115528 C161.866024,280.191875 162.598577,280.096324 163.076328,281.051828 Z M131.92691,272.229345 C132.309111,272.261195 132.882413,272.993747 132.977964,273.471499 C133.041664,273.853701 132.595762,274.458853 132.213561,274.777354 C130.047753,276.560961 127.754544,278.185317 125.652436,280.032624 C124.18733,281.274779 122.690375,282.612484 121.671171,284.20499 C120.174215,286.530049 118.613559,289.014358 117.976557,291.657919 C116.893652,295.957685 117.435105,300.257451 120.269765,303.983915 C120.747517,304.589068 121.161569,305.28977 121.38452,306.022323 C121.60747,307.009677 121.097868,307.551129 119.823864,307.551129 C118.231358,307.296328 116.925503,306.213424 115.747048,304.843869 C115.237446,304.270567 114.632294,303.697264 113.963441,303.378763 C110.491778,301.786257 107.020115,300.257451 103.516601,298.792346 C101.478194,297.932392 99.3760857,297.16799 97.2739777,296.467287 C96.8917763,296.339886 96.3184741,296.817638 95.8407223,297.008739 C95.1400196,297.29539 94.4393169,297.582041 93.7067641,297.868692 C93.7386142,297.136139 93.5156634,296.276186 93.8341646,295.702884 C95.3948206,292.804523 97.337678,290.256513 99.9493879,288.122555 C106.160162,283.090236 113.071638,279.236371 120.110515,275.509907 C122.403723,274.299602 124.792483,273.216698 127.244942,272.420445 C128.678197,271.974544 130.366254,272.133794 131.92691,272.229345 Z M176.771881,296.945039 C178.268836,299.110847 179.606541,301.053704 180.944246,302.996562 C183.810757,301.499606 186.804669,299.9708 189.83043,298.410144 C185.530664,297.932392 181.167197,297.42279 176.771881,296.945039 Z M115.269296,283.727238 C114.727844,284.013889 114.409343,284.17314 114.122692,284.364241 C110.87398,286.466349 107.657117,288.600307 104.408405,290.702415 C103.803253,291.116466 103.16625,291.498668 102.592948,291.97642 C101.892245,292.581572 101.955946,293.091174 102.911449,293.473375 C104.631356,294.142228 106.351262,294.842931 108.071169,295.543633 C109.568125,296.085085 111.06508,296.626537 112.848687,297.32724 C112.243535,292.422321 113.421989,288.154405 115.269296,283.727238 Z M72.5264334,287.453703 C75.5840451,287.581103 78.6416567,287.931454 81.6992684,288.218105 C82.8140226,288.313656 83.6421258,290.065412 82.8140226,291.180167 C82.2407204,292.00827 81.0941161,292.581572 80.1067623,292.900073 C79.3105093,293.154874 78.3231555,292.804523 77.4313521,292.740823 C73.6093376,292.517872 69.7236228,292.581572 65.9334583,292.04012 C63.1624978,291.626068 60.4870876,290.479464 57.6842769,289.651361 C58.4486798,287.644803 59.7226847,287.326302 60.9966895,287.326302 C64.8505542,287.294452 68.6725688,287.294452 72.5264334,287.453703 Z M160.241668,207.095846 L160.422365,207.24428 L160.780607,207.540478 C161.793326,208.373434 162.807195,209.124699 164.350333,209.070554 C165.019186,209.038704 166.325041,210.59936 166.388741,211.491163 C166.707242,215.217627 166.579842,218.975942 166.770942,222.734256 C166.962043,226.269619 166.356891,229.677582 165.242137,233.021845 C164.891785,234.104749 164.414033,235.219504 162.980778,235.060253 C161.579373,234.901002 161.101621,233.690698 160.94237,232.544093 C160.78312,231.397489 160.97422,230.219034 161.006071,229.07243 C161.037921,224.677113 161.165321,220.281797 161.037921,215.88648 C160.97422,213.848072 160.464618,211.809664 160.146117,209.771257 C160.018717,208.975004 159.923166,208.1469 159.795766,207.350647 C159.955017,207.223247 160.114267,207.159547 160.241668,207.095846 Z M65.837908,70.0129242 C66.5386106,72.7201845 65.3920063,75.3637446 62.8121464,76.4466487 C59.6908345,77.7843538 56.4421222,78.7717075 53.3845105,80.2686632 C48.798093,82.5300219 44.2753758,84.9506311 39.8163588,87.4986408 C37.1090985,89.0592967 34.4973886,90.7792033 32.0130791,92.6902106 C27.522212,96.1937239 23.7638977,100.46164 20.3877848,105.016208 C19.0182296,106.863515 17.9034754,109.029323 17.2664729,111.195131 C16.0880184,115.112696 15.0369644,119.125811 14.5273625,123.170777 C13.9540603,127.597944 15.0051143,131.92956 16.9479717,135.942675 C19.1456301,140.465393 21.75734,144.797009 25.2290033,148.459773 C30.6435239,154.160945 37.2683491,157.791859 45.2308795,158.397011 C47.0190363,158.533511 48.8130431,158.617362 50.6078857,158.688676 L54.1971993,158.826477 C55.3930182,158.874763 56.5877227,158.929363 57.7798273,159.002163 C64.4365026,159.416215 69.5643722,162.537527 73.6730378,167.760947 C76.5395487,171.36001 79.5653103,174.927224 84.215428,176.392329 C88.4514941,177.730035 92.6557101,179.481791 97.1784274,179.25884 C100.873041,179.06774 104.535805,178.303337 108.230419,178.016686 C110.842129,177.793735 113.51754,177.825585 116.12925,177.984835 C117.052903,178.016686 118.008407,178.812939 119.027611,179.29069 C118.263208,181.297248 116.957353,181.80685 115.492247,182.061651 C112.370935,182.571253 109.154073,182.826054 106.096461,183.590457 C96.3503242,185.979216 87.2730396,184.036359 78.5142563,179.768442 C74.8196422,177.952985 71.7301804,175.277575 69.0547702,172.156263 C67.8444656,170.754858 66.5386106,169.449003 65.3601561,168.015748 C62.429945,164.352984 58.4168297,163.684131 54.0852132,163.747831 C48.3521914,163.811531 42.6191695,163.620431 37.1090985,161.868674 C29.8154207,159.575465 23.7001974,155.4668 18.8271289,149.510827 C14.8140136,144.574058 11.5971513,139.191388 9.7498443,133.076164 C7.99808762,127.279442 8.02993774,121.48272 9.43134308,115.654148 C10.7690482,110.048527 13.1578073,104.888807 16.4383698,100.174989 C19.5596817,95.684122 23.8275979,92.3080091 28.1592144,88.9955965 C37.0772484,82.1796705 47.0781865,77.3384521 57.3020754,72.847585 C59.7226847,71.796531 62.0795936,70.5862264 64.4365026,69.439622 C65.1053552,69.1211208 65.583107,69.0574205 65.837908,70.0129242 Z M170.784058,3.00026889 C174.414972,4.05132289 177.536283,6.21713114 180.530195,8.51033988 C185.339563,12.2368041 189.002327,16.950622 191.996239,22.1740419 C193.365794,24.5309509 195.11755,25.4227543 197.824811,25.3272039 C203.685233,25.1042531 209.545655,24.8494521 215.406078,25.072403 C224.578913,25.4227543 233.656197,26.5693587 242.064629,30.7735747 C247.256199,33.3852846 251.333015,37.2072992 254.868378,41.7300164 C257.862289,45.552031 260.219198,49.756247 261.907255,54.2789642 C263.563461,58.7061311 264.296014,63.3880989 264.264164,68.133767 C264.232314,70.4269757 263.977513,72.7838847 263.34051,74.9815431 C263.085709,75.8414964 261.684304,76.6695995 260.63325,76.9562506 C259.263695,77.3384521 258.02154,77.4977027 257.066036,78.8672579 C256.237933,80.0138623 254.709127,80.6508647 253.626223,81.6382185 C253.307722,81.9248695 253.180322,82.8803732 253.403272,83.1351742 C254.645427,84.6321299 255.887582,86.1609357 257.384538,87.4030904 C263.659012,92.6583604 270.029036,97.8499302 276.36721,103.0415 C284.043089,109.315974 288.470256,117.437755 290.476814,127.056491 L290.561838,127.45795 L290.735176,128.261637 C291.373051,131.210104 291.994154,134.174357 291.209367,137.08928 C290.094612,141.293496 288.725057,145.497712 286.9096,149.447127 C285.667445,152.154387 283.756438,154.638697 281.74988,156.868205 C279.966274,158.842913 277.800465,160.530969 275.539107,161.964224 C273.309598,163.39748 270.857139,164.544084 268.40468,165.563288 C266.875874,166.200291 265.155967,166.391391 263.499761,166.709893 C261.270252,167.123944 259.072594,167.474295 256.811235,167.760947 C247.5747,168.939401 238.433715,170.468207 229.356431,172.634015 C224.005611,173.90802 218.59109,174.799823 213.208419,175.978278 C207.857599,177.156732 202.506779,178.462587 197.155958,179.736592 C193.047293,180.723946 188.970477,181.80685 184.861811,182.826054 C184.60701,182.889754 184.320359,182.953454 184.065558,182.921604 C183.364856,182.794204 182.696003,182.634953 181.9953,182.475703 C182.473052,181.997951 182.918954,181.520199 183.428556,181.074297 C183.874458,180.692096 184.38406,180.437295 184.829961,180.055093 C189.76673,175.882727 195.659003,173.780619 201.869776,172.379214 C203.525982,171.997013 205.118489,171.42371 206.742845,171.009659 C213.909122,169.194202 221.107249,167.474295 228.273527,165.626988 C233.242146,164.321133 238.115214,162.601227 243.115683,161.582023 C246.491796,160.88132 250.05901,160.91317 253.530673,160.945021 C259.454796,160.976871 264.805616,159.448065 269.519434,155.880851 C271.589692,154.320195 273.72365,152.85509 275.698357,151.198883 C276.653861,150.40263 277.354564,149.287876 278.023416,148.236822 C280.953627,143.682255 282.928335,138.745486 283.597188,133.362816 C284.23419,128.043845 282.418733,123.138927 280.666976,118.234008 C278.596718,112.500986 274.233252,108.647121 269.806085,104.920657 C267.990628,103.402468 266.143321,101.923207 264.288936,100.453383 L260.578069,97.5175792 C258.107653,95.5571147 255.654014,93.5784751 253.275872,91.5117561 C247.4473,86.4157367 243.975637,79.950162 243.274934,72.1150322 C243.147533,70.5225261 242.892732,68.9618702 242.733482,67.3693641 C242.797182,66.6368113 242.860882,65.9042585 242.860882,64.8213544 C247.103318,67.083987 248.450528,70.7942331 249.677393,74.7259815 L249.875728,75.3653103 C250.239014,76.5402626 250.604921,77.7289346 251.046364,78.899108 C252.129268,76.8607003 253.212172,75.3637446 253.753624,73.6756881 C255.218729,69.2166711 255.123179,64.6939539 254.486177,60.0438362 C253.753624,54.7248659 251.364865,50.1702986 248.657604,45.7749818 C243.975637,38.194653 237.382661,33.3852846 228.432777,31.8564788 C221.043549,30.582474 213.622471,30.1365723 206.137692,30.5187737 C203.557833,30.6461742 200.977973,30.8054248 198.398113,31.0602258 C193.588745,31.5061275 189.67118,29.6906706 186.199516,26.5056584 C183.110055,23.6709976 181.358298,19.8489831 178.778438,16.6639709 C175.020124,12.0138532 170.656657,8.12813842 164.509584,7.01338417 C161.133471,6.37638175 157.725508,5.73937932 154.317545,5.42087811 C151.673985,5.19792726 148.966725,5.38902799 146.291314,5.54827859 C138.328784,6.05788053 130.716605,8.00073794 123.391077,11.0901997 C117.403254,13.6063593 112.498336,17.7787252 108.166719,22.5562434 C103.357351,27.8115134 99.2486852,33.6082355 96.0955232,39.9782598 C93.929715,44.3417264 91.7002065,48.705193 88.3240936,52.2405565 C85.0753812,55.6485194 81.5400178,58.7379812 77.3039516,60.9674897 C75.9025463,61.7000425 74.5648412,62.4962955 73.1634359,63.2288483 C72.685684,63.4836493 72.2079322,63.7384503 71.6983303,63.8021505 C71.2842787,63.8340006 70.7746768,63.6428999 70.4880257,63.3880989 C70.3606252,63.2606984 70.583576,62.5918459 70.838377,62.3051948 C71.8257308,61.1904406 72.9086349,60.1712367 73.9278388,59.1201827 C76.3802981,56.572173 78.9920081,54.1197136 81.2215166,51.4124533 C82.8140226,49.4695959 84.0243272,47.2082373 85.2346319,44.9787288 C87.623391,40.4560116 89.725499,35.7740437 92.2416585,31.3468769 C95.1400196,26.2508575 98.7390833,21.66444 103.03885,17.6194746 C107.752668,13.2241578 112.784987,9.24289267 118.740959,6.7585832 C122.945176,4.97497641 127.436043,3.79652192 131.799509,2.45881682 C137.37328,0.770760393 143.106302,0.356708816 148.903024,0.0700577236 C156.419653,-0.312143732 163.649631,0.898160878 170.784058,3.00026889 Z M143.201853,82.2433708 C143.743305,83.5810759 144.029956,84.5365795 144.507708,85.3965328 C144.889909,86.1290856 145.718012,86.7342379 145.813563,87.4986408 C146.004663,88.6770953 146.004663,89.9829502 145.622462,91.0977045 C144.635108,93.868665 144.889909,96.6077755 145.463211,99.3468859 C146.068364,102.181547 146.546115,105.079908 147.374219,107.850868 C148.011221,110.048527 149.157825,112.086934 150.017779,114.220893 C150.36813,115.080846 150.559231,116.036349 150.654781,116.991853 C151.036983,120.336116 151.546584,123.712229 151.673985,127.056491 C151.865086,132.757663 149.890378,137.758132 146.100214,141.994198 C144.221057,144.064456 142.978902,146.421365 142.43745,149.096775 C141.450096,153.969844 140.590143,158.874763 142.023398,163.875232 C142.4056,165.181087 142.310049,166.614342 142.4693,167.952047 C142.660401,169.385303 141.641197,169.735654 140.717543,169.480853 C139.379838,169.098652 138.073983,168.429799 136.927379,167.665396 C136.513327,167.410595 136.768128,166.327691 136.449627,165.786239 C135.366723,163.907082 134.283819,161.996075 132.946114,160.308018 C130.748455,157.537058 128.359696,154.893498 126.034637,152.218087 C122.690375,148.396073 121.225269,143.777805 120.588267,138.872886 C119.983114,134.031668 119.059461,129.3497 116.479601,125.145484 C116.415901,124.954383 116.384051,124.667732 116.2885,124.253681 C120.046814,124.604032 122.403723,126.833541 124.410281,129.572651 C127.085691,133.267265 128.104895,137.439631 128.232296,141.962348 C128.382938,146.993807 131.326573,150.742768 134.313344,154.422406 L134.825271,155.052748 C134.920821,155.180149 135.080072,155.243849 135.207472,155.307549 C135.303023,155.339399 135.398573,155.307549 135.685224,155.307549 C135.908175,151.167033 137.628081,147.440569 139.411688,143.745955 C140.112391,142.3127 140.876794,140.943144 141.545646,139.509889 C143.902555,134.50942 144.029956,129.286 143.520354,123.839629 C142.978902,118.011057 140.717543,112.692087 139.475388,107.086465 C138.647285,103.360001 138.010283,99.6016869 138.615435,95.8433726 C139.220588,92.1169084 140.335342,88.4859945 141.354546,84.8232306 C141.609347,83.9632773 142.4693,83.2625746 143.201853,82.2433708 Z M191.518487,95.2700704 C191.868838,96.0026232 192.187339,96.4166748 192.28289,96.8625765 C192.856192,99.6972373 192.34659,102.277097 190.817784,104.761407 C189.511929,106.863515 188.333475,109.061173 187.18687,111.258831 C185.371413,114.762345 184.702561,118.552509 184.47961,122.501924 C184.161109,127.725344 183.460406,132.916914 182.823404,138.108484 C182.600453,139.605439 182.027151,141.006845 181.517549,142.822302 C183.492256,141.803098 185.148462,140.974994 186.772819,140.115041 C192.760641,136.961879 199.289916,135.560474 205.914742,134.54127 C210.055257,133.904268 214.100223,133.044314 218.017788,131.324408 C221.29835,129.891152 224.292262,128.171246 226.840271,125.686936 C227.095072,125.432135 227.859475,125.272885 228.050576,125.463985 C228.528328,125.878037 229.19718,126.61059 229.06978,127.024641 C228.719428,128.362346 228.273527,129.763752 227.477274,130.846656 C225.088515,133.999818 221.616851,135.624174 218.049638,137.05743 C214.490387,138.490685 210.751979,138.88483 206.995655,139.207313 L205.743105,139.31348 C204.907924,139.384258 204.072743,139.456805 203.239331,139.541739 C194.607949,140.401692 186.709118,142.949702 180.116143,148.873825 C178.746588,150.115979 177.217782,151.198883 175.688976,152.218087 C174.287571,153.173591 173.491318,152.122537 173.013566,151.007783 C172.945756,150.84134 172.848118,150.665352 172.74767,150.484438 L172.647286,150.302053 C172.266563,149.597926 171.976896,148.844029 173.300217,148.300522 C173.586868,148.173122 173.841669,147.822771 174.00092,147.504269 C177.122232,141.707547 178.651038,135.496774 179.22434,128.967499 C179.670242,123.903329 180.243544,118.87101 180.848696,113.838691 C181.167197,111.258831 182.504902,109.156723 184.033708,107.022765 C186.295067,103.837753 188.206074,100.42979 190.276332,97.1173774 C190.594833,96.6077755 190.945185,96.0981735 191.518487,95.2700704 Z M129.888502,111.800283 C131.353608,111.895834 132.149861,113.042438 132.500212,114.252743 C132.659463,114.857895 132.149861,116.004499 131.576558,116.450401 C129.856652,117.756256 128.104895,119.221362 126.130188,119.890214 C121.41637,121.48272 116.543301,122.183423 111.574682,121.29162 C111.319881,121.259769 110.90583,121.164219 110.810279,121.29162 C109.759225,122.597474 108.740021,123.903329 107.752668,125.241035 C107.688967,125.336585 107.688967,125.559536 107.720818,125.718786 C108.580771,129.572651 109.313324,133.458366 110.364378,137.28038 C111.09693,140.019491 112.147984,142.694901 113.294589,145.306611 C113.70864,146.230265 114.823395,146.835417 115.619648,147.59982 C116.384051,148.332373 117.498805,149.033075 116.670702,150.21153 C115.969999,151.230734 114.855245,151.963286 113.51754,151.230734 C111.09693,149.893028 108.803722,148.427923 106.351262,147.153918 C103.612152,145.688812 100.809341,144.319257 97.9746804,143.077103 C96.9554765,142.631201 95.7133218,142.631201 94.5985675,142.34455 C93.9615651,142.121599 93.3882629,141.739397 92.4646094,141.325346 C81.1259662,147.440569 65.583107,144.765159 58.5442302,139.637289 C59.9774856,139.637289 61.4744413,139.446189 62.8758467,139.66914 C68.6725688,140.529093 74.4692908,140.688343 80.297863,140.242442 C84.8524304,139.89209 88.4514941,137.630732 91.4135554,134.382019 C95.6177714,129.731902 99.439786,124.795133 102.401847,119.253212 C104.121754,116.036349 108.867422,114.220893 112.339085,115.367497 C113.931591,115.877099 115.619648,116.29115 117.275854,116.323001 C120.524566,116.386701 123.454777,115.654148 125.270234,112.532836 C126.448689,110.494428 128.295996,111.704733 129.888502,111.800283 Z M161.993424,67.7515656 C162.948928,68.0382166 163.968132,68.2293174 164.859935,68.6752191 C169.414503,70.9047276 173.140967,74.3445407 177.026682,77.5295528 C179.19249,79.3131596 181.199047,81.3834175 183.619657,82.6892725 C186.199516,84.1225279 189.097878,85.1098817 191.996239,85.8105844 C195.945654,86.766088 199.958769,87.3712403 203.971884,87.9445425 C206.265093,88.2630437 208.622002,88.2311936 210.947061,88.3904442 C211.361112,88.4222943 211.870714,88.3585941 212.189215,88.5496948 C213.049169,89.0592967 214.386874,89.6325989 214.482424,90.3014515 C214.641675,91.4480558 213.590621,92.4672597 212.348466,92.6265103 C209.354555,92.9450115 206.360643,93.4227633 203.366732,93.327213 C197.060408,93.1042621 190.817784,92.2124587 184.925512,89.6325989 C184.51146,89.2822476 183.970008,89.0274466 183.301155,88.7407955 C183.778907,91.225105 182.664153,93.1998125 181.453848,95.0152694 C177.854785,100.42979 174.160171,105.78061 170.497407,111.195131 C170.178905,111.672883 169.987805,112.246185 169.828554,112.787637 C169.414503,114.220893 169.191552,115.685998 168.6501,117.055553 C167.630896,119.699113 167.630896,122.406374 167.981247,125.113634 C168.331598,127.629794 168.267898,129.891152 166.802793,132.152511 C165.528788,134.095368 164.796235,136.388577 163.713331,138.490685 C162.853378,140.178741 161.897874,141.803098 160.97422,143.427454 C160.84682,143.395604 160.719419,143.395604 160.560169,143.363754 C160.75127,142.280849 160.84682,141.197945 161.101621,140.146891 C161.993424,136.229326 163.171879,132.343612 163.745181,128.394197 C164.732535,121.259769 163.999982,114.220893 161.324572,107.500517 C160.655719,105.812461 159.572815,104.219954 158.489911,102.754849 C156.961105,100.652741 155.177498,98.7417336 153.648692,96.6714757 C151.036983,93.1361123 150.208879,89.122997 150.559231,84.8232306 C150.654781,83.612926 150.814032,82.4026214 151.068833,81.1923168 C151.164383,80.7145649 151.578435,79.950162 151.801385,79.9820121 C152.279137,79.9820121 153.04354,80.3642136 153.170941,80.7464151 C153.648692,82.1796705 154.317545,83.7084763 154.158294,85.1098817 C153.807943,88.1037931 154.540496,90.8429035 155.814501,93.3909132 C156.610754,94.9834193 158.17141,96.1618738 159.318014,97.5951292 C162.088975,101.034942 164.955486,104.474755 166.293191,108.933772 C168.61825,105.175458 170.688507,101.480844 173.077266,98.0091808 C175.243075,94.8560188 176.198578,91.5436062 176.294129,87.7534418 C176.357829,85.8105844 176.51708,84.5047294 174.606072,82.9759236 C171.32551,80.3642136 168.61825,77.051801 165.815439,73.8667889 C164.286633,72.1468823 163.140029,70.1084745 161.834174,68.1974673 C161.897874,68.0382166 161.961574,67.878966 161.993424,67.7515656 Z M104.440255,130.464454 C101.732995,133.490216 99.0575845,136.515978 96.5095748,139.350638 C99.3633457,140.216962 102.48211,141.144437 105.637565,142.084143 L108.007469,142.790451 C106.829014,138.713636 105.61871,134.54127 104.440255,130.464454 Z M267.417326,60.3304873 C268.43653,60.6171384 269.551284,60.7445389 270.474938,61.2222907 C275.125055,63.6110498 279.424822,66.5094108 282.291333,71.0321281 C285.699296,76.4466487 287.228101,82.3707712 285.826696,88.7407955 C285.508195,90.1422009 284.616391,91.4162057 283.979389,92.7539108 C283.151286,94.378267 279.138171,94.6967682 277.832316,93.9960655 C276.590161,93.3590631 276.39906,92.276159 276.844962,90.5562524 C277.545664,87.9763926 278.405618,85.3646827 278.628569,82.7211226 C279.07447,77.593253 277.354564,73.0705358 274.010301,69.1529709 C271.971893,66.7960619 269.901635,64.5028532 267.863228,62.1777943 C267.544726,61.7955929 267.385476,61.2859909 267.130675,60.8400892 C267.226225,60.6489885 267.321776,60.4897379 267.417326,60.3304873 Z" id="Combined-Shape" fill="#000000" fill-rule="nonzero"></path>
    </g>
</svg>