<?xml version="1.0" encoding="UTF-8"?>
<svg width="261px" height="225px" viewBox="0 0 261 225" version="1.1" xmlns="http://www.w3.org/2000/svg" xmlns:xlink="http://www.w3.org/1999/xlink">
    <title>Combined Shape</title>
    <g id="Page-1" stroke="none" stroke-width="1" fill="none" fill-rule="evenodd">
        <path d="M45.358912,0.8 C48.0300174,0.8 50.7463957,1.16218378 53.3948646,1.6149135 C55.8396051,2.02237026 55.8622416,2.22609863 56.2923349,5.3952067 C56.5866092,5.44047968 56.9261565,5.55366211 57.2430673,5.53102562 C58.7370754,5.48575265 60.2310835,5.37257022 61.7250916,5.3952067 C64.1245591,5.44047968 66.5240266,5.46311616 68.9008577,5.68948103 C71.1418698,5.8932094 73.382882,6.21012021 75.5559846,6.75339588 C79.2457319,7.65885533 82.5053859,9.58295666 85.674494,11.6655134 C89.9527899,14.4950742 94.2537223,17.2567255 98.5093817,20.1089228 C103.534682,23.4817592 109.103257,25.8359538 114.490741,28.4617862 C118.723764,30.5217064 122.93415,32.6268996 127.167173,34.6415469 C129.725096,35.8639172 132.350929,36.9957415 134.931488,38.1954752 C140.477427,40.7081252 146.249731,42.5643171 151.976762,44.5336914 C154.919505,45.5523333 157.703793,47.0916143 160.533354,48.4498035 C161.959453,49.1288981 163.362915,49.8306292 164.698467,50.6681792 C167.143208,52.2300967 169.293674,54.2221075 170.538681,56.8026669 C173.006058,61.8732398 175.767709,66.7400844 178.936817,71.4032005 C180.996737,74.4138532 182.830293,77.5603248 184.84494,80.6162504 C186.06731,82.4724423 187.380227,84.2607247 188.715779,86.0263707 C188.919508,86.2980085 189.41751,86.4111909 189.802331,86.4564639 C192.541345,86.7733747 195.257724,87.0450125 197.996739,87.3845598 C198.69847,87.4751058 199.400201,87.7014706 200.034022,87.995745 C201.007391,88.4258382 200.690481,89.4444801 200.75839,90.1914841 C200.894209,91.5949463 200.37357,92.092949 198.970108,92.0703125 C196.389548,92.002403 193.786352,91.8213111 191.205793,91.7986746 C190.436152,91.7986746 189.553329,92.047676 188.919508,92.4777692 C188.285686,92.9304989 187.968775,92.7267706 187.448136,92.4098598 C186.859587,92.0703125 186.180493,91.7081287 185.546671,91.7081287 C181.449467,91.7081287 177.352263,91.8213111 173.277696,91.8665841 C167.075298,91.95713 160.872901,92.0250395 154.647868,92.1382219 C151.184485,92.2061314 147.743739,92.4098598 144.280357,92.4551327 C139.458785,92.5230422 134.637214,92.5456787 129.838279,92.5456787 C127.95945,92.5456787 126.103258,92.3419503 124.22443,92.2514044 C123.998065,92.2287679 123.794337,92.2966773 123.432153,92.3645868 C123.862246,93.4058652 124.179157,94.4018706 124.67716,95.2846935 C126.056654,97.81998 126.776008,100.585548 127.454725,103.353824 L127.744922,104.539731 C127.793475,104.737189 127.842273,104.934494 127.891541,105.131565 C128.502726,107.576306 129.091275,110.043683 129.63455,112.488423 C129.996734,114.140887 130.245735,115.815987 130.517373,117.46845 C130.970103,120.252738 131.649198,123.014389 131.739743,125.821313 C131.852926,129.488424 130.811648,132.883897 127.438811,135.057 C126.533352,135.645548 125.650529,136.324643 124.67716,136.8 C124.020702,137.11692 123.228425,137.343285 122.504057,137.343285 C120.376227,137.343285 118.157852,137.547013 116.346933,136.188824 C115.260381,135.373911 114.128557,134.400542 113.517372,133.223444 C110.416173,127.428504 107.450794,121.565654 104.462778,115.702804 C103.149861,113.167518 102.018037,110.519049 100.591938,108.051672 C98.803656,105.018383 96.7663722,102.143549 94.8649074,99.1781691 C93.7783561,97.4804327 92.7823507,95.7147868 91.7410723,93.9717773 C91.0619777,92.8173165 89.9754264,92.4098598 88.7304196,92.2966773 C87.304321,92.1834949 85.8782224,92.0703125 84.4521237,92.092949 C83.0033886,92.1155854 81.532017,92.3193138 80.0832819,92.3872233 C79.8245792,92.4001584 79.5666978,92.4328042 79.3090119,92.4704559 L78.7292847,92.5574161 C77.8271788,92.6865279 76.9217193,92.7418616 75.9860779,92.092949 C75.1485279,91.5044003 72.7943333,92.8173165 72.454786,93.9491408 C71.8436009,95.9864246 71.2324158,98.0463448 70.8928685,100.151538 C70.5080482,102.551006 70.2590469,104.995746 70.1911374,107.440487 C70.1005915,110.292684 70.2816834,113.167518 70.3043198,116.042351 C70.3269563,118.600274 70.3043198,121.158197 70.3495928,123.71612 C70.3722293,125.45913 70.4854117,127.224776 70.5533212,128.967785 C70.6438671,131.050342 70.6665036,133.132898 70.824959,135.192819 C70.915505,136.256734 71.2776887,137.275375 71.4814171,138.33929 C71.7304185,139.697479 71.8209644,141.100942 72.1831482,142.436494 C72.3642401,143.115589 72.6132414,143.862593 73.5639739,144.20214 C74.5373428,144.541688 75.3975292,145.220782 76.2350792,145.854604 C77.7290873,146.986428 79.4268238,147.235429 81.2377427,147.235429 C86.1724967,147.212793 91.1298872,147.212793 96.0646412,147.212793 C100.252391,147.212793 104.462778,147.144883 108.650528,147.212793 C110.393537,147.235429 112.136546,147.710796 113.879556,147.665523 C116.075295,147.597613 117.999396,148.299344 119.855588,149.317986 C123.318971,151.242087 124.948798,154.501741 126.035349,158.123579 C126.88222,160.903872 127.1313,163.763119 127.339907,166.629664 L127.443419,168.063213 C127.496068,168.77996 127.551994,169.496416 127.619903,170.211463 C128.185815,176.255405 128.797,182.299347 129.272366,188.343288 C129.544004,191.761398 129.589277,195.202144 129.770369,198.620253 C129.928825,201.585633 130.177826,204.551013 130.268372,207.539029 C130.336281,209.84795 130.449464,212.224781 129.476095,214.420521 C128.729091,216.095621 127.95945,217.793357 126.986081,219.355275 C125.922167,221.075647 124.088611,221.732106 122.16451,222.071653 C120.896867,222.298018 119.629223,222.547019 118.36158,222.637565 C114.400195,222.909203 110.43881,223.158204 106.454788,223.339296 C103.330953,223.475115 100.184482,223.520388 97.0606466,223.588297 C93.5746277,223.656207 90.0659723,223.70148 86.5799534,223.746753 C82.8675697,223.792026 79.1325495,223.859935 75.4201657,223.882572 C70.6438671,223.927845 65.890205,223.905208 61.1139064,223.950481 C56.7224281,223.995754 52.3309498,224.131573 47.9394714,224.176846 C41.6465283,224.244756 35.3762216,224.380574 29.0832784,224.244756 C26.0952622,224.176846 23.1298825,223.520388 20.1418664,223.203477 C19.0779515,223.090295 17.9461272,223.294023 16.9048488,223.135568 C13.9394691,222.660202 10.9967259,222.02638 8.03134622,221.505741 C7.62388947,221.437831 7.12588677,221.483104 6.78633948,221.664196 C4.65850978,222.818657 2.71177196,221.777379 2.30431521,219.536366 C0.810307117,211.296685 0.651851713,202.989095 0.855580089,194.658868 C1.08194495,184.608268 1.30830981,174.557668 1.60258413,164.507068 C1.64785711,162.605604 2.16849629,160.704139 2.16849629,158.780037 C2.16849629,156.606935 3.3003206,155.135563 4.74905572,153.845283 C6.49206516,152.306002 8.57462189,151.694817 10.8835435,152.034364 C11.1099084,152.057001 11.2910002,152.396548 11.5173651,152.419185 C11.7890029,152.441821 12.3096421,152.306002 12.3096421,152.238093 C12.3096421,150.562993 13.7583772,150.540356 14.7317461,150.359265 C16.6105745,149.997081 18.5573123,149.929171 20.5040501,149.793352 C23.3109744,149.61226 26.1178987,149.499078 28.9021865,149.363259 C31.5732919,149.22744 34.2217608,149.136894 36.8928662,148.978439 C38.5226932,148.887893 40.1298837,148.684165 41.7597107,148.525709 C43.5706296,148.367254 45.3815485,148.186162 47.1924674,148.095616 C49.0486593,148.00507 50.9048511,148.00507 52.761043,147.959797 C54.6625079,147.914524 56.5639727,147.914524 58.4654375,147.846615 C61.2497253,147.756069 64.0340132,147.597613 66.818301,147.484431 C67.610578,147.461794 68.4254915,147.484431 69.2177685,147.484431 C69.195132,147.439158 69.240405,147.348612 69.3083144,147.280702 C67.0446658,145.883607 66.4251468,143.712803 65.9817844,141.48069 L65.8780081,140.94417 C65.8610252,140.854676 65.8441362,140.765174 65.8272473,140.675712 L65.725162,140.139764 C65.6906326,139.961513 65.6553515,139.783781 65.6185672,139.606934 C64.9224952,136.245415 64.8121424,132.832965 64.7431718,129.417331 L64.709615,127.709471 C64.6978989,127.140242 64.6848121,126.571147 64.6678348,126.002405 C64.5772888,122.425841 64.5546523,118.849276 64.5772888,115.272711 C64.6225618,110.632231 64.9621091,106.014388 65.4148388,101.396545 C65.5959307,99.5629894 65.7996591,97.7520705 66.2976618,95.9864246 C67.2257577,92.6814976 69.1045861,90.3952125 72.6811509,89.5123895 C76.4840806,88.5616571 80.2417373,87.950472 84.1578494,88.3126558 C84.6332156,88.3579287 85.1085818,88.2221098 85.583948,88.1542004 C85.674494,88.0183814 85.7424034,87.905199 85.8329494,87.7693801 C85.2444007,87.2713774 84.6105791,86.8186477 84.044667,86.2980085 C78.7024562,81.5669829 73.7903387,76.405864 69.285678,70.8825614 C67.1804847,68.3020019 65.4148388,65.4271682 63.5586469,62.6655169 C61.4534537,59.4964088 59.4614429,56.2367548 57.3109767,53.0902832 C56.8356105,52.3885521 55.9527876,52.0037318 55.2510565,51.4604562 C55.22842,51.2567278 55.2963295,50.7813616 55.1378741,50.6908156 C54.2324146,50.14754 53.3269552,49.4684454 52.3309498,49.2873535 C50.5200309,48.9704427 48.663839,48.9930792 46.8302836,48.8346238 C45.7210958,48.7214413 44.611908,48.5403495 43.5027201,48.3592576 C42.7557161,48.2460751 42.3482593,48.3139846 42.7104431,49.219444 C42.8236256,49.4910819 42.7104431,49.8759021 42.5972607,50.192813 C41.9634391,51.8679129 41.2843445,53.4977399 40.6731594,55.1728399 C39.6997905,57.7533994 38.794331,60.3792318 37.7756891,62.9597912 C36.9155027,65.1781668 35.9421337,67.328633 35.1724932,69.1621884 C35.4667675,70.0676479 35.7384054,70.6561965 35.8515878,71.2673816 C36.0100432,72.1275681 35.3762216,72.4671154 34.7197635,72.8519357 C32.7051162,74.0290329 30.4641041,73.8705775 28.2910014,74.0516694 C24.5786177,74.3685802 20.8662339,74.6402181 17.1538502,74.82131 C15.0939299,74.9118559 12.9661002,74.82131 11.4268192,73.100937 C11.0646354,72.7161167 10.8835435,72.0596586 10.860907,71.516383 C10.815634,71.0183803 11.0872719,70.5430141 11.8116394,70.6109235 C18.0819461,71.2221087 24.2843433,69.841283 30.5320135,69.841283 C30.7810149,69.841283 31.1658351,69.5243722 31.2563811,69.2527344 C33.0446635,63.6388858 34.8103094,58.0024007 36.5306824,52.3659156 C37.7304162,48.4498035 38.884877,44.5110549 40.0619742,40.5723063 C40.9447972,37.5842901 41.7144377,34.551001 42.6651702,31.5629848 C44.6345445,25.4058605 46.6491917,19.2487363 48.7317485,13.1142485 C49.410843,11.0996012 50.3615755,9.15286342 51.2443984,7.18348912 C51.5839457,6.43648507 51.4707633,6.02902832 50.5879403,6.00639183 C49.0939322,5.93848237 47.5999242,5.82529994 46.0832796,5.84793643 C43.1631729,5.8932094 40.2204296,5.98375535 37.3003229,6.07430129 C36.9155027,6.07430129 36.5533189,6.16484724 36.1684986,6.16484724 C34.3802162,6.18748372 32.5919338,6.21012021 30.8036514,6.23275669 C28.2457284,6.23275669 25.6878055,6.25539318 23.1298825,6.21012021 C20.1192299,6.18748372 17.1312137,6.14221075 14.120561,6.05166481 C12.9208272,6.00639183 11.653184,4.87456752 11.607911,3.7653797 C11.5852746,3.24474051 11.8342759,2.65619187 12.5133705,2.54300944 C14.2337435,2.2713716 15.9314799,1.88655134 17.6518529,1.75073242 C20.1871393,1.54700405 22.7450623,1.47909459 25.3029852,1.38854864 C27.5892703,1.32063918 29.8981919,1.36591216 32.184477,1.27536621 C36.5759554,1.11691081 40.9674337,0.8 45.358912,0.8 Z M198.992744,96.3259719 C199.513383,96.7560651 200.260387,96.9145205 200.848936,97.2767043 C202.524036,98.3179827 202.908856,100.174175 203.316313,101.826638 C203.995408,104.543016 204.10859,107.372577 203.972771,110.202138 C203.882225,112.126239 204.221772,114.050341 204.199136,115.974442 C204.153863,119.234096 203.950135,122.49375 203.904862,125.753404 C203.836952,129.329969 203.836952,132.906534 203.882225,136.505735 C203.904862,139.222113 204.063317,141.915855 204.085953,144.632233 C204.10859,145.447147 204.085953,146.307333 203.157858,146.760063 C202.976766,146.850609 202.931493,147.190156 202.750401,147.574977 C204.674502,147.688159 206.508057,147.778705 208.318976,147.869251 C212.008724,148.072979 215.721107,148.254071 219.410855,148.435163 C224.164517,148.661528 228.940815,148.797347 233.694477,149.091621 C237.293679,149.317986 240.847607,149.748079 244.446808,150.06499 C245.872907,150.200809 247.366915,150.1329 248.747741,150.495083 C249.789019,150.766721 250.87557,151.377906 251.667848,152.147547 C254.384226,154.796016 256.195145,158.010397 257.304333,161.654871 C259.930165,170.302009 260.60926,179.220784 260.767715,188.13956 C260.880897,194.681505 260.382895,201.223449 259.998074,207.765394 C259.816983,210.957138 258.798341,213.990427 256.851603,216.54835 C255.787688,217.929176 254.29368,218.925181 252.528034,219.355275 C252.007395,219.482039 251.486756,219.616952 250.965754,219.754582 L249.401301,220.170188 C247.835038,220.583078 246.262255,220.97152 244.673173,221.18883 C241.707794,221.596287 238.697141,221.596287 235.709125,221.709469 C232.766382,221.822652 229.846275,221.867925 226.903532,221.867925 C223.508059,221.867925 220.112586,221.777379 216.694476,221.686833 C215.087286,221.64156 213.502732,221.596287 211.918178,221.460468 C210.243078,221.302012 208.590614,220.962465 206.915514,220.871919 C204.900867,220.7361 202.863583,220.7361 200.826299,220.758737 C196.638549,220.80401 192.428163,220.871919 188.240413,220.962465 C185.048669,221.030375 181.856924,221.075647 178.687816,221.234103 C176.243075,221.347285 173.798335,221.57365 171.353594,221.754742 C168.61458,221.95847 165.898201,222.184835 163.159186,222.320654 C159.446803,222.501746 155.757055,222.705474 152.044672,222.750747 C149.056655,222.79602 146.046003,222.79602 143.080623,222.47911 C139.843606,222.139562 136.629224,221.415195 133.414843,220.80401 C132.328292,220.600281 131.966108,219.921187 132.034018,218.698816 C132.056654,218.336633 131.966108,217.951812 131.988745,217.589629 C132.056654,216.457804 132.962114,215.869256 134.048665,216.231439 C136.289677,216.955807 138.621235,217.227445 140.97543,217.250081 C144.733087,217.295354 148.490743,217.317991 152.225763,217.317991 C155.21378,217.340627 158.201796,217.3859 161.189812,217.295354 C162.75173,217.250081 164.291011,216.933171 165.852928,216.819988 C167.731757,216.684169 169.610585,216.661533 171.489413,216.570987 L172.290886,216.519347 L173.902321,216.373625 C174.170422,216.351696 174.437816,216.333304 174.703794,216.321985 C176.378894,216.231439 178.053994,216.16353 179.751731,216.095621 C183.034021,215.959802 186.338948,215.823983 189.621239,215.733437 C192.314981,215.642891 195.031359,215.869256 197.702464,215.529708 C202.320308,214.918523 206.847605,215.7108 211.420175,215.937165 C213.661187,216.050348 215.902199,216.503077 218.143211,216.593623 C220.225768,216.661533 222.308325,216.412531 224.413518,216.389895 C227.899537,216.321985 231.385556,216.367258 234.848938,216.231439 C239.647873,216.027711 244.469445,216.050348 249.177834,214.737431 C254.067315,213.379242 256.896876,210.549681 257.19115,205.614927 C257.598607,198.461798 257.847608,191.263395 257.711789,184.087629 C257.598607,178.700145 256.828966,173.312662 255.538687,168.03836 C254.701137,164.620251 253.433493,161.40587 251.283027,158.531036 C250.10593,156.969118 248.679831,156.244751 246.710457,156.199478 C245.08063,156.154205 243.473439,155.701475 241.843612,155.54302 C240.326968,155.407201 238.810323,155.429837 237.293679,155.339291 C233.581295,155.112927 229.891548,154.863925 226.179164,154.660197 C224.051334,154.547014 221.900868,154.501741 219.750402,154.433832 C219.591947,154.433832 219.456128,154.479105 219.297672,154.456469 C215.743744,153.86792 212.167179,154.026375 208.590614,153.890556 C203.769043,153.686828 198.924835,153.754737 194.103263,153.709464 C189.349601,153.686828 184.573302,153.754737 179.81964,153.664192 C177.193808,153.618919 174.567975,153.234098 171.942143,153.098279 C170.153861,153.007733 168.365578,153.075643 166.554659,153.098279 C162.185817,153.120916 157.839612,153.166189 153.47077,153.166189 C150.369572,153.166189 147.245737,152.985097 144.144538,153.143552 C141.473433,153.279371 138.8476,153.822647 136.176495,154.116921 C134.72776,154.275377 133.279025,154.275377 131.830289,154.456469 C131.128558,154.547014 130.4721,154.909198 129.793006,155.135563 C128.661181,155.497747 127.800995,155.067654 127.438811,153.935829 C127.302992,153.528373 127.031354,153.143552 126.963445,152.713459 C126.804989,151.785363 128.457453,150.042354 129.453458,149.974444 C129.928825,149.951808 130.426827,149.883898 130.85692,149.702806 C132.735749,148.955802 134.750396,149.22744 136.674497,148.865256 C142.220437,147.846615 147.834285,147.756069 153.425497,147.710796 C160.329626,147.642886 167.25639,147.823978 174.160519,147.801342 C178.325632,147.801342 182.490746,147.574977 186.655859,147.507067 C188.738416,147.484431 190.843609,147.642886 192.926166,147.55234 C194.329628,147.484431 195.778363,147.258066 197.136552,146.918519 C198.313649,146.624244 198.562651,145.582966 198.562651,144.496415 C198.562651,142.391221 198.540014,140.308665 198.517378,138.203471 C198.494741,134.106267 198.494741,129.986427 198.494741,125.889223 C198.494741,123.172845 198.517378,120.479103 198.426832,117.762724 C198.336286,115.725441 198.087285,113.710793 197.883556,111.67351 C197.498736,107.915853 197.181825,104.13556 196.683822,100.400539 C196.502731,99.1328962 195.823636,97.9331624 195.370906,96.7107922 C195.235087,96.4844273 195.144541,96.2580624 195.008722,95.9637881 C196.457458,95.6016043 197.747737,95.30733 198.992744,96.3259719 Z M85.8329494,153.166189 C79.90219,153.188825 73.9940671,153.369917 68.0633077,153.437827 C65.9581145,153.460463 63.8755577,153.302008 61.7703645,153.347281 C59.8236267,153.392554 57.8995254,153.664192 55.9527876,153.732101 L53.38581,153.788602 L48.251855,153.872266 C46.5405366,153.902327 44.8292182,153.940357 43.1178999,154.003739 C39.2244242,154.139558 35.3083121,154.433832 31.4148365,154.614924 C26.8875393,154.818652 22.3376055,154.999744 17.8103083,155.067654 C15.840934,155.135563 13.6678313,155.384564 12.1511867,153.596282 C11.6758205,153.86792 11.3136367,154.184831 10.90618,154.25274 C8.14452866,154.796016 6.19779084,158.033033 6.12988138,160.432501 C6.03933544,163.329971 6.03933544,166.227441 5.97142598,169.102275 C5.94878949,170.437828 5.81297057,171.77338 5.88088003,173.108933 C5.97142598,175.236763 6.35624624,177.364593 6.33360976,179.492422 C6.31097327,184.562995 6.08460841,189.656205 6.01669895,194.726778 C5.99406246,197.963795 6.08460841,201.200813 6.22042733,204.43783 C6.37888273,208.150214 6.62788408,211.862598 6.89952191,215.552345 C6.9221584,215.846619 7.30697866,216.276712 7.60125299,216.367258 C8.91416919,216.706806 10.2497219,217.023716 11.5852746,217.182172 C14.3469259,217.476446 17.1538502,217.499083 19.9155015,217.929176 C23.6957947,218.517725 27.4081784,219.332638 31.3016541,219.061 C33.311774,218.911599 35.3300432,218.957778 37.3466824,219.028404 L39.3624163,219.10084 C40.033905,219.123477 40.7048504,219.142492 41.3748904,219.151546 C44.0459958,219.196819 46.6944647,219.287365 49.3655701,219.242092 C55.0246916,219.151546 60.6838132,218.947818 66.3429347,218.834635 C69.987409,218.766726 73.6092468,218.744089 77.2537211,218.744089 C81.4188346,218.744089 85.583948,218.744089 89.726425,218.766726 C91.3336155,218.766726 92.9181696,218.834635 94.5253601,218.766726 C97.6039222,218.630907 100.682484,218.404542 103.761046,218.246087 C106.069968,218.132904 108.37889,218.178177 110.665175,218.042358 C113.177825,217.906539 115.690475,217.431173 118.203125,217.476446 C120.896867,217.544356 122.639876,216.072984 124.088611,214.262065 C126.306987,211.500414 127.461448,208.376579 127.099264,204.618922 C126.578625,199.367257 126.669171,194.070319 126.261714,188.818655 C125.763711,182.367256 125.06198,175.915857 124.428158,169.464459 C124.156521,166.589625 123.930156,163.692155 123.500062,160.817321 C123.296334,159.436495 122.979423,157.98776 121.689144,157.059664 C118.769037,154.977108 115.599929,153.777374 111.932818,154.116921 C111.66118,154.139558 111.389542,153.935829 111.095268,153.845283 C110.868903,153.754737 110.619902,153.618919 110.393537,153.618919 C106.681153,153.505736 102.946133,153.41519 99.2337492,153.347281 C94.7743615,153.256735 90.3149737,153.143552 85.8329494,153.166189 Z M54.2324146,10.0583229 C53.0100444,13.8159796 51.7424011,17.5283633 50.5426674,21.28602 C49.4787525,24.6588565 48.4601106,28.0316929 47.4414687,31.4271659 C46.988739,32.9438104 46.5812823,34.460455 46.2190985,35.9770996 C46.0153701,36.7920131 46.0380066,37.6974726 45.6984593,38.4444766 C44.6571809,40.6854887 44.0912688,42.9944103 43.9780864,45.3712414 C45.9700971,45.4844238 47.8941985,45.5976062 49.8409363,45.7107887 C50.7916687,45.7786981 51.7197646,45.9371535 52.6478606,45.95979 C54.3003241,45.9824265 55.7490592,46.5257022 56.9261565,47.680163 C57.8768889,48.6082589 58.8276213,49.5589913 59.7330808,50.5323602 C61.3176348,52.2527332 62.9021888,53.9731062 64.4414699,55.7161156 C64.8262902,56.1688453 65.1205645,56.6894845 65.5053848,57.1648507 C66.8635739,58.8625872 68.2670361,60.5150507 69.5799523,62.2354236 C71.6851455,64.9291655 73.5866103,67.7813628 75.8276225,70.3619222 C78.0686346,72.9424816 80.6039211,75.2287667 83.0033886,77.6735072 C84.2031224,78.8958775 85.3349467,80.1861572 86.557317,81.385891 C87.259048,82.087622 88.1192345,82.6308977 88.8436021,83.3326288 C90.0886088,84.5323626 91.1751601,85.8679152 92.4654399,86.9771031 C94.4800871,88.7201125 96.1325506,90.7121233 97.4001939,93.0436814 C98.5772911,95.262057 99.8222979,97.4577962 101.112578,99.6308989 C102.06331,101.238089 103.127225,102.77737 104.100594,104.339288 C107.699795,103.026372 111.095268,101.328635 115.124563,100.558995 C114.581287,101.079634 114.083284,101.441818 115.260381,101.532364 C113.724583,103.104729 111.867186,103.909195 109.988584,104.638436 L109.183046,104.948382 C107.84124,105.464013 106.510509,105.991752 105.300328,106.784029 C107.360248,110.971778 109.329622,115.114255 111.366906,119.347278 C113.132552,118.577638 114.694469,117.830634 116.30166,117.174176 C117.388211,116.721446 118.497399,116.585627 119.697133,117.106266 C122.458784,118.283364 123.635881,120.637558 124.337612,123.26339 C124.790342,124.915854 125.175162,126.6815 124.314976,128.333963 C124.088611,128.764057 123.45479,129.148877 122.956787,129.216786 C121.77969,129.329969 120.738411,127.541686 121.123231,126.341953 C121.757053,124.395215 121.462779,122.539023 120.353591,120.841286 C119.946134,120.207465 119.402858,119.709462 118.565308,120.026373 C116.68648,120.750741 114.807652,121.520381 112.793004,122.312658 C113.213396,123.137273 113.587591,123.881043 113.948587,124.601715 L114.377559,125.45913 C115.328291,127.315322 116.211114,129.216786 117.229756,131.027705 C117.546667,131.593617 118.203125,132.023711 118.769037,132.385894 C120.059317,133.200808 121.553325,133.31399 123.047333,133.336627 C125.51471,133.3819 126.804989,132.54435 127.076627,130.552339 C127.18981,129.692153 127.302992,128.80933 127.18981,127.97178 C126.804989,125.187492 126.397533,122.425841 125.854257,119.664189 C125.288345,116.744082 124.60925,113.846612 123.952792,110.949142 L123.884175,110.701555 L123.704498,110.22336 C123.67691,110.142717 123.652859,110.06066 123.635881,109.975773 C122.209783,101.487091 118.112579,93.9265043 114.988744,86.0490071 C113.517372,82.3366234 112.793004,78.5110572 112.544003,74.5723086 C112.49873,73.6894857 112.815641,72.6029343 113.33628,71.8785668 C114.785015,69.886556 116.30166,67.8945452 118.022033,66.1515357 C119.470768,64.6801641 121.168504,63.3672479 122.956787,62.3259696 C125.559983,60.7866885 128.547999,60.6735061 131.468106,60.7414155 L131.564185,60.7430737 L131.867049,60.7435934 C132.697405,60.7455733 133.670312,60.809325 133.844937,62.3033331 C133.137032,62.5338137 132.413413,62.7366067 131.6851,62.935386 L130.95563,63.1337042 C127.913055,63.9617623 124.852764,64.8571403 122.571967,67.5323614 C122.911514,67.5323614 123.137879,67.5776344 123.341607,67.5323614 C128.502726,66.5589925 133.663845,65.4950776 138.8476,64.6348912 C142.854258,63.9784331 146.928826,63.7520682 150.980757,64.3406168 C151.931489,64.4764358 152.904858,64.7480736 153.765045,65.1781668 C154.172501,65.3818952 154.625231,66.3779006 154.489412,66.5589925 C154.104592,67.0343587 154.172501,67.8719087 153.063313,67.8945452 C149.011382,67.9398182 144.936815,67.8719087 140.952793,68.4151844 C135.225762,69.1848249 129.521368,70.3166492 123.884883,71.561656 C121.847599,72.0143857 119.968771,73.2367559 118.067306,74.1648519 C117.773031,74.3233073 117.456121,74.8892194 117.501394,75.2514032 C117.659849,76.8133208 117.795668,78.3978748 118.225761,79.8918829 C118.882219,82.223441 119.697133,84.5323626 120.557319,86.8186477 C120.738411,87.3392869 121.32696,88.0636544 121.734417,88.0862909 C125.084617,88.1768368 128.41218,88.1315639 131.76238,88.0636544 C133.165842,88.0410179 134.569304,87.905199 136.221768,87.7920166 C134.999397,86.2527355 134.026029,84.8719099 132.916841,83.6042666 C131.287014,81.7480748 129.24973,80.2314302 128.276361,77.8545991 C128.117906,77.4697789 128.072633,76.7680478 128.298998,76.5643194 C128.615908,76.2926816 129.295003,76.1342262 129.70246,76.2926816 C130.358918,76.5416829 130.970103,76.9944126 131.445469,77.4924153 C133.075296,79.1675153 134.705123,80.8426153 136.176495,82.6535342 C137.1725,83.8985409 138.032687,85.3020031 138.666508,86.7507382 C138.960783,87.4524693 139.23242,87.7241071 139.888879,87.6788341 C143.646535,87.4751058 147.381555,87.2487409 151.139212,87.0450125 C152.135218,86.9997396 153.153859,86.9318301 154.421503,86.8639206 C153.742408,86.0263707 153.312315,85.3020031 152.723766,84.7587274 C150.279026,82.4045329 147.834285,80.0729748 145.321635,77.8093261 C144.883668,77.4156481 144.420027,77.0455052 143.951176,76.6807577 L143.106039,76.026121 C141.702836,74.931711 140.363261,73.7879052 139.639877,72.1049316 C139.75306,71.6748384 139.866242,71.3126546 140.047334,70.678833 C140.5227,70.8146519 141.201795,70.8146519 141.654524,71.1315627 C147.789012,75.2061302 153.199132,80.0956113 157.65852,85.9584612 C158.088613,86.5243733 158.518707,86.6601923 159.175165,86.6601923 C164.109919,86.6601923 169.044673,86.7281017 173.979427,86.7507382 C176.990079,86.7733747 179.978086,86.7507382 182.988748,86.7507382 C183.034021,86.6149193 183.079294,86.4791004 183.124567,86.3432815 C182.762383,85.8000058 182.4002,85.2340936 182.038016,84.690818 C179.253728,80.5709775 176.492077,76.451137 173.707789,72.353933 C171.489413,69.094279 169.271038,65.8346249 167.030025,62.5976074 C165.241743,60.017048 163.385551,57.504398 160.782355,55.6708426 C156.504059,52.6601899 151.79567,50.5097238 146.83828,48.8346238 C142.243073,47.2727062 137.647866,45.7107887 133.188479,43.8093238 C127.823631,41.5230387 122.61724,38.8972063 117.365575,36.3392834 C112.317638,33.8719064 107.337611,31.3139834 102.334948,28.7560605 C99.686479,27.3978713 97.0153736,26.0849551 94.4574506,24.5456741 C88.979421,21.2407471 83.6372102,17.7094552 78.1139076,14.4950742 C75.3748928,12.8878836 72.454786,11.2806931 69.3988604,10.5789621 C65.097928,9.56032017 60.5932672,9.42450125 56.2017889,8.81331612 C55.0699646,8.65486072 54.5493254,9.06231747 54.2324146,10.0583229 Z" id="Combined-Shape" fill="#000000" fill-rule="nonzero"></path>
    </g>
</svg>