<?xml version="1.0" encoding="UTF-8"?>
<svg width="431px" height="381px" viewBox="0 0 431 381" version="1.1" xmlns="http://www.w3.org/2000/svg" xmlns:xlink="http://www.w3.org/1999/xlink">
    <title>Combined Shape</title>
    <g id="Page-1" stroke="none" stroke-width="1" fill="none" fill-rule="evenodd">
        <path d="M148.775962,79.3442227 C149.219378,83.1523877 150.749265,86.560274 152.334869,89.9439677 L152.836236,91.012137 C153.253581,91.902339 153.667271,92.7936072 154.058521,93.6927954 C156.44995,99.1895123 158.769992,104.757615 160.875877,110.397104 C161.946666,113.252541 162.58914,116.25075 163.410078,119.213267 C165.230419,125.923544 166.765217,132.740901 168.871102,139.3441 C169.763426,142.128151 171.61946,144.698045 173.439802,147.089474 C175.188757,149.338131 177.437414,151.265551 179.543299,153.228664 C183.755069,157.226276 188.57362,160.367257 194.070337,162.366064 C197.532554,163.65101 201.030465,164.186405 204.706841,163.258388 C207.562278,162.544528 210.346329,161.652204 213.130381,160.688494 C217.770467,159.118004 221.910851,156.690882 225.979849,154.228067 C230.584242,151.444016 235.045863,148.231649 238.044072,143.520177 C239.007782,142.021072 240.078571,140.557661 241.006588,139.022863 C241.14936,138.773013 240.79243,138.273311 240.863816,137.952074 C241.577675,135.453567 242.362921,133.026445 243.041087,130.527937 C243.826332,127.743886 244.468806,124.959834 245.289744,122.211476 C245.503902,121.426231 246.039296,120.676678 246.610384,120.105591 C247.64548,119.141881 248.859041,118.356635 249.92983,117.464311 C252.749574,115.072883 253.927442,111.860516 254.569915,108.362605 C255.319468,104.472071 255.783476,100.581538 254.1416,96.7980835 C253.499126,95.3346718 252.749574,93.8712602 251.714478,92.6933923 C249.501514,90.2305776 247.145778,90.5518143 244.004797,93.5143305 C242.684157,94.7635844 241.898912,96.7623905 241.292132,98.5827318 C240.506886,100.831389 239.043475,101.68802 236.901897,100.652924 C234.974477,99.7249068 234.474775,97.5476358 235.688336,95.2632859 C236.366502,94.0140321 236.866204,92.6933923 237.651449,91.5155244 C238.436694,90.3733495 239.257633,89.1240956 240.399808,88.3745433 C245.039893,85.3763341 251.107698,85.9117286 255.676397,89.1240956 C260.459255,92.4792345 262.636526,97.2620921 262.779298,102.65173 C262.854253,105.275163 262.212137,107.951065 261.501811,110.605979 L261.195101,111.7423 C260.990366,112.498706 260.78763,113.252541 260.602027,114.002094 C259.210001,119.391732 254.676994,121.854546 250.251066,124.638598 C251.363497,126.209088 251.15628,127.899547 250.811599,129.600003 L250.715075,130.063929 L250.336116,131.842651 L249.56816,135.395078 C248.930984,138.354736 248.314723,141.316136 247.823945,144.305422 C247.359936,147.053781 248.644883,149.552288 250.215373,151.765252 C250.500917,152.193568 251.179084,152.479112 251.714478,152.514805 C253.356355,152.69327 255.033924,152.621884 256.6758,152.800348 C258.139212,152.94312 259.638317,153.121585 261.030342,153.585594 C264.135631,154.656383 265.063648,156.405338 264.385481,159.653398 C263.814394,162.366064 263.600236,165.043036 265.027955,167.61293 C265.527656,168.540947 266.134437,169.004955 267.169533,168.57664 C268.383094,168.076938 269.66804,167.755702 270.774522,167.041842 C274.379512,164.721799 278.662668,165.828281 281.054097,168.826491 C282.803052,171.039455 284.552008,173.39519 287.443138,174.287515 C288.478234,174.608751 289.691795,174.894295 290.726891,174.644444 C294.189109,173.859199 297.544247,172.78841 300.22122,170.182823 C304.004674,166.506448 307.966594,162.972844 309.822628,157.761671 C310.108172,156.976426 310.786338,156.298259 311.178961,155.548707 C311.857127,154.26376 312.642372,153.121585 314.284249,153.549901 C315.854739,153.942523 316.782757,155.084698 317.139686,156.619496 C317.853546,159.724784 316.46152,162.330371 314.891029,164.793185 C311.393119,170.218516 307.217042,175.001374 301.54186,178.32082 C301.149237,178.534978 300.863693,178.9276 300.57815,179.177451 C303.933289,180.819327 307.181349,182.496897 310.500794,183.996002 C312.035592,184.674168 313.748854,185.031098 315.390731,185.495106 C321.101606,186.994211 326.776787,188.743166 331.916575,191.705682 C336.699432,194.454041 341.303825,197.380864 345.158665,201.521248 C351.512013,208.374298 356.544722,216.048286 360.97065,224.186282 C363.647622,229.111912 366.110437,234.14462 368.537559,239.213021 C370.821908,243.995879 372.999179,248.885815 375.105064,253.740059 C376.390011,256.702575 377.4608,259.736477 378.567282,262.770379 C378.78144,263.412853 378.710054,264.162405 378.745747,264.840571 C378.745747,264.94765 378.710054,265.126115 378.745747,265.161808 C381.137176,267.303386 381.101483,270.408674 381.993807,273.157033 C382.422123,274.513365 382.63628,275.976777 383.207368,277.226031 C384.420929,279.938696 383.814148,282.794134 384.135385,285.542492 C384.206771,286.256352 385.099095,287.362834 385.741569,287.469912 C388.292881,287.800082 389.481179,289.594231 390.516346,291.387762 L390.744354,291.785719 L390.978338,292.194058 C391.017331,292.261572 391.056366,292.328761 391.095514,292.395542 C394.950354,299.10582 396.449459,306.56565 397.627327,314.096866 C398.412572,319.058188 398.912273,324.01951 398.019949,328.980833 C397.841484,329.90885 397.555941,330.801174 397.199011,331.657805 C396.306687,333.942155 394.129416,333.15691 392.344767,333.549533 C398.019949,347.541176 393.7011,358.855846 382.600587,368.671412 C385.099095,368.778491 387.383445,368.956956 389.667795,368.992649 C393.308478,368.992649 396.94916,368.956956 400.55415,368.814184 C405.158543,368.671412 409.762935,368.421561 414.367328,368.207403 C417.294151,368.064632 420.220975,368.028939 423.147798,367.779088 C424.361359,367.672009 425.610613,367.279386 426.717095,366.779685 C428.715901,365.923054 431.392873,368.028939 430.821786,370.348981 C430.679014,370.955762 430.643321,371.633928 430.536242,372.454866 C427.573726,372.811796 424.504131,373.311498 421.470228,373.525655 C415.366731,373.953971 409.298927,374.275208 403.195429,374.560752 C399.197817,374.774909 395.164512,374.953374 391.1669,374.953374 C387.026515,374.989067 382.886131,374.703523 378.745747,374.703523 C374.605363,374.703523 370.500672,374.774909 366.360288,374.917681 C362.434061,375.02476 358.472142,375.167532 354.545916,375.345997 C352.297259,375.453076 350.048602,375.702926 347.799945,375.845698 C341.089667,376.274014 334.379389,376.70233 327.669112,377.094952 C322.672096,377.380496 317.639388,377.808811 312.642372,377.808811 C306.931498,377.808811 301.220623,377.237724 295.509748,377.202031 C288.442541,377.130645 281.339641,377.344803 274.272433,377.523268 C265.45627,377.737426 256.604415,378.165741 247.788252,378.344206 C238.25823,378.522671 228.728207,378.558364 219.198185,378.522671 C211.738355,378.522671 204.278525,378.344206 196.818695,378.201434 C187.681296,378.022969 178.579589,377.701733 169.442189,377.594654 C163.695622,377.523268 157.984747,377.737426 152.238179,377.737426 C143.600481,377.773119 134.962783,377.701733 126.360778,377.773119 C114.582099,377.880197 102.839113,377.844504 91.0604343,378.237127 C81.4947191,378.594057 71.964697,379.664846 62.3989819,380.093161 C56.937958,380.343012 51.476934,379.914697 46.0159101,379.986082 C43.6125837,380.009878 41.2052913,380.073332 38.7966771,380.144718 L33.9784693,380.288665 C30.7662002,380.379146 27.5547145,380.446125 24.3502792,380.414398 C19.0677201,380.378705 13.785161,379.986082 8.53829491,379.486381 C5.61147162,379.200837 3.14865691,377.737426 0.9,374.953374 C3.82682328,374.739216 6.18255909,374.41798 8.57398787,374.382287 C18.3538608,374.239515 28.1337337,374.203822 37.9136066,374.132436 C46.158682,374.06105 54.4037573,374.096743 62.6488327,373.989664 C65.7541208,373.953971 68.8594089,373.668427 72.1074689,373.311498 C68.75233,372.240709 68.6452511,368.992649 67.4316902,366.60122 C64.6119458,361.06881 62.0063592,355.393628 59.4721586,349.75414 C57.4019665,345.114054 55.5816252,340.366889 53.5471261,335.726804 C51.54832,331.158104 49.371049,326.696483 47.3722428,322.09209 C46.122989,319.236653 45.2306648,316.238444 44.0527969,313.383006 C42.874929,310.634648 41.4115174,308.029061 40.2336495,305.280703 C37.2711332,298.463346 34.4870818,291.538911 31.5245656,284.721554 C28.9903649,278.9036 26.2776994,273.192726 23.6721129,267.410465 C22.1016223,263.98394 20.4597458,260.557415 19.1034131,257.059505 C17.8184663,253.597287 17.1046069,249.849525 17.8898522,246.280229 C18.5680186,243.174941 20.8880614,240.676433 23.9933496,239.3201 C25.9921557,238.427776 28.0266548,237.535452 30.1325399,236.928671 C31.2033289,236.607435 32.4525827,236.928671 33.5947576,237.03575 C34.5584677,237.107136 35.5221778,237.464066 36.4858879,237.428373 C47.6220936,237.071443 58.7582993,236.714514 69.9301979,236.286198 C72.6428634,236.179119 75.3555288,235.71511 78.1038873,235.572339 C84.1003057,235.215409 90.0967242,235.036944 96.0574496,234.608628 C105.052077,233.966155 114.046705,233.145217 123.077026,232.395665 C124.611823,232.252893 126.146621,232.074428 127.681418,232.110121 C129.644531,232.110121 130.572549,231.075025 131.286408,229.397455 C133.570758,223.972124 137.461291,219.83174 141.78014,215.9769 C147.915931,210.551569 154.665301,206.002779 161.499543,201.590341 L163.659929,200.200608 C167.907392,197.45225 172.297627,194.989435 176.616476,192.348156 L176.97893,192.125738 L177.710756,191.684444 C178.686668,191.094477 179.647133,190.485632 180.39993,189.706876 C183.683683,186.351737 187.538524,183.817537 191.500443,181.390415 C192.678311,180.676556 193.106626,179.748538 193.213705,178.356513 C193.534942,174.787216 193.39217,171.324998 191.536136,168.148324 C191.250592,167.648623 190.750891,167.077535 190.251189,166.863377 C180.863939,163.258388 172.904407,157.618899 166.372594,150.016297 C161.910973,145.054975 160.162018,139.022863 159.055536,132.598129 L158.527407,129.584247 C157.379553,123.052244 156.183442,116.514878 154.451143,110.11156 C152.987732,104.721922 150.881847,99.475056 147.776559,94.6565055 C146.777156,93.0860149 146.634384,90.837358 146.491612,88.8385519 C146.34884,86.3757372 146.598691,83.9129225 146.741463,81.4501077 C146.812848,80.129468 147.31255,79.6297664 148.775962,79.3442227 Z M145.242358,236.821592 C136.925897,237.107136 128.573742,236.785899 120.292974,237.321294 C104.409604,238.320697 88.5619266,239.998266 72.7142493,240.854898 C64.7980592,241.290862 56.8523677,241.37281 48.9056226,241.42315 L43.6079486,241.455565 C40.9593458,241.472969 38.3113283,241.494822 35.6649497,241.533064 C34.8797044,241.533064 34.0944592,241.104748 33.3092139,240.890591 C32.9522842,240.783512 32.4882757,240.497968 32.2027319,240.605047 C30.0968469,241.390292 27.8838829,242.032766 25.9921557,243.210634 C24.9570597,243.817414 23.9576566,245.316519 23.8862707,246.494386 C23.7434988,248.957201 23.7078058,251.598481 24.5287441,253.847138 C26.3847783,258.951232 28.8119001,263.841168 30.9891711,268.838184 C31.3461007,269.659122 31.7744163,270.444367 32.167039,271.229612 C34.3443099,275.441383 36.6286598,279.581767 38.627466,283.864923 C40.5191932,287.933921 42.0182978,292.145691 43.8029462,296.286075 C47.5864006,305.102238 51.4412411,313.847015 55.2960815,322.627485 C56.1527127,324.554905 56.902265,326.518018 57.7945892,328.445438 C59.1152289,331.300876 60.6143335,334.084927 61.8635874,336.976057 C64.1836302,342.401388 66.3252082,347.898105 68.6452511,353.323436 C71.1080658,358.962925 73.7493453,364.531028 76.247853,370.170517 C77.4257209,372.847489 78.6035888,373.561348 81.4590262,373.418577 C91.1675132,372.918875 100.876,372.312095 110.584487,372.13363 C121.042526,371.955165 131.536259,372.276402 141.994298,372.276402 C149.168584,372.276402 156.342871,372.026551 163.517157,372.097937 C174.189354,372.169323 184.861551,372.419174 195.569441,372.633331 C200.566457,372.74041 205.527779,373.09734 210.524794,373.061647 C216.48552,373.025954 222.481938,372.633331 228.442664,372.561945 C236.794818,372.490559 245.111279,372.704717 253.463433,372.597638 C255.779015,372.557484 258.089577,372.447059 260.398884,372.319066 L265.01694,372.055273 C267.326247,371.92728 269.636809,371.816855 271.95239,371.7767 C282.267658,371.562542 292.582925,371.562542 302.898193,371.455463 C304.436956,371.4396 305.975719,371.432549 307.514483,371.428045 L312.130773,371.415902 C315.977682,371.401704 319.824591,371.364248 323.671499,371.205613 C330.274698,370.920069 336.877897,370.241903 343.481096,369.777894 C345.979604,369.599429 348.442418,369.563736 350.940926,369.385271 C351.297856,369.349578 351.940329,368.671412 351.906063,368.385868 C351.512013,365.173501 351.262163,361.889748 350.476917,358.748767 C349.763058,355.929023 348.727962,355.5364 345.872525,355.714865 C337.484677,356.25026 329.09683,356.821347 320.708983,357.285356 C316.318748,357.535206 311.928513,357.499513 307.538278,357.856443 C302.8625,358.249066 298.222414,359.14139 293.582328,359.426934 C283.945227,360.069407 274.308126,360.46203 264.671025,360.961731 C261.173114,361.140196 257.639511,361.390047 254.1416,361.497126 C251.964329,361.568512 249.751365,361.390047 247.574094,361.497126 C245.539595,361.604205 243.647868,361.461433 242.11307,359.819556 C242.969701,362.603608 243.862025,365.387659 244.718657,368.17171 C244.575885,368.278789 244.433113,368.421561 244.290341,368.52864 C243.790639,368.243096 243.183859,368.028939 242.862622,367.636316 C242.362921,366.993843 242.11307,366.172904 241.75614,365.423352 C241.577675,365.066422 241.437134,364.693877 241.30217,364.319101 L241.14082,363.869155 C240.788058,362.895665 240.38553,361.943288 239.364712,361.247275 C238.151151,360.426337 238.472387,358.962925 239.82872,358.141987 C238.936396,356.928426 237.972686,355.786251 237.223134,354.465611 C236.93759,353.96591 236.473581,353.430515 237.116055,352.395419 C237.936993,351.039086 236.116652,351.32463 235.509871,351.253244 C235.509871,350.646464 235.688336,350.075376 235.474178,349.682754 C235.045863,348.826122 234.260617,348.07657 233.939381,347.184246 C233.582451,346.256229 233.760916,345.18544 233.439679,344.22173 C232.904285,342.615546 232.333197,340.937977 231.476566,339.474565 C229.977461,336.868979 230.263005,333.478147 227.80019,331.300876 C227.621725,331.158104 227.728804,330.658402 227.728804,330.337166 C227.728804,329.730385 227.907269,329.052219 227.693111,328.516824 C226.443858,324.983221 225.123218,321.48531 223.766885,317.951706 C222.98164,315.917207 222.053623,313.989787 221.375456,311.919595 C220.625904,309.706631 220.197588,307.386588 219.483729,305.173624 C218.484326,301.99695 217.342151,298.855969 216.235669,295.714988 C213.166074,286.791746 211.381426,277.404496 206.884112,268.945263 C206.063173,267.410465 205.527779,265.66151 204.956691,263.98394 C204.635455,263.055923 204.599762,262.020827 204.349911,260.664494 C205.099463,261.057117 205.4207,261.342661 205.599165,261.271275 C207.584905,260.441413 208.290922,261.580356 208.841149,262.869376 L208.94945,263.128642 L209.059006,263.397041 C209.095386,263.486249 209.131749,263.575001 209.168462,263.662704 C210.132172,265.875667 211.131575,268.124324 211.952513,270.408674 C215.236266,279.546074 218.591405,288.683473 221.696693,297.892259 C223.94535,304.638229 225.694305,311.562665 227.942962,318.344329 C232.261811,331.479341 236.759125,344.542966 241.185053,357.642285 C241.327825,358.034908 241.577675,358.427531 241.75614,358.713074 C242.005991,357.999215 242.11307,356.928426 242.541386,356.749961 C243.398017,356.416827 244.318102,356.242328 245.248763,356.08898 L246.180991,355.937591 C246.336297,355.911837 246.491407,355.885398 246.646077,355.857637 C247.538401,355.714865 248.466418,355.643479 249.858444,355.5364 C249.251663,353.537594 248.823348,351.860025 248.25226,350.182455 C246.503305,345.18544 244.647271,340.188424 242.898315,335.191409 C242.362921,333.620919 242.148763,331.979042 241.649061,330.408552 C240.042878,325.482922 238.365308,320.557293 236.759125,315.631663 C234.867398,309.778017 233.154135,303.888677 231.119636,298.070724 C228.085734,289.468719 224.766288,280.938099 221.661,272.371787 C218.698484,264.198098 215.450424,256.16718 209.596777,249.492596 C206.562875,245.994685 203.350508,242.746625 198.92458,241.104748 C192.963855,238.891785 186.717585,238.070846 180.435623,237.642531 C168.72833,236.857285 156.985344,236.393277 145.242358,236.821592 Z M323.421648,323.162879 C322.565017,324.233668 321.422842,324.340747 320.06651,324.162282 C317.889239,323.876739 315.640582,323.41273 313.534697,323.76966 C305.967788,325.090299 298.400879,326.625097 290.869663,328.231281 C282.838745,329.980236 274.843521,332.050428 266.77691,333.727997 C262.957763,334.513243 259.031536,334.691708 255.176696,335.227102 C253.42774,335.476953 251.678785,336.012347 249.894137,336.440663 C250.750768,338.832092 251.464627,340.830898 252.142794,342.829704 C253.570512,346.970088 254.926845,351.110472 256.42595,355.215163 C256.568722,355.607786 257.38966,356.071795 257.817975,356.000409 C260.352176,355.643479 262.886377,354.965313 265.420577,354.715462 C272.66625,354.037296 279.947615,353.60898 287.22898,352.966507 C289.691795,352.752349 292.118917,352.28834 294.546038,351.931411 C294.581731,352.109875 294.617424,352.252647 294.617424,352.431112 C293.814332,352.59173 292.993394,352.743426 292.163533,352.890659 L291.219,353.055627 L298.969983,352.433756 C314.491466,351.192764 330.01295,349.968297 345.658367,348.719044 C345.265744,348.540579 344.944507,348.362114 344.658964,348.183649 C346.407919,348.504886 348.371032,348.826122 349.513207,349.968297 C351.262163,351.717253 352.939732,353.858831 353.724977,356.178874 C354.902845,359.605398 355.473933,363.317467 355.937941,366.95815 C356.152099,368.671412 356.865958,369.313885 358.293677,369.278192 C359.685703,369.242499 361.149114,369.206806 362.434061,368.742798 C364.968262,367.743395 367.431077,366.529834 369.858198,365.28058 C373.106258,363.603011 376.568476,362.139599 379.423913,359.926635 C386.705279,354.251453 391.024128,347.041474 389.346558,337.297294 C388.739778,333.870769 388.775471,333.870769 385.206174,333.335375 C384.563701,333.228296 383.921227,333.085524 383.278754,333.121217 C378.745747,333.263989 374.319819,332.55013 369.929584,331.372262 C362.683912,329.444841 355.43824,327.6245 348.121182,326.05401 C342.707748,324.915801 337.251131,323.97192 331.784917,323.054429 L327.098024,322.270555 C325.84877,322.056397 324.456744,321.877932 323.421648,323.162879 Z M291.219,353.055627 L289.656102,353.180664 L289.656102,353.323436 C290.075494,353.25205 290.494887,353.180664 290.913163,353.108721 L291.219,353.055627 Z M292.047531,183.674765 C289.51333,185.637878 287.728682,187.065597 285.90834,188.457622 C284.552008,189.492718 283.159982,190.456429 281.875035,191.527218 C279.947615,193.169094 278.305738,195.203593 276.199853,196.559926 C274.879214,197.416557 273.87981,198.451653 272.773328,199.486749 C268.847102,203.270204 264.84949,207.053658 260.530641,210.373104 C256.997037,213.085769 252.963732,215.155962 249.073199,217.368926 C246.574691,218.796644 243.933411,220.010205 241.292132,221.223766 C239.685948,221.937625 238.008379,222.829949 236.330809,222.901335 C235.416177,222.938516 234.499996,222.998933 233.58291,223.060965 L232.482016,223.134793 C229.36182,223.338326 226.234161,223.460525 223.124412,222.651485 C220.233281,221.901932 217.235072,221.652082 214.379635,220.759757 C208.847225,219.046495 203.743131,216.369522 199.245817,212.72884 C193.927565,208.481377 188.57362,204.233914 184.504621,198.665811 C183.540911,197.380864 182.541508,196.381461 180.721167,197.630715 C178.258352,199.343977 175.688459,200.914468 173.118565,202.520651 C170.227435,204.3053 167.264918,206.054255 164.338095,207.838903 C161.768202,209.409394 159.055536,210.80142 156.664107,212.586068 C153.558819,214.906111 150.667689,217.54739 147.812252,220.117284 C145.670674,222.044704 143.600481,224.114896 141.565982,226.185088 C140.245343,227.541421 139.103168,229.040526 137.9253,230.503937 C137.746835,230.860867 137.496984,231.25349 137.068669,231.895963 C141.637368,231.895963 145.884831,231.824577 150.132294,231.895963 C162.125131,232.145814 174.117968,232.288586 186.075112,232.788287 C192.928162,233.073831 199.781211,233.930462 206.313024,236.321891 C206.463728,236.377413 206.619719,236.424123 206.777082,236.467894 L207.249365,236.596271 C207.639833,236.7057 208.014389,236.83349 208.31183,237.071443 C209.099931,237.662519 209.908591,238.222756 210.716099,238.783239 L211.52242,239.344956 C213.801352,240.943245 216.012945,242.626697 217.663388,245.102361 C219.412343,247.707947 221.553921,250.02799 223.053026,252.883428 L223.747435,254.221008 C225.360241,257.341702 226.894481,260.472645 227.80019,263.876861 C228.085734,264.94765 228.085734,266.054132 228.442664,267.089228 C229.584839,270.658525 230.869785,274.156436 232.01196,277.725732 C232.583048,279.474688 232.797206,281.295029 233.403986,283.008292 C235.295713,288.433623 237.437291,293.787568 239.150554,299.248591 C241.185053,305.709018 242.71985,312.34791 244.790042,318.808337 C245.860831,322.09209 245.860831,325.69708 248.145181,328.695289 C249.180277,330.015929 250.036909,329.873157 251.107698,329.730385 C252.856653,329.480534 254.569915,329.016526 256.318871,328.623903 C263.850087,326.982027 271.416996,325.375843 278.948212,323.662581 C284.373543,322.413327 289.798874,321.056994 295.188512,319.55789 C299.471668,318.380022 303.683438,317.023689 307.895208,315.667356 C308.394909,315.524584 308.858918,314.846418 309.037383,314.311023 C310.219369,310.966867 310.050831,307.529571 309.829454,304.09317 L309.765886,303.111447 C309.734504,302.620679 309.704567,302.130112 309.679856,301.64002 C309.430005,296.143303 309.037383,290.610893 308.716146,285.114177 C308.680453,284.685861 308.716146,284.293238 308.716146,283.864923 C309.037383,277.975583 307.823822,272.300401 305.039771,267.232 C301.756018,261.235582 298.936273,255.132084 297.294397,248.564579 C296.378277,244.900101 295.656486,241.192439 294.961085,237.47518 L294.367573,234.287392 C294.046337,232.502743 295.65252,230.89656 297.151625,231.539033 C299.079045,232.395665 300.899386,233.537839 301.506167,235.822189 C301.720325,236.678821 301.898789,237.535452 302.14864,238.35639 C303.754824,243.674642 305.325314,248.992894 307.002884,254.275453 C308.609067,259.272469 310.286637,264.233791 311.999899,269.195113 C313.21346,272.657331 314.462714,276.119549 315.783354,279.546074 C316.996914,282.794134 318.38894,285.970808 319.566808,289.218868 C320.244974,291.110595 320.67329,293.109401 321.208685,295.001128 C326.705401,294.037418 331.73811,293.21648 336.735125,292.324156 C342.410307,291.28906 348.014103,289.932727 353.724977,289.254561 C360.899264,288.362237 368.109243,288.041 375.319222,287.398526 C375.997389,287.327141 377.175257,286.791746 377.175257,286.434816 C377.175257,284.507396 377.246642,282.437204 376.675555,280.652556 C375.105064,275.726926 373.356109,270.872683 371.392996,266.089825 C367.359691,256.274259 363.254999,246.494386 358.93615,236.821592 C354.72438,227.362956 349.370435,218.5111 343.159859,210.230332 C340.625658,206.875193 338.091458,203.59144 334.165231,201.521248 C330.667321,199.665214 327.597726,197.09532 324.135508,195.203593 C321.137299,193.59741 317.889239,192.383849 314.641179,191.241674 C306.860112,188.529008 299.043352,185.994808 292.047531,183.674765 Z M378.317431,294.108804 C375.854617,294.287269 373.391802,294.679892 370.928987,294.929742 C364.718411,295.50083 358.472142,295.893453 352.261566,296.571619 C349.084892,296.928549 345.979604,297.749487 342.838622,298.284881 C334.700626,299.605521 326.56263,300.890468 318.38894,302.139722 C317.318151,302.282494 316.854143,302.675116 316.639985,303.710212 C316.10459,306.244413 315.49781,308.778614 314.855336,311.312814 C314.427021,312.990384 315.105187,313.525778 316.639985,313.739936 C322.565017,314.560874 328.525743,315.381812 334.415082,316.381216 C342.053377,317.701855 349.727365,319.058188 357.329967,320.628679 C363.826087,321.949318 370.286514,323.662581 376.782634,325.018914 C381.244255,325.982624 385.812955,326.66079 390.667198,327.481728 C391.880759,325.732773 393.237092,323.733967 393.130013,321.12838 C392.844469,313.204542 391.630908,305.423475 389.061014,297.856566 C388.275769,295.572216 386.5982,294.358655 384.31385,294.108804 C382.315044,293.894646 380.316238,293.966032 378.317431,294.108804 Z M140.173957,286.756053 C143.993104,287.362834 147.633787,288.754859 150.953233,290.789358 C155.093617,293.359252 157.734896,296.892856 158.305984,301.889871 C158.769992,305.85179 158.234598,309.670938 156.592721,313.240234 C154.736687,317.27354 151.738478,320.307442 147.847945,322.520406 C142.351228,325.661387 136.640353,325.233071 130.751013,324.01951 C126.967559,323.234265 123.576727,321.699468 120.685597,319.379425 C118.758177,317.844627 117.47323,315.488891 116.009818,313.418699 C111.655276,307.279509 113.118688,299.141513 119.257878,292.395542 C121.185298,290.289657 123.291183,289.754262 125.789691,289.825648 C126.396471,289.825648 127.502953,290.253964 127.538646,290.575201 C127.645725,291.28906 127.395875,292.324156 126.896173,292.752471 C124.469051,294.786971 122.934254,297.392557 121.506535,300.140916 C119.543422,303.92437 119.793273,307.779211 121.149605,311.526972 C122.755789,315.988593 128.752207,319.664969 133.463679,319.55789 C137.175747,319.486504 140.852123,319.165267 143.814639,316.595373 C145.38513,315.203348 146.812848,313.632857 148.311953,312.133752 C148.668883,311.74113 149.061505,311.348507 149.347049,310.920192 C149.918137,309.956482 150.774768,309.028464 150.953233,307.993368 C151.345855,305.566247 152.702188,303.31759 152.059715,300.640617 C151.131697,296.678698 148.883041,294.001725 145.206665,292.538314 C143.314938,291.788761 141.280439,291.360446 139.317325,290.789358 C139.036243,290.709049 138.753488,290.634317 138.47143,290.559097 L138.049162,290.445143 C136.224167,289.943184 134.478698,289.292485 133.463679,286.827439 C135.748029,286.791746 137.996686,286.434816 140.173957,286.756053 Z M40.3764213,198.308881 C44.2669547,199.37967 48.0861022,200.521845 51.3698551,203.056046 C52.583416,204.019756 54.0111347,204.733615 55.3317744,205.554553 C60.078939,208.624149 64.1479373,212.407603 67.3959972,217.047689 C68.6452511,218.86803 67.8600058,220.938222 65.7184278,221.50931 C63.2199201,222.187476 61.4709647,220.902529 59.8647812,219.332039 C53.7969769,213.407006 47.7291725,207.446281 41.6970611,201.449862 C40.9475088,200.70031 40.5191932,199.629521 39.9124128,198.701504 C40.0551846,198.594425 40.2336495,198.451653 40.3764213,198.308881 Z M241.006588,149.587981 C229.72761,162.116213 215.914432,168.719412 199.174431,169.433271 C199.245817,170.040051 199.352896,170.718218 199.424282,171.432077 C199.638439,174.751523 199.923983,178.070969 199.959676,181.426108 C199.995369,183.960309 198.746115,185.744957 196.176222,186.530202 C195.605134,186.708667 195.06974,187.208369 194.570038,187.600991 C193.070934,188.743166 191.536136,189.849648 190.072724,191.027516 C188.57362,192.205384 187.074515,193.454638 185.539718,194.703892 C186.753278,195.953145 187.752681,197.131013 188.859163,198.166109 C192.749697,201.699713 196.533151,205.447475 200.709228,208.624149 C206.098866,212.764533 212.487907,214.834725 219.162492,215.512891 C223.552727,215.941207 228.299892,216.333829 232.404583,215.084576 C240.042878,212.764533 247.395629,209.230929 253.891749,204.483764 C262.672219,198.094723 271.095759,191.205981 279.697764,184.531396 C281.268255,183.317835 282.945824,182.17566 283.945227,181.461801 C282.803052,179.962696 281.875035,178.677749 280.911325,177.392803 C279.76915,175.858005 278.591282,174.3589 277.413414,172.824103 C276.556783,171.681928 275.521687,171.396384 274.308126,172.074551 C271.666847,173.502269 268.918488,174.894295 265.884586,173.716427 C262.672219,172.467173 259.709703,170.896683 258.567528,167.113228 C258.496142,166.876357 258.427116,166.63565 258.357741,166.393764 L258.253079,166.030382 C257.584275,163.727559 256.761788,161.438046 253.463433,161.438046 C253.320662,161.438046 253.17789,161.259582 252.999425,161.188196 C250.857847,160.545722 248.787655,159.831863 246.503305,159.082311 L246.503305,160.831266 C246.360533,164.828878 246.68177,168.897877 246.003603,172.824103 C244.897121,179.605767 242.291535,185.923422 238.115458,191.420139 C236.723432,193.24048 234.903091,195.346365 231.833496,194.311269 C235.61695,188.136386 238.044072,181.390415 240.114264,174.501672 C241.649061,169.397578 242.505693,164.079326 243.826332,158.939539 C244.147569,157.725978 243.790639,156.976426 243.219552,156.012715 C242.684157,155.084698 242.255842,154.049602 241.898912,153.050199 C241.50629,151.908024 241.292132,150.730156 241.006588,149.587981 Z M73.1425649,178.606364 C78.4965099,182.139967 82.4584293,186.208965 84.849858,191.56291 C85.5637174,193.133401 85.5280244,195.025128 85.920647,196.774084 C86.4917345,199.37967 87.2412868,201.949564 87.6696024,204.55515 C87.8837602,205.733018 87.7409883,207.053658 87.3840587,208.195833 C86.9557431,209.623552 86.2418837,211.05127 85.3852525,212.300524 C84.8141651,213.085769 83.7076831,214.04948 82.9224378,213.978094 C82.0658066,213.871015 81.0307106,212.835919 80.602395,211.943595 C78.8177466,208.053061 77.8540365,203.912677 77.2472561,199.665214 C76.8546335,196.881163 75.7481515,194.20419 75.0699851,191.455832 C74.5702836,189.457025 74.1776609,187.386833 73.7493453,185.352334 C73.5351875,184.281545 73.2139508,183.175063 73.1068719,182.104274 C73.035486,181.069178 73.1425649,180.034082 73.1425649,178.606364 Z M235.795415,8.77922724 C237.330212,10.5995685 238.115458,13.1337692 239.043475,15.4181191 C239.436097,16.3461362 239.721641,16.7387588 240.756737,16.6673729 C251.571706,15.9178206 260.530641,20.3080555 268.383094,27.2324911 C269.596654,28.3032801 270.274821,30.0165425 270.98868,31.5513401 C271.452689,32.5507432 271.845311,33.2289095 273.023179,33.4430673 C284.552008,35.5132594 294.831582,40.7601255 304.611455,46.8279299 C311.321733,51.004007 314.819643,57.500127 313.927319,65.7452023 C313.748854,67.4584647 313.391925,69.0289553 311.428812,70.0283584 C310.250944,70.6351388 309.715549,72.3840942 308.858918,73.7047339 C310.714952,77.3454166 314.17717,78.9516001 317.675081,80.7005554 C322.743482,83.1990631 327.098024,86.6255879 330.167619,91.5155244 C332.880285,95.8343734 332.095039,100.224608 328.026041,103.25851 C326.955252,104.079449 325.884463,104.93608 324.492437,106.078255 C326.384165,107.041965 327.669112,107.541667 328.775593,108.291219 C330.560242,109.540473 332.34489,110.861112 333.879688,112.39591 C337.020669,115.501198 334.879091,120.569599 332.737513,122.604099 C331.238408,124.031817 329.525146,125.209685 327.918962,126.494632 C327.52634,126.815869 327.098024,127.172798 326.776787,127.601114 C325.563226,129.171604 324.635209,129.457148 322.850561,128.422052 C321.637,127.708193 321.458535,126.566018 321.779772,125.066913 C322.386552,122.211476 324.849367,120.997915 326.669708,119.320346 C329.346681,116.893224 329.168216,113.252541 325.991542,111.610665 C324.242587,110.718341 322.422245,109.861709 320.958834,108.648148 C318.38894,106.542263 318.174782,104.400685 320.244974,102.116336 C321.070374,101.179395 321.812119,100.172742 322.539921,99.1486606 L323.411052,97.9147435 C323.556612,97.7088118 323.702731,97.5030196 323.849964,97.297785 C324.956446,95.6916015 324.920753,94.085418 323.992736,92.3007697 C321.958237,88.4459292 318.710177,85.8760356 314.891029,84.0913873 C311.143268,82.3067389 307.573971,80.4507047 305.111156,76.917101 C304.682841,76.3103205 303.683438,75.9890838 302.8625,75.739233 C300.828,75.1324526 301.256316,73.7047339 301.613246,72.3127082 C302.434184,69.1717271 303.433587,66.066439 304.218832,62.925458 C305.789323,56.7148817 302.969578,49.7547532 296.473458,47.1134736 C292.297381,45.4359042 288.371155,43.0801684 284.123692,41.7238356 C279.305141,40.1533451 274.23674,39.4037928 269.275418,38.2259249 C266.77691,37.6548374 264.528253,36.6197414 263.421771,34.0498478 C263.17192,33.4430673 263.064842,32.693515 263.100534,31.9796557 C263.17192,28.5174379 261.387272,26.4115529 258.35337,25.197992 C256.176099,24.3413608 253.963135,23.5918085 251.714478,22.9493351 C248.502111,22.0213179 245.254051,22.3782476 242.005991,22.8779491 C240.935202,23.056414 239.721641,22.7708702 238.615159,22.5210195 C236.759125,22.0927039 234.938784,21.6286953 233.154135,20.9862219 C232.511662,20.7720641 231.76211,20.1295907 231.512259,19.5228103 C231.155329,18.6304861 231.04825,17.5596971 231.083943,16.560294 C231.191022,13.4906989 230.120233,10.8494193 228.299892,8.4936835 C227.871576,7.92259603 227.122024,7.49428043 226.443858,7.2087367 C222.660403,5.63824616 218.948334,6.20933363 215.129187,7.38720153 C209.596777,9.10046394 204.314218,11.170656 199.459975,14.418716 C196.711616,16.2747503 193.499249,17.4526182 190.429654,18.701872 C188.716392,19.4157314 187.038822,18.5591002 185.93234,16.9172237 C186.503428,16.560294 187.074515,16.1676714 187.681296,15.8107417 C187.681296,15.6679698 187.681296,15.489505 187.716988,15.3467331 C187.038822,15.2396542 186.360656,14.9898035 185.718182,14.9898035 C183.362447,15.0254964 180.863939,14.7399527 178.650975,15.3467331 C175.58138,16.2390573 172.690249,17.7738549 169.763426,19.1301876 C168.942488,19.5228103 168.264322,20.2723626 167.514769,20.84345 C165.301805,22.6280984 163.731315,24.7339834 164.052551,27.8035786 C164.123937,28.3389731 163.767008,28.9100605 163.695622,29.1242183 C162.339289,29.2669902 161.161421,29.3740691 160.019246,29.516841 C156.628414,29.9451566 153.844363,31.5870331 151.310162,33.83569 C149.5969,35.3347946 149.132891,36.9409781 149.95383,39.0468631 C150.453531,40.3675029 150.739075,41.7595286 150.91754,43.1515543 C150.988926,43.6512559 150.56061,44.579273 150.132294,44.7220449 C146.741463,45.9356057 144.028797,48.1485697 141.387518,50.5043055 C138.853317,52.7886554 136.461888,55.1443912 134.820012,58.1426004 C131.714724,63.7107032 132.535662,70.5637529 136.711739,75.3466104 C137.56837,76.3460135 138.103765,77.6309603 138.853317,78.9159071 C138.317922,79.4156086 137.639756,80.4150117 137.21144,80.3079328 C135.926494,79.9866961 134.712933,79.3442227 133.570758,78.6303634 C132.892591,78.2020478 132.428583,77.4881884 131.607645,76.6315572 C129.930075,79.3442227 128.359585,81.8070374 126.789094,84.3412381 C124.57613,87.8748418 123.719499,91.8724541 122.969947,95.9057593 C122.220394,99.9390646 124.540437,102.794502 126.646322,105.757018 C128.323892,108.148447 129.822996,110.611262 129.930075,113.680857 C130.072847,117.892627 128.288199,121.140687 125.182911,123.746273 C120.435746,127.708193 115.902739,131.812884 112.369135,136.988364 C106.586875,145.48329 105.980094,154.120988 110.762952,163.187002 C112.012206,165.542738 113.082995,167.86278 115.902739,169.040648 C117.044914,169.504657 118.008624,171.039455 117.865852,172.966875 C117.651695,175.786619 117.901545,178.642056 118.151396,181.461801 C118.401247,184.174466 119.900351,186.351737 121.863465,188.172079 C122.327473,188.600394 122.969947,188.921631 123.576727,189.064403 C126.717708,189.742569 129.930075,190.063806 133.071056,188.993017 C136.104958,187.957921 139.103168,186.922825 142.101377,185.78065 C144.314341,184.959712 146.562998,184.602782 148.668883,185.709264 C153.523126,188.279158 157.984747,187.244061 162.267903,184.495703 C164.51656,183.032291 166.586752,181.283336 168.906795,179.962696 C169.69204,179.498688 170.727136,178.249434 172.012083,179.462995 C173.225644,180.60517 173.475495,181.997195 172.797328,183.317835 C169.620654,189.421332 164.195323,192.348156 157.66351,192.847857 C154.986538,193.026322 152.166794,191.741375 149.454128,190.884744 C148.240567,190.492121 147.276857,190.420736 146.098989,190.884744 C142.672464,192.205384 139.210247,193.526024 135.712336,194.56112 C131.107943,195.917452 126.432164,195.953145 121.970544,193.84726 C114.939029,190.563507 111.798048,184.567089 111.405425,177.178645 C111.226961,174.001971 110.513101,171.646235 108.442909,169.040648 C105.837323,165.792588 103.802823,162.009134 102.696341,157.797364 C100.911693,150.872928 101.340009,144.162651 104.338218,137.809302 C105.980094,134.311392 108.514295,131.170411 111.048496,128.243587 C114.22517,124.602905 117.937238,121.390538 121.256684,117.856934 C122.29178,116.786145 122.969947,115.28704 123.541034,113.895015 C124.469051,111.574972 123.148411,109.647552 122.077622,107.720131 C121.149605,106.078255 120.114509,104.507764 119.04372,102.937274 C116.545213,99.2252052 117.223379,95.2275929 117.865852,91.2299807 C118.771561,85.5692992 121.729267,80.905302 124.773084,76.2816119 L125.718305,74.8469089 C126.396471,73.8118128 127.110331,72.7767168 127.859883,71.8130067 C128.716514,70.7065247 128.859286,69.6714287 128.573742,68.24371 C126.824787,59.9629417 128.502356,52.5388046 134.784319,46.5780791 C137.746835,43.7583348 140.923509,41.2241341 143.957411,38.4757757 C144.42142,38.083153 144.885428,37.2979078 144.814042,36.7625132 C143.993104,31.2657964 147.31255,26.3401669 153.558819,24.162896 C155.521932,23.4847296 157.41366,22.4853265 159.305387,21.5573094 C159.662317,21.3788445 159.912167,20.879143 160.090632,20.4865204 C163.410078,13.38362 169.08526,9.49308658 176.759248,8.35091164 C177.044791,8.31521867 177.366028,8.24383274 177.651572,8.2795257 C178.650975,8.42229757 179.43622,9.06477097 180.721167,8.20813977 C181.266296,7.84472047 182.230596,8.08837659 183.218548,8.38722139 L183.642252,8.51706763 C184.065097,8.64707477 184.481908,8.77273761 184.861551,8.85061317 C185.075709,8.88630614 185.254174,9.20754284 185.468332,9.20754284 C188.038225,9.06477097 189.358865,10.6709545 190.286882,12.9553044 C192.42846,11.4561998 194.570038,10.2069459 196.390379,8.67214834 C200.459378,5.24562352 205.385007,3.74651891 210.274944,2.0332565 C219.162492,-1.07203161 230.191619,2.06894947 235.795415,8.77922724 Z M332.451969,161.973441 C336.806511,164.293484 337.984379,167.86278 337.020669,170.396981 C335.628643,174.144743 333.3086,177.214338 329.596532,179.106065 C326.384165,180.712249 322.993333,181.104871 319.495422,180.60517 C317.211072,180.283933 315.462117,178.499285 315.462117,176.322014 C315.462117,175.786619 315.747661,175.037067 316.140283,174.822909 C316.568599,174.573058 317.603695,174.608751 317.853546,174.929988 C319.816659,177.464189 321.958237,175.715233 323.742885,175.001374 C326.883866,173.75212 328.561436,170.896683 329.953461,167.969859 C330.560242,166.720606 330.203312,165.542738 329.061137,164.686106 C328.382971,164.257791 327.77619,163.758089 327.098024,163.222695 C328.775593,160.795573 329.846382,160.581415 332.451969,161.973441 Z M127.645725,134.061541 C128.216813,134.525549 128.573742,134.846786 128.966365,135.168023 C130.10854,136.167426 130.643934,137.345294 130.322698,138.915784 C129.715917,141.735529 129.180523,144.555273 128.645128,147.375018 C128.502356,148.053184 128.502356,148.802736 128.609435,149.516596 C129.037751,153.192971 130.10854,153.692673 133.320907,151.908024 C136.104958,150.337534 140.423807,150.837235 141.601675,153.192971 C142.208456,154.406532 142.172763,155.905637 142.493999,157.261969 C142.815236,158.582609 143.10078,159.938942 143.636174,161.152503 C145.063893,164.36487 146.741463,164.864571 150.453531,163.508239 C152.452337,162.794379 154.451143,162.116213 156.485642,161.545125 C157.813718,161.177785 158.739133,161.884209 159.633789,162.654946 L160.056736,163.020868 C160.150864,163.101487 160.245302,163.181053 160.340483,163.258388 C160.518948,163.40116 160.590334,164.043633 160.447562,164.222098 C159.662317,165.185808 158.98415,166.506448 157.913361,166.970456 C151.809864,169.647429 145.670674,170.111437 139.709948,166.363676 C139.424404,166.185211 139.067475,165.971053 138.88901,165.721202 C137.56837,163.65101 136.176344,161.652204 135.069862,159.474933 C134.534468,158.439837 134.106152,157.975829 132.856898,158.047215 C129.287602,158.189986 125.968156,157.51182 123.755192,154.299453 C120.36436,149.409517 120.471439,142.806318 124.076429,138.02346 C125.182911,136.524356 126.50355,135.310795 127.645725,134.061541 Z M332.808899,133.775997 C337.734528,136.738513 342.374614,139.986573 344.266341,145.875913 C345.765446,150.480306 343.40971,154.156681 340.482887,156.726575 C338.412695,158.546916 336.092652,160.188793 333.05875,159.974635 C331.880882,159.903249 330.845786,159.689091 330.131926,158.511223 C329.45376,157.333355 329.596532,156.405338 330.810093,155.905637 C334.093846,154.477918 335.771415,151.658174 337.234827,148.624271 C338.162844,146.732544 337.448984,145.019282 336.271117,143.591563 C333.701223,140.557661 330.917171,137.666531 328.13312,134.525549 C329.882075,132.276893 330.167619,132.205507 332.808899,133.775997 Z M304.397297,136.881285 C304.611455,137.05975 304.611455,137.41668 304.78992,137.630838 C305.682244,138.773013 307.395506,139.95088 307.32412,141.021669 C307.181349,142.984783 306.324717,145.054975 305.218235,146.768237 C302.755421,150.694463 299.186124,152.871734 294.367573,152.479112 C292.011838,152.300647 289.763181,150.301841 289.763181,147.910412 C291.119513,147.910412 292.368767,148.053184 293.546635,147.874719 C294.474652,147.731947 295.545441,147.41071 296.259301,146.80393 C298.2938,145.054975 299.685826,142.877704 300.613843,140.272117 C301.113544,138.844398 302.541263,137.702224 303.576359,136.488663 C303.647745,136.417277 304.183139,136.667127 304.397297,136.881285 Z M219.876352,132.455357 C220.625904,132.955059 220.554518,133.918769 219.840659,134.7754 C217.841853,137.238215 215.950125,139.665337 213.166074,141.485678 C208.240444,144.662352 202.922192,146.661158 197.175625,146.625465 C194.530146,146.60027 191.866883,145.95261 189.223496,145.272518 L187.903634,144.932501 C187.244705,144.763873 186.587411,144.599364 185.93234,144.448194 C185.539718,144.376808 185.254174,143.55587 185.040016,143.234633 C186.511359,141.097021 188.284991,141.183389 190.125799,141.411305 L190.5212,141.461552 L190.719511,141.486878 L191.117033,141.535086 C191.316029,141.557808 191.515315,141.577885 191.714601,141.592757 C194.10603,141.771222 196.604537,141.771222 198.888887,141.235827 C204.564069,139.879494 209.846628,137.488066 214.522407,133.847383 C215.379038,133.20491 216.235669,132.419664 217.199379,132.134121 C218.020317,131.88427 219.198185,131.991349 219.876352,132.455357 Z M289.085014,125.281071 C290.334268,127.244184 290.619812,129.385762 289.905953,131.563033 C288.585313,135.524953 286.300963,138.701627 282.731666,141.057362 C279.198063,143.413098 275.628766,143.127554 272.059469,141.735529 C268.418787,140.30781 266.705524,136.916978 265.027955,133.633225 C264.920876,133.45476 265.45627,132.633822 265.848893,132.526743 C267.990471,131.812884 269.560961,133.097831 271.024373,134.382778 C271.738232,134.989558 272.30932,135.774803 272.9161,136.524356 C274.23674,138.059153 275.021985,138.237618 276.735248,137.166829 C280.304545,134.882479 282.303351,131.384568 283.481219,127.494035 C283.766762,126.458939 282.910131,125.138299 282.553201,123.889045 C284.516315,122.211476 287.478831,122.74687 289.085014,125.281071 Z M140.923509,124.031817 C141.101974,124.245975 141.17336,124.460133 141.316132,124.495826 C143.9471,124.987596 144.40991,126.732832 144.688276,128.576313 L144.740383,128.934032 C144.842121,129.650683 144.935398,130.370888 145.135279,131.027639 C145.38513,131.812884 145.420823,132.705208 145.849138,133.383375 C146.170375,133.883076 147.027006,134.454164 147.562401,134.382778 C149.382742,134.061541 150.417838,135.275102 151.52432,136.203119 C151.738478,136.381584 151.238776,137.952074 150.703382,138.273311 C147.812252,140.093652 140.031185,138.309004 139.817027,133.20491 C139.781334,132.062735 139.174554,130.956253 139.103168,129.778385 C138.88901,126.994333 139.067475,126.637404 140.923509,124.031817 Z M188.359462,101.68802 C191.072127,102.865888 190.750891,105.507167 191.393364,108.469684 C190.393961,111.503586 189.251786,115.108575 188.073918,118.677872 C187.681296,119.85574 187.217287,121.033608 186.89605,122.211476 C186.253577,124.567212 187.467138,126.209088 189.822874,125.923544 C193.106626,125.530922 196.390379,124.709984 199.674132,124.210282 C200.316606,124.103203 201.637246,124.42444 201.637246,124.674291 C201.744324,125.530922 201.708631,126.70879 201.20893,127.31557 C198.853194,130.099622 195.426669,130.635016 192.107223,130.742095 C189.858567,130.813481 187.395752,130.420858 185.32556,129.528534 C181.435026,127.850965 178.758054,125.03122 180.471316,120.355442 C181.756263,116.857531 183.112596,113.395313 184.147692,109.790323 C184.718779,107.82721 184.6117,105.685632 184.790165,103.61544 C184.861551,102.937274 184.861551,101.68802 185.040016,101.652327 C186.146498,101.473862 187.395752,101.295397 188.359462,101.68802 Z M308.430602,114.573181 C310.786338,115.001497 312.428215,116.571987 313.21346,118.856337 C314.034398,121.17638 313.177767,123.246572 312.035592,125.245378 C310.714952,127.565421 308.609067,128.350666 306.003481,127.565421 C304.575762,127.137105 304.147446,125.959237 304.611455,124.567212 C305.182542,122.889642 305.646551,121.17638 305.967788,119.427424 C306.18577,118.264854 305.516253,117.92404 304.762213,117.64662 L304.522223,117.560236 C304.24114,117.45985 303.960058,117.357232 303.719131,117.214461 C302.898193,116.750452 302.077254,116.107979 301.256316,115.501198 C303.540666,112.574375 306.11056,114.144865 308.430602,114.573181 Z M278.44851,81.4501077 C283.338447,82.1282741 287.800068,83.6987647 290.191496,88.5530081 C290.369961,88.9099378 290.655505,89.4096394 290.548426,89.6951831 C289.620409,92.3364626 291.654908,92.8718571 293.296784,93.6927954 C297.651326,95.7986804 298.936273,98.3328811 298.151028,103.115739 C297.57994,106.720728 295.830985,109.790323 293.760793,112.681454 C292.40446,114.608874 287.800068,115.03719 286.193884,113.502392 C285.729875,113.038383 285.551411,112.288831 285.230174,111.610665 C288.621006,108.79092 290.298575,104.864694 291.369364,100.617231 C291.904759,98.5470389 290.726891,96.8694694 288.656699,96.4411538 C288.085611,96.3340749 287.478831,96.226996 286.907743,96.1199171 C284.016613,95.5845226 282.624587,93.8355672 282.838745,90.873051 C283.088596,87.2680613 282.553201,86.554202 279.198063,85.9117286 C277.806037,85.6618778 276.021388,85.8046497 276.342625,83.4846069 C276.414011,83.1633702 275.950003,82.7707475 275.521687,82.1282741 C276.628169,81.8427304 277.591879,81.3073359 278.44851,81.4501077 Z M174.510591,103.61544 C175.260143,105.114545 175.724152,106.792114 176.438011,108.826613 C175.58138,109.790323 174.831827,111.07527 173.725345,111.78913 C172.511785,112.574375 170.65575,111.682051 169.656347,110.11156 C168.978181,109.040771 168.442786,107.82721 168.050164,106.577956 C167.443383,104.721922 168.514172,103.222818 170.976987,102.080643 C172.119162,101.545248 173.796731,102.152029 174.510591,103.61544 Z M210.203558,94.049725 C211.91682,96.0842242 212.202364,98.7255037 212.130978,101.224011 C212.130978,102.009257 211.060189,102.972967 210.274944,103.436975 C208.882918,104.293607 207.205348,104.186528 206.313024,102.794502 C205.277928,101.188318 204.671148,99.2608982 203.885902,97.4762499 C204.028674,97.4048639 204.171446,97.333478 204.349911,97.297785 C204.314218,94.3709617 205.206542,93.014629 207.490892,92.9075501 C208.383216,92.8718571 209.596777,93.3715587 210.203558,94.049725 Z M171.583767,86.9825176 C174.046582,87.4465262 174.581977,88.2674644 174.332126,90.908744 C171.655153,91.3370596 169.08526,91.6939892 166.551059,92.1936908 C165.016262,92.5149275 163.481464,93.0860149 161.982359,93.5143305 C159.69801,94.1568039 158.734299,93.7284883 157.485046,91.6226033 C158.341677,89.7308761 160.019246,88.7671659 161.839588,88.0176136 C164.980569,86.6969739 168.228629,86.3043512 171.583767,86.9825176 Z M209.02569,76.0604698 C212.023899,76.5601713 214.80795,76.8100221 217.484923,77.5238814 C218.876949,77.8808111 220.233281,78.8802141 221.232684,79.9153102 C222.160702,80.8790203 221.411149,82.1282741 220.019123,82.0211952 C218.163089,81.8784233 216.307055,81.7356515 214.486714,81.3430288 C210.881724,80.5934765 207.597971,81.0931781 204.421297,82.9849053 C201.672939,84.6267818 198.853194,86.3400442 195.462362,86.2686583 C194.71281,86.2329653 193.7491,86.6612809 193.356477,85.3049482 C192.963855,84.0200014 193.320784,82.9492124 194.10603,82.3067389 C196.854388,80.1651609 199.424282,77.5595744 203.100657,76.917101 C205.135156,76.6315572 207.169655,76.3460135 209.02569,76.0604698 Z M260.102325,75.0610667 C261.280193,75.3109174 262.386675,76.4173994 263.207613,77.4168025 C263.957166,78.3091267 262.56514,79.8439242 261.173114,79.7368453 C258.139212,79.4513016 255.10531,78.4162056 252.035715,79.5226875 C248.787655,80.6648625 245.575288,81.9141163 242.291535,82.9135194 C240.649658,83.341835 238.86501,83.341835 236.973283,83.5916858 C238.151151,78.6660563 241.434904,76.881408 245.36113,75.5607682 C250.251066,73.8831988 255.176696,73.9902777 260.102325,75.0610667 Z M255.926248,59.677398 C258.995843,59.7130909 260.030939,60.6054151 260.602027,63.2823876 C256.140406,64.6387204 251.678785,65.9236672 247.28855,67.3513858 C244.147569,68.3864819 241.077974,69.6000428 238.044072,70.8136036 C237.330212,71.0991474 236.679807,71.527463 236.039978,71.9716421 L235.401715,72.4164088 C235.295273,72.4898511 235.188634,72.562559 235.081556,72.6339449 C234.046459,73.3478043 233.154135,73.3121113 232.261811,72.3840942 C231.298101,71.4203841 231.583645,70.385288 232.261811,69.5286568 C232.797206,68.8504904 233.618144,68.3864819 234.260617,67.7797014 C239.234919,62.8394703 245.607662,61.2815166 252.168145,60.0635645 L253.106504,59.8915558 C254.034521,59.7130909 254.998231,59.677398 255.926248,59.677398 Z M267.062454,53.0741991 C267.883392,53.9665233 268.918488,55.0730052 269.025567,56.1794872 C269.132646,57.3216622 269.41819,57.8570567 270.346207,58.3210652 C274.272433,60.3555643 277.4848,63.1039228 278.948212,67.3870788 C279.269448,68.3507889 279.590685,69.9212795 279.090984,70.456674 C278.341431,71.2776122 277.199256,71.6702348 275.55738,71.2062263 C273.808425,70.7065247 274.23674,69.9212795 274.022582,68.9575693 C273.844118,68.1723241 273.665653,67.2443069 273.130258,66.7089124 C270.524672,64.2104048 267.883392,61.74759 264.314095,60.5340292 C262.422368,59.8915558 262.029745,58.0355215 262.957763,56.2508731 C263.350385,55.3942419 263.52885,54.3234529 263.850087,53.216971 C264.171323,53.3240499 264.706718,53.5382077 264.742411,53.4668217 C265.384884,52.3960327 266.277209,52.2175679 267.062454,53.0741991 Z M150.060908,64.2104048 C152.273872,65.1741149 154.308372,66.5661406 156.44995,67.7083155 C157.734896,68.3864819 157.66351,69.5286568 157.485046,70.6351388 C157.41366,70.9563755 156.6998,71.4203841 156.342871,71.3846911 C152.48803,71.0277614 149.347049,68.9932623 146.34884,66.8159913 C145.813445,66.4590617 145.920524,65.1741149 145.670674,64.1033259 C147.169778,62.9968439 148.740269,63.6393173 150.060908,64.2104048 Z M159.483852,53.2526639 C162.267903,54.7517685 165.087648,56.2151802 166.943682,59.0706175 C168.621251,61.6762041 168.764023,61.5691252 168.3714,62.925458 C165.908586,63.6750103 164.052551,62.7469931 162.374982,60.9980377 C161.554044,60.1770995 160.483255,59.606012 159.626624,58.7850738 C158.091826,57.3216622 156.6998,55.7868646 155.200696,54.216374 C156.628414,52.5388046 158.234598,52.5744976 159.483852,53.2526639 Z M249.037506,37.8333023 C249.073199,38.4757757 249.073199,39.1182491 249.144584,40.1176521 C253.284969,39.225328 256.997037,40.296117 260.709106,41.366906 C263.064842,42.0450723 264.956569,43.3657121 266.384287,45.3645183 C266.991068,46.2211495 266.669831,46.8636229 265.848893,47.3633244 C264.563946,48.1842626 262.92207,47.827333 261.672816,46.9350088 C258.210598,44.5078871 254.248679,43.5798699 250.17968,44.5078871 C247.716866,45.0432816 245.432516,46.5423862 243.112473,47.6845611 C240.399808,49.0052009 237.580063,50.2187618 235.081556,51.8606382 C230.584242,54.8231545 226.301086,58.1069074 221.910851,61.2121955 C221.710754,61.3582122 221.514754,61.5206169 221.318381,61.6863736 L221.08227,61.8860563 L220.844084,62.0839513 C219.884906,62.8652814 218.834766,63.4835662 217.199379,62.4971423 C216.806756,59.4275472 218.234475,56.465031 220.411746,54.6089967 C226.086928,49.8261391 232.333197,45.7571409 239.436097,43.2943262 C239.971492,43.1158613 240.613965,43.1515543 241.14936,42.9373965 C241.684754,42.7232387 242.434307,42.366309 242.577079,41.9023005 C243.005394,40.5102748 243.43371,39.0468631 243.43371,37.5834515 C243.43371,35.977268 244.147569,34.906479 245.503902,34.5138563 C246.646077,34.1926196 248.787655,36.3698906 249.037506,37.8333023 Z M245.039893,58.2139863 C245.075586,59.4275472 244.290341,60.1770995 242.934008,60.1770995 C240.756737,60.2127925 239.293326,58.9278457 239.114861,57.2145833 C238.949061,55.6671204 239.788756,55.6172023 240.640182,55.6238734 L240.852708,55.6258862 C241.029059,55.6271562 241.202324,55.6256705 241.363518,55.6083997 C242.505693,55.5013208 245.0042,57.3216622 245.039893,58.2139863 Z M177.294642,35.6203383 C181.399333,37.7262234 184.326157,40.9742833 184.504621,45.8285268 C184.683086,50.5043055 184.540314,55.1443912 184.540314,59.9272487 C181.506412,59.2490824 179.900229,57.3930481 179.364834,54.3591459 C178.82944,51.3966297 178.47251,48.3627275 177.615879,45.4715972 C176.90202,43.1515543 175.617073,40.9742833 174.439205,38.8327053 C173.90381,37.8689952 172.476092,36.9052851 173.689653,35.941575 C174.510591,35.2991016 176.366625,35.1563297 177.294642,35.6203383 Z M152.773574,53.6095936 C153.737284,53.7880584 154.950845,55.322856 154.843766,56.2865661 C154.700994,57.3930481 152.48803,59.4632402 151.702785,58.9992316 C150.846154,58.4995301 149.918137,57.6428989 149.632593,56.7505747 C149.347049,55.8582505 151.952636,53.5025147 152.773574,53.6095936 Z M218.198782,23.020721 L218.834388,23.4980494 C220.117461,24.460823 221.441743,25.4835357 222.26778,26.7684825 C223.088719,28.0891223 223.695499,28.1605082 225.051832,27.8749645 C227.693111,27.33957 230.405777,26.9826403 233.118442,26.9112544 C234.65324,26.8755614 236.295116,27.375263 237.722835,28.0177364 C238.543773,28.374666 239.043475,29.4097621 239.650255,30.1593144 C238.900703,30.623323 238.151151,31.1587175 237.401598,31.5870331 C237.116055,31.7298049 236.723432,31.694112 236.366502,31.7654979 C236.330809,31.694112 236.330809,31.5870331 236.330809,31.5156471 C234.189231,31.5156471 232.047653,31.3728753 229.941768,31.5513401 C228.264199,31.694112 226.586629,32.1938135 224.944753,32.729208 C224.373665,32.9076728 224.016736,33.764304 223.517034,34.2283126 C220.518825,36.9766711 217.270765,39.5465647 214.522407,42.5090809 C211.131575,46.1854565 208.097673,50.2187618 204.885306,54.1092951 C204.064367,55.1086982 203.279122,56.1081013 202.315412,56.9647325 C201.851403,57.3930481 200.673535,57.7856707 200.530764,57.6072059 C199.816904,56.7505747 198.781808,55.6083997 198.92458,54.7517685 C199.174431,53.0741991 200.066755,51.4680156 200.816307,49.8618321 C203.457587,43.9367996 207.990594,39.5822576 212.737758,35.3704875 C214.343942,33.9427689 215.807353,32.3008924 217.020914,30.5162441 C217.763328,29.4026235 217.272193,28.2890029 216.717096,27.211932 L216.549817,26.8899437 C216.466388,26.7295344 216.384152,26.5700296 216.307055,26.4115529 C215.985818,25.7333865 215.593196,25.0552201 215.414731,24.3056678 C215.236266,23.5561155 217.413537,22.4139406 218.198782,23.020721 Z M252.606802,54.0379092 C253.106504,54.8945404 252.249873,56.6434958 251.250469,56.7505747 C248.25226,57.1075044 245.71806,54.7160756 245.503902,51.2538578 C248.038102,50.5756914 251.321855,51.8963312 252.606802,54.0379092 Z M172.226241,48.5411923 C173.225644,49.5049024 172.511785,50.3972266 171.833618,50.9326211 C170.762829,51.8249453 169.477882,52.5031116 168.228629,53.2883569 C167.91929,52.8124507 167.689268,52.4634528 167.47511,52.1356063 L167.26389,51.8108933 C167.228785,51.7566439 167.193533,51.7020028 167.15784,51.6464804 C166.943682,52.0034101 166.765217,52.3246468 166.551059,52.6458835 C166.194129,51.1824719 166.158437,49.7904461 167.550462,48.862429 C169.370804,47.6131752 171.119759,47.5060963 172.226241,48.5411923 Z M224.980446,44.8648167 C225.444454,45.2217464 225.944156,46.0069917 225.87277,46.5066932 C225.801384,47.0777807 225.230297,47.827333 224.694902,48.0771837 C222.374859,49.1122798 220.661597,48.3270345 219.697887,45.9712987 C219.626501,45.7214479 219.412343,45.5429831 219.162492,45.2574394 C219.372958,45.1835918 219.581513,45.1055427 219.788436,45.026532 L220.200185,44.8681886 C221.839125,44.2373675 223.38534,43.6832564 224.980446,44.8648167 Z M168.198932,42.3785874 L168.476294,42.5337434 C168.709391,42.6627792 168.947587,42.7895257 169.192339,42.9017035 C167.479076,44.6863519 165.872893,46.3639213 164.302402,47.9344119 C163.572319,47.4671585 163.105065,47.1671606 162.66605,46.8975728 L162.374982,46.720851 C162.23221,46.7922369 162.125131,46.8636229 161.982359,46.9350088 C161.62543,44.8648167 163.445771,43.9724926 164.51656,42.6161598 C165.772952,41.0171149 166.915127,41.6567329 168.198932,42.3785874 Z M198.175028,40.9385904 C199.388589,41.8666075 199.352896,43.3657121 197.925177,43.9724926 C196.711616,44.5078871 195.31959,44.7220449 194.034644,45.0789745 C194.034644,45.0075886 193.998951,44.9005097 193.998951,44.8291238 C193.606328,44.8291238 193.035241,45.0075886 192.78539,44.7934308 C192.035837,44.1509574 191.321978,43.437098 190.85797,42.6161598 C190.750891,42.437695 191.643215,41.4739849 192.214302,41.1884411 L192.600283,41.0102513 C194.403947,40.1834858 196.242849,39.4727992 198.175028,40.9385904 Z M229.656225,37.9046882 C230.834092,38.3330038 232.547355,38.3686968 232.547355,40.4031959 C232.547355,41.4739849 232.226118,42.1164583 231.226715,41.9736864 C229.263602,41.6881427 227.300489,41.1884411 225.301683,40.7601255 C225.51584,37.1908289 226.515243,36.7625132 229.656225,37.9046882 Z M200.387992,31.4442612 C200.923386,31.658419 201.744324,32.6221291 201.672939,32.764901 C201.280316,33.4430673 200.60215,34.4424704 199.995369,34.4781634 C196.64023,34.6209352 193.427863,35.3347946 190.286882,36.3698906 C188.930549,36.8338992 188.002532,36.4412765 187.895453,34.835093 C187.574217,34.9778649 187.288673,35.0849438 187.003129,35.1920227 C186.860357,35.0492508 186.753278,34.906479 186.610507,34.7637071 C187.502831,33.9070759 188.288076,32.729208 189.358865,32.2295065 C192.892469,30.58763 196.604537,30.0522355 200.387992,31.4442612 Z" id="Combined-Shape" fill="#000000" fill-rule="nonzero"></path>
    </g>
</svg>